SplineFontDB: 3.2
FontName: AxiomNovaRegenerated-Regular
FullName: AxiomNova Regenerated Regular
FamilyName: AxiomNova Regenerated
Weight: Medium
Copyright: Copyright (c) 2026, doran
Version: 001.000
ItalicAngle: 0
UnderlinePosition: -100
UnderlineWidth: 50
Ascent: 800
Descent: 200
InvalidEm: 0
sfntRevision: 0x00010000
LayerCount: 2
Layer: 0 1 "Back" 1
Layer: 1 1 "Fore" 0
XUID: [1021 51 1025553504 7766]
StyleMap: 0x0000
FSType: 0
OS2Version: 4
OS2_WeightWidthSlopeOnly: 0
OS2_UseTypoMetrics: 1
CreationTime: 1778451323
ModificationTime: 1778459457
PfmFamily: 17
TTFWeight: 420
TTFWidth: 5
LineGap: 90
VLineGap: 0
Panose: 2 0 5 3 0 0 0 0 0 0
OS2TypoAscent: 720
OS2TypoAOffset: 0
OS2TypoDescent: -190
OS2TypoDOffset: 0
OS2TypoLinegap: 90
OS2WinAscent: 780
OS2WinAOffset: 0
OS2WinDescent: 230
OS2WinDOffset: 0
HheadAscent: 720
HheadAOffset: 0
HheadDescent: -190
HheadDOffset: 0
OS2SubXSize: 650
OS2SubYSize: 700
OS2SubXOff: 0
OS2SubYOff: 140
OS2SupXSize: 650
OS2SupYSize: 700
OS2SupXOff: 0
OS2SupYOff: 480
OS2StrikeYSize: 49
OS2StrikeYPos: 258
OS2CapHeight: 700
OS2XHeight: 510
OS2Vendor: 'PfEd'
OS2CodePages: 00000001.00000000
OS2UnicodeRanges: 00000001.00000000.00000000.00000000
Lookup: 258 0 0 "'kern' Horizontal Kerning in Latin lookup 0" { "'kern' Horizontal Kerning in Latin lookup 0 subtable"  } ['kern' ('latn' <'dflt' > ) ]
DEI: 91125
ShortTable: cvt  2
  33
  633
EndShort
ShortTable: maxp 16
  1
  0
  86
  374
  4
  0
  0
  2
  0
  1
  1
  0
  64
  46
  0
  0
EndShort
LangName: 1033 "" "" "" "FontForge 2.0 : AxiomNova Regenerated Regular : 10-5-2026" "" "Version 001.000"
GaspTable: 1 65535 2 0
Encoding: UnicodeBmp
UnicodeInterp: none
NameList: Adobe Glyph List
DisplaySize: -48
AntiAlias: 1
FitToEm: 0
WinInfo: 63 21 14
BeginChars: 65539 89

StartChar: .notdef
Encoding: 65536 -1 0
Width: 364
GlyphClass: 1
Flags: W
LayerCount: 2
Fore
SplineSet
66 33 m 1,0,-1
 265 33 l 1,1,-1
 265 633 l 1,2,-1
 66 633 l 1,3,-1
 66 33 l 1,0,-1
33 0 m 1,4,-1
 33 666 l 1,5,-1
 298 666 l 1,6,-1
 298 0 l 1,7,-1
 33 0 l 1,4,-1
EndSplineSet
EndChar

StartChar: exclam
Encoding: 33 33 4
Width: 901
GlyphClass: 1
Flags: W
LayerCount: 2
Fore
SplineSet
413 135 m 1
 475 135 l 1
 475 126 l 1
 492 126 l 1
 492 117 l 1
 501 117 l 1
 501 109 l 1
 510 109 l 1
 510 100 l 1
 518 100 l 1
 518 39 l 1
 510 39 l 1
 510 21 l 1
 501 21 l 1
 501 13 l 1
 492 13 l 1
 492 4 l 1
 483 4 l 1
 483 -5 l 1
 405 -5 l 1
 405 4 l 1
 396 4 l 1
 396 13 l 1
 387 13 l 1
 387 21 l 1
 378 21 l 1
 378 30 l 1
 370 30 l 1
 370 91 l 1
 378 91 l 1
 378 109 l 1
 387 109 l 1
 387 117 l 1
 396 117 l 1
 396 126 l 1
 413 126 l 1
 413 135 l 1
500 188 m 1
 500 196 l 1
 400 196 l 1
 400 188 l 1
 392 188 l 1
 392 196 l 1
 383 196 l 1
 383 205 l 1
 392 205 l 1
 392 663 l 1
 383 663 l 1
 383 671 l 1
 392 671 l 1
 388 778 l 1
 511 778 l 1
 508 188 l 1
 500 188 l 1
EndSplineSet
EndChar

StartChar: quotedbl
Encoding: 34 34 5
Width: 568
GlyphClass: 1
Flags: W
LayerCount: 2
Fore
SplineSet
123 740 m 1
 124 740 124 740 208 740 c 1
 208 728 l 1
 232 728 l 1
 232 716 l 1
 244 716 l 1
 244 704 l 1
 256 704 l 1
 256 680 l 1
 268 680 l 1
 268 535 l 1
 256 535 l 1
 256 534 256 534 256 498 c 1
 244 498 l 1
 244 474 l 1
 232 474 l 1
 232 462 l 1
 220 462 l 1
 220 438 l 1
 208 438 l 1
 208 426 l 1
 183 426 l 1
 183 414 l 1
 171 414 l 1
 171 402 l 1
 147 402 l 1
 147 390 l 1
 146 390 146 390 74 390 c 1
 74 402 l 1
 98 402 l 1
 98 414 l 1
 111 414 l 1
 111 426 l 1
 123 426 l 1
 123 438 l 1
 135 438 l 1
 135 462 l 1
 147 462 l 1
 147 486 l 1
 159 486 l 1
 159 547 l 1
 147 547 l 1
 147 559 l 1
 111 559 l 1
 111 571 l 1
 110 571 110 571 98 571 c 1
 98 583 l 1
 86 583 l 1
 86 595 l 1
 74 595 l 1
 74 596 74 596 74 620 c 1
 62 620 l 1
 62 692 l 1
 74 692 l 1
 74 704 l 1
 86 704 l 1
 86 716 l 1
 98 716 l 1
 98 728 l 1
 123 728 l 1
 123 740 l 1
354 740 m 1
 438 740 l 1
 438 728 l 1
 462 728 l 1
 462 716 l 1
 474 716 l 1
 474 704 l 1
 486 704 l 1
 486 680 l 1
 498 680 l 1
 498 535 l 1
 486 535 l 1
 486 534 486 534 486 498 c 1
 474 498 l 1
 474 474 l 1
 462 474 l 1
 462 462 l 1
 450 462 l 1
 450 438 l 1
 438 438 l 1
 438 426 l 1
 414 426 l 1
 414 414 l 1
 402 414 l 1
 402 402 l 1
 378 402 l 1
 378 390 l 1
 306 390 l 1
 306 402 l 1
 330 402 l 1
 330 414 l 1
 342 414 l 1
 342 426 l 1
 354 426 l 1
 354 438 l 1
 366 438 l 1
 366 462 l 1
 378 462 l 1
 378 486 l 1
 390 486 l 1
 390 547 l 1
 378 547 l 1
 378 559 l 1
 342 559 l 1
 342 571 l 1
 330 571 l 1
 330 583 l 1
 318 583 l 1
 318 595 l 1
 306 595 l 1
 306 596 306 596 306 620 c 1
 294 620 l 1
 294 692 l 1
 306 692 l 1
 306 704 l 1
 318 704 l 1
 318 716 l 1
 330 716 l 1
 330 728 l 1
 354 728 l 1
 354 740 l 1
EndSplineSet
EndChar

StartChar: numbersign
Encoding: 35 35 6
Width: 806
GlyphClass: 1
Flags: W
LayerCount: 2
Fore
SplineSet
482 273 m 1
 482 307 l 1
 490 307 l 1
 490 341 l 1
 499 341 l 1
 499 376 l 1
 507 376 l 1
 507 401 l 1
 516 401 l 1
 516 418 l 1
 302 418 l 1
 302 376 l 1
 294 376 l 1
 294 341 l 1
 285 341 l 1
 285 307 l 1
 277 307 l 1
 277 273 l 1
 482 273 l 1
661 700 m 1
 670 700 l 1
 670 691 l 1
 678 691 l 1
 678 683 l 1
 670 683 l 1
 670 657 l 1
 661 657 l 1
 661 623 l 1
 652 623 l 1
 652 589 l 1
 644 589 l 1
 644 555 l 1
 635 555 l 1
 635 521 l 1
 627 521 l 1
 627 495 l 1
 721 495 l 1
 721 418 l 1
 601 418 l 1
 601 393 l 1
 593 393 l 1
 593 359 l 1
 584 359 l 1
 584 324 l 1
 576 324 l 1
 576 290 l 1
 567 290 l 1
 567 273 l 1
 661 273 l 1
 661 196 l 1
 550 196 l 1
 550 188 l 1
 542 188 l 1
 542 154 l 1
 533 154 l 1
 533 111 l 1
 524 111 l 1
 524 85 l 1
 516 85 l 1
 516 51 l 1
 507 51 l 1
 507 9 l 1
 499 9 l 1
 499 0 l 1
 413 0 l 1
 413 34 l 1
 422 34 l 1
 422 77 l 1
 431 77 l 1
 431 111 l 1
 439 111 l 1
 439 145 l 1
 448 145 l 1
 448 179 l 1
 456 179 l 1
 456 196 l 1
 251 196 l 1
 251 162 l 1
 243 162 l 1
 243 128 l 1
 234 128 l 1
 234 94 l 1
 226 94 l 1
 226 60 l 1
 217 60 l 1
 217 26 l 1
 209 26 l 1
 209 0 l 1
 115 0 l 1
 115 17 l 1
 123 17 l 1
 123 51 l 1
 132 51 l 1
 132 85 l 1
 140 85 l 1
 140 120 l 1
 149 120 l 1
 149 154 l 1
 157 154 l 1
 157 188 l 1
 166 188 l 1
 166 196 l 1
 72 196 l 1
 72 273 l 1
 183 273 l 1
 183 299 l 1
 192 299 l 1
 192 333 l 1
 200 333 l 1
 200 367 l 1
 209 367 l 1
 209 401 l 1
 217 401 l 1
 217 418 l 1
 123 418 l 1
 123 487 l 1
 115 487 l 1
 115 495 l 1
 234 495 l 1
 234 504 l 1
 243 504 l 1
 243 538 l 1
 251 538 l 1
 251 572 l 1
 260 572 l 1
 260 606 l 1
 268 606 l 1
 268 640 l 1
 277 640 l 1
 277 674 l 1
 285 674 l 1
 285 691 l 1
 294 691 l 1
 294 700 l 1
 302 700 l 1
 302 691 l 1
 379 691 l 1
 379 683 l 1
 371 683 l 1
 371 649 l 1
 362 649 l 1
 362 615 l 1
 354 615 l 1
 354 580 l 1
 345 580 l 1
 345 546 l 1
 337 546 l 1
 337 512 l 1
 328 512 l 1
 328 495 l 1
 533 495 l 1
 533 504 l 1
 542 504 l 1
 542 538 l 1
 550 538 l 1
 550 572 l 1
 559 572 l 1
 559 606 l 1
 567 606 l 1
 567 640 l 1
 576 640 l 1
 576 674 l 1
 584 674 l 1
 584 700 l 1
 644 700 l 1
 644 691 l 1
 661 691 l 1
 661 700 l 1
EndSplineSet
EndChar

StartChar: dollar
Encoding: 36 36 7
Width: 725
GlyphClass: 1
Flags: W
LayerCount: 2
Fore
SplineSet
89 196 m 1
 97 196 l 1
 97 188 l 1
 115 188 l 1
 115 179 l 1
 132 179 l 1
 132 170 l 1
 158 170 l 1
 158 162 l 1
 184 162 l 1
 184 153 l 1
 218 153 l 1
 218 144 l 1
 279 144 l 1
 279 136 l 1
 306 136 l 1
 308 165 l 1
 300 165 l 1
 300 173 l 1
 291 173 l 1
 291 182 l 1
 300 182 l 1
 300 343 l 1
 296 343 l 1
 296 352 l 1
 253 352 l 1
 253 360 l 1
 227 360 l 1
 227 369 l 1
 201 369 l 1
 201 378 l 1
 184 378 l 1
 184 386 l 1
 166 386 l 1
 166 395 l 1
 149 395 l 1
 149 404 l 1
 140 404 l 1
 140 412 l 1
 132 412 l 1
 132 421 l 1
 123 421 l 1
 123 430 l 1
 115 430 l 1
 115 438 l 1
 106 438 l 1
 106 447 l 1
 97 447 l 1
 97 464 l 1
 89 464 l 1
 89 490 l 1
 80 490 l 1
 80 585 l 1
 89 585 l 1
 89 620 l 1
 97 620 l 1
 97 637 l 1
 106 637 l 1
 106 646 l 1
 115 646 l 1
 115 654 l 1
 123 654 l 1
 123 663 l 1
 132 663 l 1
 132 672 l 1
 140 672 l 1
 140 680 l 1
 149 680 l 1
 149 689 l 1
 166 689 l 1
 166 697 l 1
 184 697 l 1
 184 706 l 1
 210 706 l 1
 210 715 l 1
 236 715 l 1
 236 723 l 1
 279 723 l 1
 279 732 l 1
 297 732 l 1
 296 755 l 1
 419 755 l 1
 419 732 l 1
 478 732 l 1
 478 723 l 1
 529 723 l 1
 529 715 l 1
 564 715 l 1
 564 706 l 1
 590 706 l 1
 590 585 l 1
 581 585 l 1
 581 594 l 1
 555 594 l 1
 555 602 l 1
 521 602 l 1
 521 611 l 1
 486 611 l 1
 486 620 l 1
 426 620 l 1
 426 628 l 1
 421 628 l 1
 424 438 l 1
 452 438 l 1
 452 430 l 1
 478 430 l 1
 478 421 l 1
 503 421 l 1
 503 412 l 1
 529 412 l 1
 529 404 l 1
 547 404 l 1
 547 395 l 1
 564 395 l 1
 564 386 l 1
 573 386 l 1
 573 378 l 1
 590 378 l 1
 590 369 l 1
 599 369 l 1
 599 360 l 1
 607 360 l 1
 607 352 l 1
 616 352 l 1
 616 334 l 1
 624 334 l 1
 624 317 l 1
 633 317 l 1
 633 300 l 1
 642 300 l 1
 642 179 l 1
 633 179 l 1
 633 162 l 1
 624 162 l 1
 624 144 l 1
 616 144 l 1
 616 127 l 1
 607 127 l 1
 607 118 l 1
 599 118 l 1
 599 110 l 1
 590 110 l 1
 590 101 l 1
 581 101 l 1
 581 92 l 1
 573 92 l 1
 573 84 l 1
 555 84 l 1
 555 75 l 1
 547 75 l 1
 547 67 l 1
 529 67 l 1
 529 58 l 1
 503 58 l 1
 503 49 l 1
 469 49 l 1
 469 41 l 1
 430 41 l 1
 431 0 l 1
 72 0 72 0 296 0 c 1
 298 32 l 1
 253 32 l 1
 253 41 l 1
 192 41 l 1
 192 49 l 1
 158 49 l 1
 158 58 l 1
 123 58 l 1
 123 67 l 1
 89 67 l 1
 89 75 l 1
 80 75 l 1
 80 136 l 1
 89 136 l 1
 89 196 l 1
300 620 m 1
 279 620 l 1
 279 611 l 1
 253 611 l 1
 253 602 l 1
 244 602 l 1
 244 594 l 1
 236 594 l 1
 236 576 l 1
 227 576 l 1
 227 507 l 1
 236 507 l 1
 236 499 l 1
 244 499 l 1
 244 490 l 1
 261 490 l 1
 261 481 l 1
 287 481 l 1
 287 473 l 1
 300 473 l 1
 300 620 l 1
434 144 m 1
 434 153 l 1
 452 153 l 1
 452 162 l 1
 469 162 l 1
 469 170 l 1
 478 170 l 1
 478 179 l 1
 486 179 l 1
 486 188 l 1
 495 188 l 1
 495 205 l 1
 503 205 l 1
 503 257 l 1
 495 257 l 1
 495 274 l 1
 486 274 l 1
 486 283 l 1
 478 283 l 1
 478 291 l 1
 460 291 l 1
 460 300 l 1
 452 300 l 1
 452 309 l 1
 426 309 l 1
 429 144 l 1
 434 144 l 1
426 317 m 1
 426 315 l 1
 426 317 l 1
EndSplineSet
EndChar

StartChar: percent
Encoding: 37 37 8
Width: 637
GlyphClass: 1
Flags: W
LayerCount: 2
Fore
SplineSet
219 7 m 1
 219 15 l 1
 119 15 l 1
 119 7 l 1
 111 7 l 1
 111 15 l 1
 102 15 l 1
 102 24 l 1
 111 24 l 1
 322 476 l 1
 318 482 l 1
 323 494 l 1
 322 484 l 1
 432 699 l 1
 555 699 l 1
 227 7 l 1
 219 7 l 1
454 49 m 1
 454 52 l 1
 465 52 l 1
 465 54 l 1
 464 54 464 54 472 54 c 1
 472 57 l 1
 475 57 l 1
 475 59 l 1
 480 59 l 1
 480 62 l 1
 483 62 l 1
 483 65 l 1
 488 65 l 1
 488 67 l 1
 491 67 l 1
 491 72 l 1
 493 72 l 1
 493 75 l 1
 496 75 l 1
 496 80 l 1
 499 80 l 1
 499 86 l 1
 501 86 l 1
 501 91 l 1
 504 91 l 1
 504 92 504 92 504 104 c 1
 506 104 l 1
 506 140 l 1
 504 140 l 1
 504 150 l 1
 501 150 l 1
 501 158 l 1
 499 158 l 1
 499 166 l 1
 496 166 l 1
 496 168 l 1
 493 168 l 1
 493 174 l 1
 491 174 l 1
 491 176 l 1
 488 176 l 1
 488 179 l 1
 485 179 l 1
 485 181 l 1
 483 181 l 1
 483 184 l 1
 480 184 l 1
 480 187 l 1
 478 187 l 1
 478 189 l 1
 472 189 l 1
 472 192 l 1
 465 192 l 1
 465 194 l 1
 464 194 464 194 454 194 c 1
 454 197 l 1
 416 197 l 1
 416 194 l 1
 403 194 l 1
 403 192 l 1
 404 192 404 192 398 192 c 1
 398 189 l 1
 392 189 l 1
 392 187 l 1
 387 187 l 1
 387 184 l 1
 384 184 l 1
 384 181 l 1
 382 181 l 1
 382 179 l 1
 379 179 l 1
 379 176 l 1
 378 176 378 176 376 176 c 1
 376 171 l 1
 374 171 l 1
 374 166 l 1
 371 166 l 1
 371 160 l 1
 369 160 l 1
 369 153 l 1
 366 153 l 1
 366 152 366 152 366 142 c 1
 364 142 l 1
 364 104 l 1
 366 104 l 1
 366 91 l 1
 369 91 l 1
 369 92 369 92 369 86 c 1
 371 86 l 1
 371 78 l 1
 374 78 l 1
 374 75 l 1
 376 75 l 1
 376 70 l 1
 379 70 l 1
 379 67 l 1
 382 67 l 1
 382 65 l 1
 384 65 l 1
 384 62 l 1
 387 62 l 1
 387 59 l 1
 392 59 l 1
 392 57 l 1
 398 57 l 1
 398 54 l 1
 403 54 l 1
 403 52 l 1
 413 52 l 1
 413 49 l 1
 454 49 l 1
408 228 m 1
 465 228 l 1
 465 225 l 1
 475 225 l 1
 475 223 l 1
 483 223 l 1
 483 220 l 1
 491 220 l 1
 491 218 l 1
 496 218 l 1
 496 215 l 1
 501 215 l 1
 501 212 l 1
 504 212 l 1
 504 210 l 1
 509 210 l 1
 509 207 l 1
 510 207 510 207 512 207 c 1
 512 205 l 1
 514 205 l 1
 514 202 l 1
 517 202 l 1
 517 200 l 1
 519 200 l 1
 519 197 l 1
 522 197 l 1
 522 194 l 1
 524 194 l 1
 524 192 l 1
 527 192 l 1
 527 189 l 1
 528 189 528 189 530 189 c 1
 530 184 l 1
 532 184 l 1
 532 181 l 1
 535 181 l 1
 535 176 l 1
 537 176 l 1
 537 168 l 1
 540 168 l 1
 540 163 l 1
 543 163 l 1
 543 153 l 1
 545 153 l 1
 545 140 l 1
 548 140 l 1
 548 106 l 1
 545 106 l 1
 545 91 l 1
 543 91 l 1
 543 83 l 1
 540 83 l 1
 540 75 l 1
 537 75 l 1
 537 70 l 1
 535 70 l 1
 535 65 l 1
 532 65 l 1
 532 62 l 1
 530 62 l 1
 530 57 l 1
 527 57 l 1
 527 54 l 1
 524 54 l 1
 524 52 l 1
 522 52 l 1
 522 49 l 1
 519 49 l 1
 519 48 519 48 519 46 c 1
 517 46 l 1
 517 44 l 1
 514 44 l 1
 514 41 l 1
 512 41 l 1
 512 39 l 1
 509 39 l 1
 509 36 l 1
 504 36 l 1
 504 34 l 1
 499 34 l 1
 499 31 l 1
 493 31 l 1
 493 30 493 30 493 28 c 1
 488 28 l 1
 488 26 l 1
 480 26 l 1
 480 23 l 1
 470 23 l 1
 470 21 l 1
 452 21 l 1
 452 18 l 1
 410 18 l 1
 410 21 l 1
 398 21 l 1
 398 23 l 1
 387 23 l 1
 387 26 l 1
 379 26 l 1
 379 28 l 1
 374 28 l 1
 374 31 l 1
 369 31 l 1
 369 34 l 1
 364 34 l 1
 364 36 l 1
 361 36 l 1
 361 39 l 1
 356 39 l 1
 356 41 l 1
 353 41 l 1
 353 44 l 1
 351 44 l 1
 351 46 l 1
 348 46 l 1
 348 49 l 1
 346 49 l 1
 346 52 l 1
 343 52 l 1
 343 54 l 1
 340 54 l 1
 340 59 l 1
 338 59 l 1
 338 65 l 1
 335 65 l 1
 335 67 l 1
 333 67 l 1
 333 72 l 1
 330 72 l 1
 330 80 l 1
 327 80 l 1
 327 88 l 1
 325 88 l 1
 325 101 l 1
 322 101 l 1
 322 148 l 1
 325 148 l 1
 325 158 l 1
 327 158 l 1
 327 166 l 1
 330 166 l 1
 330 174 l 1
 333 174 l 1
 333 179 l 1
 335 179 l 1
 335 184 l 1
 338 184 l 1
 338 187 l 1
 340 187 l 1
 340 192 l 1
 343 192 l 1
 343 194 l 1
 346 194 l 1
 346 197 l 1
 348 197 l 1
 348 198 348 198 348 200 c 1
 351 200 l 1
 351 202 l 1
 353 202 l 1
 353 205 l 1
 356 205 l 1
 356 207 l 1
 358 207 l 1
 358 210 l 1
 364 210 l 1
 364 212 l 1
 369 212 l 1
 369 215 l 1
 371 215 l 1
 371 216 371 216 371 218 c 1
 379 218 l 1
 379 220 l 1
 387 220 l 1
 387 223 l 1
 395 223 l 1
 395 225 l 1
 408 225 l 1
 408 228 l 1
247 532 m 1
 247 535 l 1
 257 535 l 1
 257 537 l 1
 265 537 l 1
 265 540 l 1
 267 540 l 1
 267 542 l 1
 272 542 l 1
 272 545 l 1
 275 545 l 1
 275 548 l 1
 280 548 l 1
 280 550 l 1
 283 550 l 1
 283 555 l 1
 285 555 l 1
 285 558 l 1
 288 558 l 1
 288 563 l 1
 291 563 l 1
 291 562 291 562 291 568 c 1
 293 568 l 1
 293 574 l 1
 296 574 l 1
 296 586 l 1
 298 586 l 1
 298 623 l 1
 296 623 l 1
 296 633 l 1
 293 633 l 1
 293 641 l 1
 291 641 l 1
 291 649 l 1
 288 649 l 1
 288 651 l 1
 285 651 l 1
 285 657 l 1
 283 657 l 1
 283 659 l 1
 280 659 l 1
 280 662 l 1
 277 662 l 1
 277 664 l 1
 275 664 l 1
 275 667 l 1
 272 667 l 1
 272 670 l 1
 270 670 l 1
 270 672 l 1
 265 672 l 1
 265 675 l 1
 257 675 l 1
 257 677 l 1
 247 677 l 1
 247 680 l 1
 208 680 l 1
 208 677 l 1
 195 677 l 1
 195 675 l 1
 190 675 l 1
 190 672 l 1
 184 672 l 1
 184 670 l 1
 179 670 l 1
 179 667 l 1
 176 667 l 1
 176 664 l 1
 174 664 l 1
 174 662 l 1
 171 662 l 1
 171 659 l 1
 169 659 l 1
 169 654 l 1
 166 654 l 1
 166 649 l 1
 163 649 l 1
 163 650 163 650 163 644 c 1
 161 644 l 1
 161 636 l 1
 158 636 l 1
 158 626 l 1
 156 626 l 1
 156 586 l 1
 158 586 l 1
 158 574 l 1
 161 574 l 1
 161 568 l 1
 163 568 l 1
 163 561 l 1
 166 561 l 1
 166 558 l 1
 169 558 l 1
 169 553 l 1
 171 553 l 1
 171 550 l 1
 174 550 l 1
 174 548 l 1
 176 548 l 1
 176 545 l 1
 179 545 l 1
 179 544 l 1
 182 544 l 1
 184 540 l 1
 190 540 l 1
 190 537 l 1
 195 537 l 1
 195 535 l 1
 205 535 l 1
 205 532 l 1
 247 532 l 1
200 711 m 1
 257 711 l 1
 257 708 l 1
 266 706 l 1
 277 713 l 1
 275 706 l 1
 275 703 l 1
 283 703 l 1
 283 702 283 702 283 700 c 1
 288 700 l 1
 288 698 l 1
 293 698 l 1
 293 695 l 1
 296 695 l 1
 296 693 l 1
 301 693 l 1
 301 690 l 1
 304 690 l 1
 304 688 l 1
 306 688 l 1
 306 685 l 1
 309 685 l 1
 309 684 309 684 309 682 c 1
 311 682 l 1
 311 680 l 1
 314 680 l 1
 314 677 l 1
 316 677 l 1
 316 675 l 1
 319 675 l 1
 319 672 l 1
 322 672 l 1
 322 667 l 1
 324 667 l 1
 324 664 l 1
 327 664 l 1
 327 659 l 1
 329 659 l 1
 329 651 l 1
 332 651 l 1
 332 646 l 1
 335 646 l 1
 335 636 l 1
 337 636 l 1
 337 623 l 1
 340 624 l 1
 340 591 l 1
 337 589 l 1
 337 574 l 1
 335 574 l 1
 335 566 l 1
 332 566 l 1
 332 558 l 1
 329 558 l 1
 329 553 l 1
 327 553 l 1
 327 548 l 1
 324 548 l 1
 324 545 l 1
 322 545 l 1
 322 540 l 1
 319 540 l 1
 319 537 l 1
 316 537 l 1
 316 535 l 1
 314 535 l 1
 314 532 l 1
 311 532 l 1
 311 530 l 1
 309 530 l 1
 309 527 l 1
 306 527 l 1
 306 524 l 1
 304 524 l 1
 304 522 l 1
 301 522 l 1
 301 519 l 1
 296 519 l 1
 296 517 l 1
 291 517 l 1
 291 514 l 1
 285 514 l 1
 285 512 l 1
 280 512 l 1
 280 509 l 1
 272 509 l 1
 272 506 l 1
 262 506 l 1
 262 504 l 1
 244 504 l 1
 244 501 l 1
 202 501 l 1
 202 504 l 1
 190 504 l 1
 190 506 l 1
 179 506 l 1
 179 509 l 1
 171 509 l 1
 171 510 171 510 171 512 c 1
 166 512 l 1
 166 514 l 1
 161 514 l 1
 161 517 l 1
 156 517 l 1
 156 519 l 1
 153 519 l 1
 153 522 l 1
 148 522 l 1
 148 524 l 1
 145 524 l 1
 145 527 l 1
 143 527 l 1
 143 528 143 528 143 530 c 1
 140 530 l 1
 140 532 l 1
 138 532 l 1
 138 535 l 1
 135 535 l 1
 135 537 l 1
 132 537 l 1
 130 546 l 1
 128 546 l 1
 130 548 l 1
 127 548 l 1
 127 550 l 1
 125 550 l 1
 125 555 l 1
 122 555 l 1
 122 563 l 1
 119 563 l 1
 119 571 l 1
 117 571 l 1
 117 584 l 1
 114 584 l 1
 114 631 l 1
 117 631 l 1
 117 641 l 1
 119 641 l 1
 119 649 l 1
 122 649 l 1
 122 657 l 1
 125 657 l 1
 125 662 l 1
 127 662 l 1
 127 667 l 1
 130 667 l 1
 130 670 l 1
 132 670 l 1
 132 675 l 1
 135 675 l 1
 135 677 l 1
 138 677 l 1
 138 680 l 1
 140 680 l 1
 140 682 l 1
 143 682 l 1
 143 685 l 1
 145 685 l 1
 145 688 l 1
 148 688 l 1
 148 690 l 1
 151 690 l 1
 151 693 l 1
 156 693 l 1
 156 695 l 1
 161 695 l 1
 161 698 l 1
 163 698 l 1
 163 700 l 1
 171 700 l 1
 171 703 l 1
 179 703 l 1
 179 706 l 1
 187 706 l 1
 187 708 l 1
 200 708 l 1
 200 711 l 1
EndSplineSet
EndChar

StartChar: ampersand
Encoding: 38 38 9
Width: 824
GlyphClass: 1
Flags: W
LayerCount: 2
Fore
SplineSet
397 83 m 1
 397 92 l 1
 422 92 l 1
 422 100 l 1
 447 100 l 1
 447 108 l 1
 464 108 l 1
 464 117 l 1
 480 117 l 1
 480 125 l 1
 489 125 l 1
 489 142 l 1
 480 142 l 1
 480 158 l 1
 472 158 l 1
 472 167 l 1
 464 167 l 1
 464 175 l 1
 455 175 l 1
 455 183 l 1
 447 183 l 1
 447 200 l 1
 439 200 l 1
 439 208 l 1
 430 208 l 1
 430 217 l 1
 422 217 l 1
 422 225 l 1
 414 225 l 1
 414 233 l 1
 405 233 l 1
 405 250 l 1
 397 250 l 1
 397 258 l 1
 389 258 l 1
 389 267 l 1
 380 267 l 1
 380 275 l 1
 372 275 l 1
 372 283 l 1
 364 283 l 1
 364 292 l 1
 355 292 l 1
 355 300 l 1
 347 300 l 1
 347 308 l 1
 339 308 l 1
 339 317 l 1
 330 317 l 1
 330 325 l 1
 322 325 l 1
 322 333 l 1
 314 333 l 1
 314 342 l 1
 289 342 l 1
 289 333 l 1
 272 333 l 1
 272 325 l 1
 255 325 l 1
 255 317 l 1
 247 317 l 1
 247 308 l 1
 230 308 l 1
 230 300 l 1
 222 300 l 1
 222 292 l 1
 214 292 l 1
 214 283 l 1
 205 283 l 1
 205 267 l 1
 197 267 l 1
 197 242 l 1
 189 242 l 1
 189 167 l 1
 197 167 l 1
 197 150 l 1
 205 150 l 1
 205 133 l 1
 214 133 l 1
 214 125 l 1
 222 125 l 1
 222 117 l 1
 230 117 l 1
 230 108 l 1
 239 108 l 1
 239 100 l 1
 255 100 l 1
 255 92 l 1
 289 92 l 1
 289 83 l 1
 397 83 l 1
589 358 m 1
 697 358 l 1
 697 333 l 1
 689 333 l 1
 689 292 l 1
 680 292 l 1
 680 267 l 1
 672 267 l 1
 672 242 l 1
 664 242 l 1
 664 217 l 1
 655 217 l 1
 655 200 l 1
 647 200 l 1
 647 183 l 1
 639 183 l 1
 639 167 l 1
 630 167 l 1
 630 150 l 1
 622 150 l 1
 622 133 l 1
 630 133 l 1
 630 125 l 1
 639 125 l 1
 639 117 l 1
 647 117 l 1
 647 108 l 1
 655 108 l 1
 655 100 l 1
 664 100 l 1
 664 92 l 1
 672 92 l 1
 672 83 l 1
 680 83 l 1
 680 67 l 1
 689 67 l 1
 689 58 l 1
 697 58 l 1
 697 50 l 1
 705 50 l 1
 705 42 l 1
 714 42 l 1
 714 33 l 1
 730 33 l 1
 730 25 l 1
 739 25 l 1
 739 17 l 1
 689 17 l 1
 689 8 l 1
 589 8 l 1
 589 17 l 1
 580 17 l 1
 580 25 l 1
 572 25 l 1
 572 33 l 1
 564 33 l 1
 564 50 l 1
 555 50 l 1
 555 58 l 1
 530 58 l 1
 530 50 l 1
 522 50 l 1
 522 42 l 1
 505 42 l 1
 505 33 l 1
 489 33 l 1
 489 25 l 1
 464 25 l 1
 464 17 l 1
 439 17 l 1
 439 8 l 1
 405 8 l 1
 405 0 l 1
 247 0 l 1
 247 8 l 1
 214 8 l 1
 214 17 l 1
 189 17 l 1
 189 25 l 1
 172 25 l 1
 172 33 l 1
 155 33 l 1
 155 42 l 1
 147 42 l 1
 147 50 l 1
 139 50 l 1
 139 58 l 1
 130 58 l 1
 130 67 l 1
 122 67 l 1
 122 75 l 1
 114 75 l 1
 114 83 l 1
 105 83 l 1
 105 92 l 1
 97 92 l 1
 97 108 l 1
 89 108 l 1
 89 125 l 1
 80 125 l 1
 80 158 l 1
 72 158 l 1
 72 242 l 1
 80 242 l 1
 80 267 l 1
 89 267 l 1
 89 283 l 1
 97 283 l 1
 97 300 l 1
 105 300 l 1
 105 317 l 1
 114 317 l 1
 114 325 l 1
 122 325 l 1
 122 333 l 1
 130 333 l 1
 130 342 l 1
 139 342 l 1
 139 350 l 1
 147 350 l 1
 147 358 l 1
 155 358 l 1
 155 367 l 1
 172 367 l 1
 172 375 l 1
 180 375 l 1
 180 383 l 1
 197 383 l 1
 197 392 l 1
 222 392 l 1
 222 400 l 1
 247 400 l 1
 247 417 l 1
 239 417 l 1
 239 425 l 1
 230 425 l 1
 230 433 l 1
 222 433 l 1
 222 450 l 1
 214 450 l 1
 214 458 l 1
 205 458 l 1
 205 475 l 1
 197 475 l 1
 197 500 l 1
 189 500 l 1
 189 583 l 1
 197 583 l 1
 197 608 l 1
 205 608 l 1
 205 625 l 1
 214 625 l 1
 214 633 l 1
 222 633 l 1
 222 642 l 1
 230 642 l 1
 230 650 l 1
 239 650 l 1
 239 658 l 1
 247 658 l 1
 247 667 l 1
 264 667 l 1
 264 675 l 1
 289 675 l 1
 289 683 l 1
 314 683 l 1
 314 692 l 1
 372 692 l 1
 372 700 l 1
 414 700 l 1
 414 692 l 1
 497 692 l 1
 497 683 l 1
 530 683 l 1
 530 675 l 1
 555 675 l 1
 555 583 l 1
 530 583 l 1
 530 592 l 1
 505 592 l 1
 505 600 l 1
 464 600 l 1
 464 608 l 1
 364 608 l 1
 364 600 l 1
 339 600 l 1
 339 592 l 1
 330 592 l 1
 330 583 l 1
 322 583 l 1
 322 575 l 1
 314 575 l 1
 314 567 l 1
 305 567 l 1
 305 508 l 1
 314 508 l 1
 314 492 l 1
 322 492 l 1
 322 475 l 1
 330 475 l 1
 330 458 l 1
 339 458 l 1
 339 450 l 1
 347 450 l 1
 347 442 l 1
 355 442 l 1
 355 433 l 1
 364 433 l 1
 364 417 l 1
 372 417 l 1
 372 408 l 1
 380 408 l 1
 380 400 l 1
 389 400 l 1
 389 392 l 1
 397 392 l 1
 397 383 l 1
 405 383 l 1
 405 375 l 1
 414 375 l 1
 414 367 l 1
 422 367 l 1
 422 358 l 1
 430 358 l 1
 430 350 l 1
 439 350 l 1
 439 342 l 1
 447 342 l 1
 447 333 l 1
 455 333 l 1
 455 325 l 1
 464 325 l 1
 464 317 l 1
 472 317 l 1
 472 308 l 1
 480 308 l 1
 480 300 l 1
 489 300 l 1
 489 292 l 1
 497 292 l 1
 497 283 l 1
 505 283 l 1
 505 275 l 1
 514 275 l 1
 514 267 l 1
 522 267 l 1
 522 250 l 1
 530 250 l 1
 530 242 l 1
 539 242 l 1
 539 233 l 1
 547 233 l 1
 547 225 l 1
 555 225 l 1
 555 217 l 1
 564 217 l 1
 564 242 l 1
 572 242 l 1
 572 258 l 1
 580 258 l 1
 580 300 l 1
 589 300 l 1
 589 358 l 1
EndSplineSet
EndChar

StartChar: quotesingle
Encoding: 39 39 10
Width: 568
GlyphClass: 1
Flags: W
LayerCount: 2
Fore
SplineSet
235 740 m 1
 236 740 236 740 320 740 c 1
 320 728 l 1
 344 728 l 1
 344 716 l 1
 356 716 l 1
 356 704 l 1
 368 704 l 1
 368 680 l 1
 380 680 l 1
 380 535 l 1
 368 535 l 1
 368 534 368 534 368 498 c 1
 356 498 l 1
 356 474 l 1
 344 474 l 1
 344 462 l 1
 332 462 l 1
 332 438 l 1
 320 438 l 1
 320 426 l 1
 295 426 l 1
 295 414 l 1
 283 414 l 1
 283 402 l 1
 259 402 l 1
 259 390 l 1
 258 390 258 390 186 390 c 1
 186 402 l 1
 210 402 l 1
 210 414 l 1
 223 414 l 1
 223 426 l 1
 235 426 l 1
 235 438 l 1
 247 438 l 1
 247 462 l 1
 259 462 l 1
 259 486 l 1
 271 486 l 1
 271 547 l 1
 259 547 l 1
 259 559 l 1
 223 559 l 1
 223 571 l 1
 222 571 222 571 210 571 c 1
 210 583 l 1
 198 583 l 1
 198 595 l 1
 186 595 l 1
 186 596 186 596 186 620 c 1
 174 620 l 1
 174 692 l 1
 186 692 l 1
 186 704 l 1
 198 704 l 1
 198 716 l 1
 210 716 l 1
 210 728 l 1
 235 728 l 1
 235 740 l 1
EndSplineSet
EndChar

StartChar: parenleft
Encoding: 40 40 11
Width: 520
GlyphClass: 1
Flags: W
LayerCount: 2
Fore
SplineSet
205 685 m 1
 205 700 l 1
 219 700 l 1
 219 693 l 1
 293 693 l 1
 293 678 l 1
 286 678 l 1
 286 671 l 1
 278 671 l 1
 278 663 l 1
 271 663 l 1
 271 648 l 1
 264 648 l 1
 264 641 l 1
 256 641 l 1
 256 626 l 1
 249 626 l 1
 249 619 l 1
 241 619 l 1
 241 604 l 1
 234 604 l 1
 234 589 l 1
 227 589 l 1
 227 575 l 1
 219 575 l 1
 219 560 l 1
 212 560 l 1
 212 538 l 1
 205 538 l 1
 205 523 l 1
 197 523 l 1
 197 494 l 1
 190 494 l 1
 190 472 l 1
 183 472 l 1
 183 420 l 1
 175 420 l 1
 175 273 l 1
 183 273 l 1
 183 228 l 1
 190 228 l 1
 190 199 l 1
 197 199 l 1
 197 177 l 1
 205 177 l 1
 205 155 l 1
 212 155 l 1
 212 140 l 1
 219 140 l 1
 219 125 l 1
 227 125 l 1
 227 111 l 1
 234 111 l 1
 234 103 l 1
 241 103 l 1
 241 88 l 1
 249 88 l 1
 249 74 l 1
 256 74 l 1
 256 66 l 1
 264 66 l 1
 264 52 l 1
 271 52 l 1
 271 44 l 1
 278 44 l 1
 278 29 l 1
 286 29 l 1
 286 22 l 1
 293 22 l 1
 293 7 l 1
 205 7 l 1
 205 0 l 1
 197 0 l 1
 197 7 l 1
 190 7 l 1
 190 22 l 1
 183 22 l 1
 183 29 l 1
 175 29 l 1
 175 44 l 1
 168 44 l 1
 168 52 l 1
 160 52 l 1
 160 66 l 1
 153 66 l 1
 153 74 l 1
 146 74 l 1
 146 88 l 1
 138 88 l 1
 138 103 l 1
 131 103 l 1
 131 111 l 1
 124 111 l 1
 124 125 l 1
 116 125 l 1
 116 147 l 1
 109 147 l 1
 109 162 l 1
 101 162 l 1
 101 177 l 1
 94 177 l 1
 94 206 l 1
 87 206 l 1
 87 236 l 1
 79 236 l 1
 79 273 l 1
 72 273 l 1
 72 427 l 1
 79 427 l 1
 79 472 l 1
 87 472 l 1
 87 501 l 1
 94 501 l 1
 94 523 l 1
 101 523 l 1
 101 538 l 1
 109 538 l 1
 109 553 l 1
 116 553 l 1
 116 567 l 1
 124 567 l 1
 124 582 l 1
 131 582 l 1
 131 597 l 1
 138 597 l 1
 138 604 l 1
 146 604 l 1
 146 619 l 1
 153 619 l 1
 153 626 l 1
 160 626 l 1
 160 641 l 1
 168 641 l 1
 168 648 l 1
 175 648 l 1
 175 663 l 1
 183 663 l 1
 183 671 l 1
 190 671 l 1
 190 678 l 1
 197 678 l 1
 197 685 l 1
 205 685 l 1
EndSplineSet
EndChar

StartChar: parenright
Encoding: 41 41 12
Width: 520
GlyphClass: 1
Flags: W
LayerCount: 2
Fore
SplineSet
72 685 m 1
 72 700 l 1
 87 700 l 1
 87 693 l 1
 94 693 l 1
 94 700 l 1
 168 700 l 1
 168 693 l 1
 175 693 l 1
 175 685 l 1
 183 685 l 1
 183 678 l 1
 190 678 l 1
 190 663 l 1
 197 663 l 1
 197 656 l 1
 205 656 l 1
 205 648 l 1
 212 648 l 1
 212 634 l 1
 219 634 l 1
 219 626 l 1
 227 626 l 1
 227 612 l 1
 234 612 l 1
 234 604 l 1
 241 604 l 1
 241 589 l 1
 249 589 l 1
 249 575 l 1
 256 575 l 1
 256 567 l 1
 264 567 l 1
 264 545 l 1
 271 545 l 1
 271 531 l 1
 278 531 l 1
 278 508 l 1
 286 508 l 1
 286 486 l 1
 293 486 l 1
 293 449 l 1
 300 449 l 1
 300 258 l 1
 293 258 l 1
 293 214 l 1
 286 214 l 1
 286 184 l 1
 278 184 l 1
 278 162 l 1
 271 162 l 1
 271 147 l 1
 264 147 l 1
 264 125 l 1
 256 125 l 1
 256 111 l 1
 249 111 l 1
 249 96 l 1
 241 96 l 1
 241 81 l 1
 234 81 l 1
 234 74 l 1
 227 74 l 1
 227 59 l 1
 219 59 l 1
 219 52 l 1
 212 52 l 1
 212 37 l 1
 205 37 l 1
 205 29 l 1
 197 29 l 1
 197 22 l 1
 190 22 l 1
 190 15 l 1
 183 15 l 1
 183 7 l 1
 175 7 l 1
 175 0 l 1
 124 0 l 1
 124 7 l 1
 79 7 l 1
 79 15 l 1
 87 15 l 1
 87 22 l 1
 94 22 l 1
 94 29 l 1
 101 29 l 1
 101 37 l 1
 109 37 l 1
 109 52 l 1
 116 52 l 1
 116 66 l 1
 124 66 l 1
 124 74 l 1
 131 74 l 1
 131 88 l 1
 138 88 l 1
 138 96 l 1
 146 96 l 1
 146 111 l 1
 153 111 l 1
 153 125 l 1
 160 125 l 1
 160 140 l 1
 168 140 l 1
 168 155 l 1
 175 155 l 1
 175 177 l 1
 183 177 l 1
 183 199 l 1
 190 199 l 1
 190 236 l 1
 197 236 l 1
 197 442 l 1
 190 442 l 1
 190 479 l 1
 183 479 l 1
 183 508 l 1
 175 508 l 1
 175 531 l 1
 168 531 l 1
 168 545 l 1
 160 545 l 1
 160 567 l 1
 153 567 l 1
 153 582 l 1
 146 582 l 1
 146 597 l 1
 138 597 l 1
 138 604 l 1
 131 604 l 1
 131 619 l 1
 124 619 l 1
 124 634 l 1
 116 634 l 1
 116 641 l 1
 109 641 l 1
 109 648 l 1
 101 648 l 1
 101 663 l 1
 94 663 l 1
 94 671 l 1
 87 671 l 1
 87 678 l 1
 79 678 l 1
 79 685 l 1
 72 685 l 1
EndSplineSet
EndChar

StartChar: asterisk
Encoding: 42 42 13
Width: 921
GlyphClass: 1
Flags: W
LayerCount: 2
Fore
SplineSet
416 525 m 1
 492 525 l 1
 492 446 l 1
 550 503 l 1
 604 449 l 1
 604 450 604 450 546 392 c 1
 645 392 l 1
 645 315 l 1
 644 315 644 315 606 315 c 1
 606 316 606 316 606 322 c 1
 543 322 l 1
 617 247 l 1
 563 192 l 1
 536 220 l 1
 541 224 l 1
 492 273 l 1
 492 175 l 1
 416 175 l 1
 416 261 l 1
 356 202 l 1
 302 256 l 1
 361 315 l 1
 295 315 l 1
 295 316 295 316 295 322 c 1
 282 322 l 1
 282 315 l 1
 263 315 l 1
 263 316 263 316 263 392 c 1
 364 392 l 1
 316 440 l 1
 320 445 l 1
 311 454 l 1
 307 449 l 1
 293 463 l 1
 347 517 l 1
 348 517 348 517 416 449 c 1
 416 525 l 1
EndSplineSet
EndChar

StartChar: plus
Encoding: 43 43 14
Width: 921
GlyphClass: 1
Flags: W
LayerCount: 2
Fore
SplineSet
416 525 m 1
 492 525 l 1
 492 526 492 526 492 392 c 1
 645 392 l 1
 645 315 l 1
 644 315 644 315 606 315 c 1
 606 316 606 316 606 322 c 1
 511 322 l 1
 511 315 l 1
 505 315 l 1
 505 316 505 316 505 322 c 1
 504 322 504 322 498 322 c 1
 498 315 l 1
 492 315 l 1
 492 175 l 1
 416 175 l 1
 416 315 l 1
 295 315 l 1
 295 316 295 316 295 322 c 1
 282 322 l 1
 282 315 l 1
 263 315 l 1
 263 316 263 316 263 392 c 1
 264 392 264 392 416 392 c 1
 416 525 l 1
EndSplineSet
EndChar

StartChar: comma
Encoding: 44 44 15
Width: 568
GlyphClass: 1
Flags: W
LayerCount: 2
Fore
SplineSet
235 357 m 1
 236 357 236 357 320 357 c 1
 320 345 l 1
 344 345 l 1
 344 333 l 1
 356 333 l 1
 356 321 l 1
 368 321 l 1
 368 320 368 320 368 296 c 1
 380 296 l 1
 380 152 l 1
 368 152 l 1
 368 116 l 1
 356 116 l 1
 356 92 l 1
 344 92 l 1
 344 80 l 1
 332 80 l 1
 332 56 l 1
 320 56 l 1
 320 43 l 1
 295 43 l 1
 295 31 l 1
 283 31 l 1
 283 19 l 1
 259 19 l 1
 259 7 l 1
 258 7 258 7 186 7 c 1
 186 19 l 1
 210 19 l 1
 210 31 l 1
 223 31 l 1
 223 43 l 1
 235 43 l 1
 235 44 235 44 235 56 c 1
 247 56 l 1
 247 80 l 1
 259 80 l 1
 259 104 l 1
 271 104 l 1
 271 164 l 1
 259 164 l 1
 259 176 l 1
 223 176 l 1
 223 188 l 1
 222 188 222 188 210 188 c 1
 210 200 l 1
 198 200 l 1
 198 212 l 1
 186 212 l 1
 186 236 l 1
 174 236 l 1
 174 308 l 1
 186 308 l 1
 186 321 l 1
 198 321 l 1
 198 333 l 1
 210 333 l 1
 210 345 l 1
 235 345 l 1
 235 357 l 1
EndSplineSet
EndChar

StartChar: hyphen
Encoding: 45 45 16
Width: 1171
GlyphClass: 1
Flags: W
LayerCount: 2
Fore
SplineSet
862 438 m 1
 958 438 l 1
 958 273 l 1
 199 273 l 1
 199 438 l 1
 779 438 l 1
 779 438 l 1
 862 438 l 1
 862 438 l 1
EndSplineSet
EndChar

StartChar: period
Encoding: 46 46 17
Width: 901
GlyphClass: 1
Flags: W
LayerCount: 2
Fore
SplineSet
413 207 m 1
 475 207 l 1
 475 198 l 1
 492 198 l 1
 492 189 l 1
 501 189 l 1
 501 181 l 1
 510 181 l 1
 510 172 l 1
 518 172 l 1
 518 111 l 1
 510 111 l 1
 510 93 l 1
 501 93 l 1
 501 85 l 1
 492 85 l 1
 492 76 l 1
 483 76 l 1
 483 67 l 1
 405 67 l 1
 405 76 l 1
 396 76 l 1
 396 85 l 1
 387 85 l 1
 387 93 l 1
 378 93 l 1
 378 102 l 1
 370 102 l 1
 370 163 l 1
 378 163 l 1
 378 181 l 1
 387 181 l 1
 387 189 l 1
 396 189 l 1
 396 198 l 1
 413 198 l 1
 413 207 l 1
EndSplineSet
EndChar

StartChar: slash
Encoding: 47 47 18
Width: 520
GlyphClass: 1
Flags: W
LayerCount: 2
Fore
SplineSet
156 40 m 1
 156 48 l 1
 56 48 l 1
 56 40 l 1
 48 40 l 1
 48 48 l 1
 39 48 l 1
 39 57 l 1
 48 57 l 1
 257 509 l 1
 248 509 l 1
 248 517 l 1
 257 517 l 1
 369 732 l 1
 492 732 l 1
 164 40 l 1
 156 40 l 1
EndSplineSet
EndChar

StartChar: zero
Encoding: 48 48 19
Width: 770
GlyphClass: 1
Flags: W
LayerCount: 2
Fore
SplineSet
430 94 m 1
 430 102 l 1
 456 102 l 1
 456 111 l 1
 473 111 l 1
 473 120 l 1
 481 120 l 1
 481 128 l 1
 498 128 l 1
 498 137 l 1
 507 137 l 1
 507 154 l 1
 515 154 l 1
 515 162 l 1
 524 162 l 1
 524 179 l 1
 532 179 l 1
 532 196 l 1
 541 196 l 1
 541 222 l 1
 550 222 l 1
 550 265 l 1
 558 265 l 1
 558 427 l 1
 550 427 l 1
 550 470 l 1
 541 470 l 1
 541 504 l 1
 532 504 l 1
 532 521 l 1
 524 521 l 1
 524 529 l 1
 515 529 l 1
 515 546 l 1
 507 546 l 1
 507 555 l 1
 498 555 l 1
 498 563 l 1
 490 563 l 1
 490 572 l 1
 473 572 l 1
 473 580 l 1
 464 580 l 1
 464 589 l 1
 439 589 l 1
 439 598 l 1
 336 598 l 1
 336 589 l 1
 310 589 l 1
 310 580 l 1
 293 580 l 1
 293 572 l 1
 285 572 l 1
 285 563 l 1
 268 563 l 1
 268 546 l 1
 259 546 l 1
 259 538 l 1
 251 538 l 1
 251 529 l 1
 242 529 l 1
 242 512 l 1
 234 512 l 1
 234 487 l 1
 225 487 l 1
 225 452 l 1
 217 452 l 1
 217 384 l 1
 208 384 l 1
 208 299 l 1
 217 299 l 1
 217 239 l 1
 225 239 l 1
 225 213 l 1
 234 213 l 1
 234 188 l 1
 242 188 l 1
 242 171 l 1
 251 171 l 1
 251 154 l 1
 259 154 l 1
 259 145 l 1
 268 145 l 1
 268 137 l 1
 276 137 l 1
 276 128 l 1
 285 128 l 1
 285 120 l 1
 293 120 l 1
 293 111 l 1
 310 111 l 1
 310 102 l 1
 345 102 l 1
 345 94 l 1
 430 94 l 1
345 700 m 1
 439 700 l 1
 439 691 l 1
 481 691 l 1
 481 683 l 1
 515 683 l 1
 515 674 l 1
 532 674 l 1
 532 666 l 1
 550 666 l 1
 550 657 l 1
 558 657 l 1
 558 649 l 1
 575 649 l 1
 575 640 l 1
 584 640 l 1
 584 632 l 1
 592 632 l 1
 592 623 l 1
 601 623 l 1
 601 615 l 1
 609 615 l 1
 609 606 l 1
 618 606 l 1
 618 589 l 1
 626 589 l 1
 626 580 l 1
 635 580 l 1
 635 563 l 1
 643 563 l 1
 643 546 l 1
 652 546 l 1
 652 529 l 1
 660 529 l 1
 660 504 l 1
 669 504 l 1
 669 470 l 1
 678 470 l 1
 678 427 l 1
 686 427 l 1
 686 273 l 1
 678 273 l 1
 678 222 l 1
 669 222 l 1
 669 188 l 1
 660 188 l 1
 660 162 l 1
 652 162 l 1
 652 145 l 1
 643 145 l 1
 643 128 l 1
 635 128 l 1
 635 111 l 1
 626 111 l 1
 626 102 l 1
 618 102 l 1
 618 85 l 1
 609 85 l 1
 609 77 l 1
 601 77 l 1
 601 68 l 1
 592 68 l 1
 592 60 l 1
 584 60 l 1
 584 51 l 1
 567 51 l 1
 567 43 l 1
 558 43 l 1
 558 34 l 1
 541 34 l 1
 541 26 l 1
 524 26 l 1
 524 17 l 1
 498 17 l 1
 498 9 l 1
 464 9 l 1
 464 0 l 1
 293 0 l 1
 293 9 l 1
 268 9 l 1
 268 17 l 1
 242 17 l 1
 242 26 l 1
 225 26 l 1
 225 34 l 1
 217 34 l 1
 217 43 l 1
 200 43 l 1
 200 51 l 1
 191 51 l 1
 191 60 l 1
 182 60 l 1
 182 68 l 1
 174 68 l 1
 174 77 l 1
 165 77 l 1
 165 85 l 1
 157 85 l 1
 157 102 l 1
 148 102 l 1
 148 111 l 1
 140 111 l 1
 140 128 l 1
 131 128 l 1
 131 145 l 1
 123 145 l 1
 123 162 l 1
 114 162 l 1
 114 179 l 1
 106 179 l 1
 106 213 l 1
 97 213 l 1
 97 248 l 1
 89 248 l 1
 89 324 l 1
 80 324 l 1
 80 367 l 1
 89 367 l 1
 89 452 l 1
 97 452 l 1
 97 487 l 1
 106 487 l 1
 106 512 l 1
 114 512 l 1
 114 538 l 1
 123 538 l 1
 123 555 l 1
 131 555 l 1
 131 572 l 1
 140 572 l 1
 140 580 l 1
 148 580 l 1
 148 598 l 1
 157 598 l 1
 157 606 l 1
 165 606 l 1
 165 615 l 1
 174 615 l 1
 174 623 l 1
 182 623 l 1
 182 632 l 1
 191 632 l 1
 191 640 l 1
 200 640 l 1
 200 649 l 1
 217 649 l 1
 217 657 l 1
 225 657 l 1
 225 666 l 1
 242 666 l 1
 242 674 l 1
 268 674 l 1
 268 683 l 1
 293 683 l 1
 293 691 l 1
 345 691 l 1
 345 700 l 1
EndSplineSet
EndChar

StartChar: one
Encoding: 49 49 20
Width: 520
GlyphClass: 1
Flags: W
LayerCount: 2
Fore
SplineSet
214 700 m 1
 311 700 l 1
 311 0 l 1
 187 0 l 1
 187 567 l 1
 169 567 l 1
 169 558 l 1
 152 558 l 1
 152 549 l 1
 134 549 l 1
 134 541 l 1
 116 541 l 1
 116 532 l 1
 99 532 l 1
 99 523 l 1
 81 523 l 1
 81 514 l 1
 72 514 l 1
 72 647 l 1
 90 647 l 1
 90 656 l 1
 116 656 l 1
 116 665 l 1
 143 665 l 1
 143 673 l 1
 161 673 l 1
 161 682 l 1
 178 682 l 1
 178 691 l 1
 214 691 l 1
 214 700 l 1
EndSplineSet
EndChar

StartChar: two
Encoding: 50 50 21
Width: 633
GlyphClass: 1
Flags: W
LayerCount: 2
Fore
SplineSet
219 700 m 1
 331 700 l 1
 331 691 l 1
 374 691 l 1
 374 683 l 1
 409 683 l 1
 409 674 l 1
 426 674 l 1
 426 665 l 1
 444 665 l 1
 444 657 l 1
 461 657 l 1
 461 648 l 1
 470 648 l 1
 470 640 l 1
 478 640 l 1
 478 631 l 1
 487 631 l 1
 487 622 l 1
 495 622 l 1
 495 614 l 1
 504 614 l 1
 504 596 l 1
 513 596 l 1
 513 588 l 1
 521 588 l 1
 521 570 l 1
 530 570 l 1
 530 536 l 1
 539 536 l 1
 539 449 l 1
 530 449 l 1
 530 406 l 1
 521 406 l 1
 521 389 l 1
 513 389 l 1
 513 372 l 1
 504 372 l 1
 504 346 l 1
 495 346 l 1
 495 337 l 1
 487 337 l 1
 487 320 l 1
 478 320 l 1
 478 311 l 1
 470 311 l 1
 470 302 l 1
 461 302 l 1
 461 285 l 1
 452 285 l 1
 452 277 l 1
 444 277 l 1
 444 268 l 1
 435 268 l 1
 435 259 l 1
 426 259 l 1
 426 251 l 1
 418 251 l 1
 418 242 l 1
 409 242 l 1
 409 233 l 1
 400 233 l 1
 400 225 l 1
 392 225 l 1
 392 216 l 1
 383 216 l 1
 383 207 l 1
 374 207 l 1
 374 199 l 1
 357 199 l 1
 357 190 l 1
 349 190 l 1
 349 181 l 1
 340 181 l 1
 340 173 l 1
 331 173 l 1
 331 164 l 1
 314 164 l 1
 314 156 l 1
 305 156 l 1
 305 147 l 1
 288 147 l 1
 288 138 l 1
 279 138 l 1
 279 130 l 1
 271 130 l 1
 271 121 l 1
 253 121 l 1
 253 112 l 1
 245 112 l 1
 245 104 l 1
 547 104 l 1
 547 0 l 1
 81 0 l 1
 81 9 l 1
 72 9 l 1
 72 17 l 1
 81 17 l 1
 81 86 l 1
 72 86 l 1
 72 95 l 1
 81 95 l 1
 81 104 l 1
 89 104 l 1
 89 112 l 1
 98 112 l 1
 98 121 l 1
 107 121 l 1
 107 130 l 1
 124 130 l 1
 124 138 l 1
 132 138 l 1
 132 147 l 1
 141 147 l 1
 141 156 l 1
 150 156 l 1
 150 164 l 1
 158 164 l 1
 158 173 l 1
 176 173 l 1
 176 181 l 1
 184 181 l 1
 184 190 l 1
 193 190 l 1
 193 199 l 1
 202 199 l 1
 202 207 l 1
 210 207 l 1
 210 216 l 1
 219 216 l 1
 219 225 l 1
 236 225 l 1
 236 233 l 1
 245 233 l 1
 245 242 l 1
 253 242 l 1
 253 251 l 1
 262 251 l 1
 262 259 l 1
 271 259 l 1
 271 268 l 1
 279 268 l 1
 279 277 l 1
 288 277 l 1
 288 285 l 1
 297 285 l 1
 297 294 l 1
 305 294 l 1
 305 302 l 1
 314 302 l 1
 314 311 l 1
 323 311 l 1
 323 320 l 1
 331 320 l 1
 331 328 l 1
 340 328 l 1
 340 346 l 1
 349 346 l 1
 349 354 l 1
 357 354 l 1
 357 372 l 1
 366 372 l 1
 366 380 l 1
 374 380 l 1
 374 398 l 1
 383 398 l 1
 383 415 l 1
 392 415 l 1
 392 441 l 1
 400 441 l 1
 400 519 l 1
 392 519 l 1
 392 536 l 1
 383 536 l 1
 383 553 l 1
 374 553 l 1
 374 562 l 1
 366 562 l 1
 366 570 l 1
 349 570 l 1
 349 579 l 1
 323 579 l 1
 323 588 l 1
 262 588 l 1
 262 596 l 1
 228 596 l 1
 228 588 l 1
 167 588 l 1
 167 579 l 1
 141 579 l 1
 141 570 l 1
 115 570 l 1
 115 562 l 1
 98 562 l 1
 98 553 l 1
 81 553 l 1
 81 665 l 1
 98 665 l 1
 98 674 l 1
 132 674 l 1
 132 683 l 1
 167 683 l 1
 167 691 l 1
 219 691 l 1
 219 700 l 1
EndSplineSet
EndChar

StartChar: three
Encoding: 51 51 22
Width: 618
GlyphClass: 1
Flags: W
LayerCount: 2
Fore
SplineSet
72 137 m 1
 81 137 l 1
 81 128 l 1
 98 128 l 1
 98 120 l 1
 123 120 l 1
 123 111 l 1
 157 111 l 1
 157 102 l 1
 209 102 l 1
 209 94 l 1
 268 94 l 1
 268 102 l 1
 328 102 l 1
 328 111 l 1
 354 111 l 1
 354 120 l 1
 371 120 l 1
 371 128 l 1
 379 128 l 1
 379 137 l 1
 388 137 l 1
 388 145 l 1
 396 145 l 1
 396 171 l 1
 405 171 l 1
 405 239 l 1
 396 239 l 1
 396 256 l 1
 388 256 l 1
 388 265 l 1
 379 265 l 1
 379 273 l 1
 371 273 l 1
 371 282 l 1
 362 282 l 1
 362 290 l 1
 345 290 l 1
 345 299 l 1
 311 299 l 1
 311 307 l 1
 174 307 l 1
 174 401 l 1
 268 401 l 1
 268 410 l 1
 311 410 l 1
 311 418 l 1
 337 418 l 1
 337 427 l 1
 354 427 l 1
 354 435 l 1
 362 435 l 1
 362 444 l 1
 371 444 l 1
 371 452 l 1
 379 452 l 1
 379 470 l 1
 388 470 l 1
 388 538 l 1
 379 538 l 1
 379 555 l 1
 371 555 l 1
 371 563 l 1
 362 563 l 1
 362 572 l 1
 354 572 l 1
 354 580 l 1
 337 580 l 1
 337 589 l 1
 302 589 l 1
 302 598 l 1
 200 598 l 1
 200 589 l 1
 157 589 l 1
 157 580 l 1
 132 580 l 1
 132 572 l 1
 115 572 l 1
 115 563 l 1
 98 563 l 1
 98 555 l 1
 81 555 l 1
 81 666 l 1
 98 666 l 1
 98 674 l 1
 123 674 l 1
 123 683 l 1
 157 683 l 1
 157 691 l 1
 209 691 l 1
 209 700 l 1
 320 700 l 1
 320 691 l 1
 362 691 l 1
 362 683 l 1
 396 683 l 1
 396 674 l 1
 413 674 l 1
 413 666 l 1
 431 666 l 1
 431 657 l 1
 448 657 l 1
 448 649 l 1
 456 649 l 1
 456 640 l 1
 465 640 l 1
 465 632 l 1
 473 632 l 1
 473 623 l 1
 482 623 l 1
 482 615 l 1
 490 615 l 1
 490 606 l 1
 499 606 l 1
 499 589 l 1
 507 589 l 1
 507 563 l 1
 516 563 l 1
 516 470 l 1
 507 470 l 1
 507 444 l 1
 499 444 l 1
 499 427 l 1
 490 427 l 1
 490 418 l 1
 482 418 l 1
 482 410 l 1
 473 410 l 1
 473 401 l 1
 465 401 l 1
 465 393 l 1
 456 393 l 1
 456 384 l 1
 448 384 l 1
 448 376 l 1
 431 376 l 1
 431 367 l 1
 413 367 l 1
 413 350 l 1
 439 350 l 1
 439 341 l 1
 456 341 l 1
 456 333 l 1
 465 333 l 1
 465 324 l 1
 482 324 l 1
 482 316 l 1
 490 316 l 1
 490 307 l 1
 499 307 l 1
 499 299 l 1
 507 299 l 1
 507 282 l 1
 516 282 l 1
 516 265 l 1
 524 265 l 1
 524 239 l 1
 533 239 l 1
 533 154 l 1
 524 154 l 1
 524 128 l 1
 516 128 l 1
 516 111 l 1
 507 111 l 1
 507 94 l 1
 499 94 l 1
 499 85 l 1
 490 85 l 1
 490 68 l 1
 482 68 l 1
 482 60 l 1
 465 60 l 1
 465 51 l 1
 456 51 l 1
 456 43 l 1
 448 43 l 1
 448 34 l 1
 431 34 l 1
 431 26 l 1
 405 26 l 1
 405 17 l 1
 388 17 l 1
 388 9 l 1
 345 9 l 1
 345 0 l 1
 166 0 l 1
 166 9 l 1
 115 9 l 1
 115 17 l 1
 81 17 l 1
 81 26 l 1
 72 26 l 1
 72 137 l 1
EndSplineSet
EndChar

StartChar: four
Encoding: 52 52 23
Width: 698
GlyphClass: 1
Flags: W
LayerCount: 2
Fore
SplineSet
409 248 m 1
 409 585 l 1
 400 585 l 1
 400 576 l 1
 391 576 l 1
 391 558 l 1
 382 558 l 1
 382 549 l 1
 373 549 l 1
 373 532 l 1
 364 532 l 1
 364 523 l 1
 356 523 l 1
 356 505 l 1
 347 505 l 1
 347 487 l 1
 338 487 l 1
 338 478 l 1
 329 478 l 1
 329 461 l 1
 320 461 l 1
 320 452 l 1
 311 452 l 1
 311 434 l 1
 302 434 l 1
 302 416 l 1
 294 416 l 1
 294 408 l 1
 285 408 l 1
 285 390 l 1
 276 390 l 1
 276 381 l 1
 267 381 l 1
 267 363 l 1
 258 363 l 1
 258 354 l 1
 249 354 l 1
 249 337 l 1
 240 337 l 1
 240 328 l 1
 231 328 l 1
 231 310 l 1
 223 310 l 1
 223 292 l 1
 214 292 l 1
 214 284 l 1
 205 284 l 1
 205 266 l 1
 196 266 l 1
 196 257 l 1
 187 257 l 1
 187 248 l 1
 409 248 l 1
356 700 m 1
 533 700 l 1
 533 328 l 1
 542 328 l 1
 542 248 l 1
 613 248 l 1
 613 151 l 1
 542 151 l 1
 542 142 l 1
 533 142 l 1
 533 124 l 1
 542 124 l 1
 542 0 l 1
 409 0 l 1
 409 151 l 1
 90 151 l 1
 90 142 l 1
 81 142 l 1
 81 151 l 1
 72 151 l 1
 72 159 l 1
 81 159 l 1
 81 257 l 1
 90 257 l 1
 90 266 l 1
 99 266 l 1
 99 284 l 1
 107 284 l 1
 107 301 l 1
 116 301 l 1
 116 310 l 1
 125 310 l 1
 125 328 l 1
 134 328 l 1
 134 346 l 1
 143 346 l 1
 143 354 l 1
 152 354 l 1
 152 372 l 1
 161 372 l 1
 161 381 l 1
 169 381 l 1
 169 399 l 1
 178 399 l 1
 178 416 l 1
 187 416 l 1
 187 425 l 1
 196 425 l 1
 196 443 l 1
 205 443 l 1
 205 461 l 1
 214 461 l 1
 214 470 l 1
 223 470 l 1
 223 487 l 1
 231 487 l 1
 231 505 l 1
 240 505 l 1
 240 514 l 1
 249 514 l 1
 249 532 l 1
 258 532 l 1
 258 549 l 1
 267 549 l 1
 267 558 l 1
 276 558 l 1
 276 576 l 1
 285 576 l 1
 285 585 l 1
 294 585 l 1
 294 603 l 1
 302 603 l 1
 302 620 l 1
 311 620 l 1
 311 629 l 1
 320 629 l 1
 320 647 l 1
 329 647 l 1
 329 665 l 1
 338 665 l 1
 338 673 l 1
 347 673 l 1
 347 691 l 1
 356 691 l 1
 356 700 l 1
EndSplineSet
EndChar

StartChar: five
Encoding: 53 53 24
Width: 633
GlyphClass: 1
Flags: W
LayerCount: 2
Fore
SplineSet
72 138 m 1
 81 138 l 1
 81 130 l 1
 107 130 l 1
 107 121 l 1
 124 121 l 1
 124 112 l 1
 158 112 l 1
 158 104 l 1
 219 104 l 1
 219 95 l 1
 279 95 l 1
 279 104 l 1
 340 104 l 1
 340 112 l 1
 357 112 l 1
 357 121 l 1
 374 121 l 1
 374 130 l 1
 383 130 l 1
 383 138 l 1
 392 138 l 1
 392 147 l 1
 400 147 l 1
 400 156 l 1
 409 156 l 1
 409 181 l 1
 418 181 l 1
 418 251 l 1
 409 251 l 1
 409 268 l 1
 400 268 l 1
 400 285 l 1
 392 285 l 1
 392 294 l 1
 383 294 l 1
 383 302 l 1
 374 302 l 1
 374 311 l 1
 357 311 l 1
 357 320 l 1
 323 320 l 1
 323 328 l 1
 124 328 l 1
 124 320 l 1
 89 320 l 1
 89 432 l 1
 98 432 l 1
 98 657 l 1
 107 657 l 1
 107 700 l 1
 115 700 l 1
 115 691 l 1
 158 691 l 1
 158 700 l 1
 513 700 l 1
 513 596 l 1
 228 596 l 1
 228 588 l 1
 219 588 l 1
 219 510 l 1
 210 510 l 1
 210 432 l 1
 357 432 l 1
 357 423 l 1
 400 423 l 1
 400 415 l 1
 426 415 l 1
 426 406 l 1
 444 406 l 1
 444 398 l 1
 461 398 l 1
 461 389 l 1
 478 389 l 1
 478 380 l 1
 487 380 l 1
 487 372 l 1
 495 372 l 1
 495 363 l 1
 504 363 l 1
 504 354 l 1
 513 354 l 1
 513 346 l 1
 521 346 l 1
 521 328 l 1
 530 328 l 1
 530 311 l 1
 539 311 l 1
 539 285 l 1
 547 285 l 1
 547 156 l 1
 539 156 l 1
 539 130 l 1
 530 130 l 1
 530 112 l 1
 521 112 l 1
 521 95 l 1
 513 95 l 1
 513 86 l 1
 504 86 l 1
 504 78 l 1
 495 78 l 1
 495 69 l 1
 487 69 l 1
 487 60 l 1
 478 60 l 1
 478 52 l 1
 470 52 l 1
 470 43 l 1
 452 43 l 1
 452 35 l 1
 444 35 l 1
 444 26 l 1
 418 26 l 1
 418 17 l 1
 392 17 l 1
 392 9 l 1
 349 9 l 1
 349 0 l 1
 158 0 l 1
 158 9 l 1
 115 9 l 1
 115 17 l 1
 81 17 l 1
 81 26 l 1
 72 26 l 1
 72 138 l 1
EndSplineSet
EndChar

StartChar: six
Encoding: 54 54 25
Width: 695
GlyphClass: 1
Flags: W
LayerCount: 2
Fore
SplineSet
388 94 m 1
 388 102 l 1
 422 102 l 1
 422 111 l 1
 439 111 l 1
 439 120 l 1
 448 120 l 1
 448 128 l 1
 456 128 l 1
 456 137 l 1
 465 137 l 1
 465 154 l 1
 473 154 l 1
 473 171 l 1
 482 171 l 1
 482 273 l 1
 473 273 l 1
 473 290 l 1
 465 290 l 1
 465 307 l 1
 456 307 l 1
 456 316 l 1
 448 316 l 1
 448 324 l 1
 431 324 l 1
 431 333 l 1
 413 333 l 1
 413 341 l 1
 388 341 l 1
 388 350 l 1
 294 350 l 1
 294 341 l 1
 268 341 l 1
 268 333 l 1
 243 333 l 1
 243 324 l 1
 226 324 l 1
 226 316 l 1
 209 316 l 1
 209 205 l 1
 217 205 l 1
 217 179 l 1
 226 179 l 1
 226 162 l 1
 234 162 l 1
 234 145 l 1
 243 145 l 1
 243 137 l 1
 251 137 l 1
 251 128 l 1
 260 128 l 1
 260 120 l 1
 268 120 l 1
 268 111 l 1
 285 111 l 1
 285 102 l 1
 311 102 l 1
 311 94 l 1
 388 94 l 1
345 444 m 1
 448 444 l 1
 448 435 l 1
 482 435 l 1
 482 427 l 1
 499 427 l 1
 499 418 l 1
 516 418 l 1
 516 410 l 1
 533 410 l 1
 533 401 l 1
 542 401 l 1
 542 393 l 1
 550 393 l 1
 550 384 l 1
 559 384 l 1
 559 376 l 1
 567 376 l 1
 567 367 l 1
 576 367 l 1
 576 359 l 1
 584 359 l 1
 584 341 l 1
 593 341 l 1
 593 316 l 1
 601 316 l 1
 601 290 l 1
 610 290 l 1
 610 154 l 1
 601 154 l 1
 601 128 l 1
 593 128 l 1
 593 111 l 1
 584 111 l 1
 584 94 l 1
 576 94 l 1
 576 85 l 1
 567 85 l 1
 567 77 l 1
 559 77 l 1
 559 68 l 1
 550 68 l 1
 550 60 l 1
 542 60 l 1
 542 51 l 1
 533 51 l 1
 533 43 l 1
 524 43 l 1
 524 34 l 1
 507 34 l 1
 507 26 l 1
 490 26 l 1
 490 17 l 1
 465 17 l 1
 465 9 l 1
 431 9 l 1
 431 0 l 1
 277 0 l 1
 277 9 l 1
 243 9 l 1
 243 17 l 1
 226 17 l 1
 226 26 l 1
 209 26 l 1
 209 34 l 1
 192 34 l 1
 192 43 l 1
 183 43 l 1
 183 51 l 1
 174 51 l 1
 174 60 l 1
 166 60 l 1
 166 68 l 1
 157 68 l 1
 157 77 l 1
 149 77 l 1
 149 85 l 1
 140 85 l 1
 140 94 l 1
 132 94 l 1
 132 111 l 1
 123 111 l 1
 123 128 l 1
 115 128 l 1
 115 145 l 1
 106 145 l 1
 106 162 l 1
 98 162 l 1
 98 188 l 1
 89 188 l 1
 89 230 l 1
 81 230 l 1
 81 299 l 1
 72 299 l 1
 72 350 l 1
 81 350 l 1
 81 427 l 1
 89 427 l 1
 89 470 l 1
 98 470 l 1
 98 504 l 1
 106 504 l 1
 106 521 l 1
 115 521 l 1
 115 546 l 1
 123 546 l 1
 123 563 l 1
 132 563 l 1
 132 572 l 1
 140 572 l 1
 140 589 l 1
 149 589 l 1
 149 598 l 1
 157 598 l 1
 157 615 l 1
 166 615 l 1
 166 623 l 1
 174 623 l 1
 174 632 l 1
 183 632 l 1
 183 640 l 1
 200 640 l 1
 200 649 l 1
 209 649 l 1
 209 657 l 1
 226 657 l 1
 226 666 l 1
 243 666 l 1
 243 674 l 1
 260 674 l 1
 260 683 l 1
 285 683 l 1
 285 691 l 1
 337 691 l 1
 337 700 l 1
 482 700 l 1
 482 691 l 1
 524 691 l 1
 524 683 l 1
 559 683 l 1
 559 572 l 1
 542 572 l 1
 542 580 l 1
 516 580 l 1
 516 589 l 1
 482 589 l 1
 482 598 l 1
 345 598 l 1
 345 589 l 1
 320 589 l 1
 320 580 l 1
 302 580 l 1
 302 572 l 1
 285 572 l 1
 285 563 l 1
 277 563 l 1
 277 555 l 1
 268 555 l 1
 268 546 l 1
 260 546 l 1
 260 538 l 1
 251 538 l 1
 251 521 l 1
 243 521 l 1
 243 512 l 1
 234 512 l 1
 234 495 l 1
 226 495 l 1
 226 470 l 1
 217 470 l 1
 217 435 l 1
 209 435 l 1
 209 384 l 1
 217 384 l 1
 217 393 l 1
 234 393 l 1
 234 401 l 1
 251 401 l 1
 251 410 l 1
 268 410 l 1
 268 418 l 1
 285 418 l 1
 285 427 l 1
 311 427 l 1
 311 435 l 1
 345 435 l 1
 345 444 l 1
EndSplineSet
EndChar

StartChar: seven
Encoding: 55 55 26
Width: 674
GlyphClass: 1
Flags: W
LayerCount: 2
Fore
SplineSet
571 700 m 1
 588 700 l 1
 588 612 l 1
 580 612 l 1
 580 604 l 1
 571 604 l 1
 571 578 l 1
 562 578 l 1
 562 560 l 1
 553 560 l 1
 553 542 l 1
 544 542 l 1
 544 525 l 1
 536 525 l 1
 536 508 l 1
 527 508 l 1
 527 490 l 1
 518 490 l 1
 518 472 l 1
 510 472 l 1
 510 446 l 1
 501 446 l 1
 501 429 l 1
 492 429 l 1
 492 411 l 1
 483 411 l 1
 483 394 l 1
 474 394 l 1
 474 376 l 1
 466 376 l 1
 466 359 l 1
 457 359 l 1
 457 341 l 1
 448 341 l 1
 448 315 l 1
 440 315 l 1
 440 298 l 1
 431 298 l 1
 431 280 l 1
 422 280 l 1
 422 262 l 1
 413 262 l 1
 413 245 l 1
 404 245 l 1
 404 228 l 1
 396 228 l 1
 396 210 l 1
 387 210 l 1
 387 192 l 1
 378 192 l 1
 378 166 l 1
 370 166 l 1
 370 149 l 1
 361 149 l 1
 361 131 l 1
 352 131 l 1
 352 114 l 1
 343 114 l 1
 343 96 l 1
 334 96 l 1
 334 79 l 1
 326 79 l 1
 326 61 l 1
 317 61 l 1
 317 35 l 1
 308 35 l 1
 308 18 l 1
 300 18 l 1
 300 9 l 1
 291 9 l 1
 291 0 l 1
 160 0 l 1
 160 18 l 1
 168 18 l 1
 168 35 l 1
 177 35 l 1
 177 61 l 1
 186 61 l 1
 186 79 l 1
 194 79 l 1
 194 96 l 1
 203 96 l 1
 203 114 l 1
 212 114 l 1
 212 131 l 1
 221 131 l 1
 221 158 l 1
 230 158 l 1
 230 175 l 1
 238 175 l 1
 238 192 l 1
 247 192 l 1
 247 210 l 1
 256 210 l 1
 256 228 l 1
 264 228 l 1
 264 245 l 1
 273 245 l 1
 273 262 l 1
 282 262 l 1
 282 280 l 1
 291 280 l 1
 291 306 l 1
 300 306 l 1
 300 324 l 1
 308 324 l 1
 308 341 l 1
 317 341 l 1
 317 359 l 1
 326 359 l 1
 326 376 l 1
 334 376 l 1
 334 394 l 1
 343 394 l 1
 343 411 l 1
 352 411 l 1
 352 438 l 1
 361 438 l 1
 361 455 l 1
 370 455 l 1
 370 472 l 1
 378 472 l 1
 378 490 l 1
 387 490 l 1
 387 508 l 1
 396 508 l 1
 396 525 l 1
 404 525 l 1
 404 542 l 1
 413 542 l 1
 413 560 l 1
 422 560 l 1
 422 586 l 1
 431 586 l 1
 431 595 l 1
 90 595 l 1
 90 586 l 1
 81 586 l 1
 81 595 l 1
 72 595 l 1
 72 665 l 1
 81 665 l 1
 81 674 l 1
 72 674 l 1
 72 691 l 1
 81 691 l 1
 81 700 l 1
 562 700 l 1
 562 691 l 1
 571 691 l 1
 571 700 l 1
EndSplineSet
EndChar

StartChar: eight
Encoding: 56 56 27
Width: 704
GlyphClass: 1
Flags: W
LayerCount: 2
Fore
SplineSet
396 401 m 1
 396 410 l 1
 422 410 l 1
 422 418 l 1
 439 418 l 1
 439 427 l 1
 448 427 l 1
 448 435 l 1
 456 435 l 1
 456 444 l 1
 465 444 l 1
 465 470 l 1
 473 470 l 1
 473 529 l 1
 465 529 l 1
 465 546 l 1
 456 546 l 1
 456 563 l 1
 448 563 l 1
 448 572 l 1
 439 572 l 1
 439 580 l 1
 431 580 l 1
 431 589 l 1
 413 589 l 1
 413 598 l 1
 388 598 l 1
 388 606 l 1
 320 606 l 1
 320 598 l 1
 285 598 l 1
 285 589 l 1
 268 589 l 1
 268 580 l 1
 251 580 l 1
 251 572 l 1
 243 572 l 1
 243 555 l 1
 234 555 l 1
 234 538 l 1
 226 538 l 1
 226 452 l 1
 234 452 l 1
 234 444 l 1
 243 444 l 1
 243 435 l 1
 251 435 l 1
 251 427 l 1
 260 427 l 1
 260 418 l 1
 277 418 l 1
 277 410 l 1
 302 410 l 1
 302 401 l 1
 396 401 l 1
405 94 m 1
 405 102 l 1
 431 102 l 1
 431 111 l 1
 448 111 l 1
 448 120 l 1
 456 120 l 1
 456 128 l 1
 465 128 l 1
 465 137 l 1
 473 137 l 1
 473 145 l 1
 482 145 l 1
 482 171 l 1
 490 171 l 1
 490 239 l 1
 482 239 l 1
 482 256 l 1
 473 256 l 1
 473 273 l 1
 465 273 l 1
 465 282 l 1
 456 282 l 1
 456 290 l 1
 439 290 l 1
 439 299 l 1
 422 299 l 1
 422 307 l 1
 388 307 l 1
 388 316 l 1
 302 316 l 1
 302 307 l 1
 268 307 l 1
 268 299 l 1
 251 299 l 1
 251 290 l 1
 234 290 l 1
 234 282 l 1
 226 282 l 1
 226 273 l 1
 217 273 l 1
 217 256 l 1
 209 256 l 1
 209 239 l 1
 200 239 l 1
 200 171 l 1
 209 171 l 1
 209 145 l 1
 217 145 l 1
 217 137 l 1
 226 137 l 1
 226 128 l 1
 234 128 l 1
 234 120 l 1
 243 120 l 1
 243 111 l 1
 260 111 l 1
 260 102 l 1
 277 102 l 1
 277 94 l 1
 405 94 l 1
285 700 m 1
 396 700 l 1
 396 691 l 1
 448 691 l 1
 448 683 l 1
 473 683 l 1
 473 674 l 1
 499 674 l 1
 499 666 l 1
 516 666 l 1
 516 657 l 1
 524 657 l 1
 524 649 l 1
 542 649 l 1
 542 640 l 1
 550 640 l 1
 550 632 l 1
 559 632 l 1
 559 623 l 1
 567 623 l 1
 567 606 l 1
 576 606 l 1
 576 589 l 1
 584 589 l 1
 584 563 l 1
 593 563 l 1
 593 470 l 1
 584 470 l 1
 584 444 l 1
 576 444 l 1
 576 427 l 1
 567 427 l 1
 567 418 l 1
 559 418 l 1
 559 410 l 1
 550 410 l 1
 550 401 l 1
 542 401 l 1
 542 393 l 1
 533 393 l 1
 533 384 l 1
 524 384 l 1
 524 376 l 1
 507 376 l 1
 507 359 l 1
 524 359 l 1
 524 350 l 1
 542 350 l 1
 542 341 l 1
 550 341 l 1
 550 333 l 1
 567 333 l 1
 567 324 l 1
 576 324 l 1
 576 316 l 1
 584 316 l 1
 584 307 l 1
 593 307 l 1
 593 290 l 1
 601 290 l 1
 601 273 l 1
 610 273 l 1
 610 248 l 1
 618 248 l 1
 618 145 l 1
 610 145 l 1
 610 120 l 1
 601 120 l 1
 601 102 l 1
 593 102 l 1
 593 94 l 1
 584 94 l 1
 584 77 l 1
 576 77 l 1
 576 68 l 1
 567 68 l 1
 567 60 l 1
 559 60 l 1
 559 51 l 1
 542 51 l 1
 542 43 l 1
 533 43 l 1
 533 34 l 1
 516 34 l 1
 516 26 l 1
 499 26 l 1
 499 17 l 1
 473 17 l 1
 473 9 l 1
 439 9 l 1
 439 0 l 1
 260 0 l 1
 260 9 l 1
 226 9 l 1
 226 17 l 1
 200 17 l 1
 200 26 l 1
 183 26 l 1
 183 34 l 1
 166 34 l 1
 166 43 l 1
 149 43 l 1
 149 51 l 1
 140 51 l 1
 140 60 l 1
 132 60 l 1
 132 68 l 1
 123 68 l 1
 123 77 l 1
 115 77 l 1
 115 85 l 1
 106 85 l 1
 106 94 l 1
 98 94 l 1
 98 111 l 1
 89 111 l 1
 89 128 l 1
 81 128 l 1
 81 154 l 1
 72 154 l 1
 72 239 l 1
 81 239 l 1
 81 265 l 1
 89 265 l 1
 89 282 l 1
 98 282 l 1
 98 290 l 1
 106 290 l 1
 106 307 l 1
 115 307 l 1
 115 316 l 1
 123 316 l 1
 123 324 l 1
 132 324 l 1
 132 333 l 1
 149 333 l 1
 149 341 l 1
 157 341 l 1
 157 350 l 1
 174 350 l 1
 174 359 l 1
 192 359 l 1
 192 367 l 1
 183 367 l 1
 183 376 l 1
 166 376 l 1
 166 384 l 1
 157 384 l 1
 157 393 l 1
 149 393 l 1
 149 401 l 1
 140 401 l 1
 140 410 l 1
 132 410 l 1
 132 418 l 1
 123 418 l 1
 123 435 l 1
 115 435 l 1
 115 452 l 1
 106 452 l 1
 106 478 l 1
 98 478 l 1
 98 546 l 1
 106 546 l 1
 106 580 l 1
 115 580 l 1
 115 598 l 1
 123 598 l 1
 123 606 l 1
 132 606 l 1
 132 623 l 1
 140 623 l 1
 140 632 l 1
 149 632 l 1
 149 640 l 1
 157 640 l 1
 157 649 l 1
 166 649 l 1
 166 657 l 1
 183 657 l 1
 183 666 l 1
 200 666 l 1
 200 674 l 1
 217 674 l 1
 217 683 l 1
 243 683 l 1
 243 691 l 1
 285 691 l 1
 285 700 l 1
EndSplineSet
EndChar

StartChar: nine
Encoding: 57 57 28
Width: 704
GlyphClass: 1
Flags: W
LayerCount: 2
Fore
SplineSet
405 350 m 1
 405 359 l 1
 431 359 l 1
 431 367 l 1
 456 367 l 1
 456 376 l 1
 473 376 l 1
 473 384 l 1
 482 384 l 1
 482 487 l 1
 473 487 l 1
 473 512 l 1
 465 512 l 1
 465 538 l 1
 456 538 l 1
 456 546 l 1
 448 546 l 1
 448 563 l 1
 439 563 l 1
 439 572 l 1
 431 572 l 1
 431 580 l 1
 413 580 l 1
 413 589 l 1
 396 589 l 1
 396 598 l 1
 371 598 l 1
 371 606 l 1
 302 606 l 1
 302 598 l 1
 277 598 l 1
 277 589 l 1
 260 589 l 1
 260 580 l 1
 243 580 l 1
 243 572 l 1
 234 572 l 1
 234 563 l 1
 226 563 l 1
 226 546 l 1
 217 546 l 1
 217 529 l 1
 209 529 l 1
 209 495 l 1
 200 495 l 1
 200 461 l 1
 209 461 l 1
 209 418 l 1
 217 418 l 1
 217 401 l 1
 226 401 l 1
 226 393 l 1
 234 393 l 1
 234 384 l 1
 243 384 l 1
 243 376 l 1
 251 376 l 1
 251 367 l 1
 268 367 l 1
 268 359 l 1
 294 359 l 1
 294 350 l 1
 405 350 l 1
115 137 m 1
 123 137 l 1
 123 128 l 1
 140 128 l 1
 140 120 l 1
 157 120 l 1
 157 111 l 1
 183 111 l 1
 183 102 l 1
 226 102 l 1
 226 94 l 1
 320 94 l 1
 320 102 l 1
 362 102 l 1
 362 111 l 1
 388 111 l 1
 388 120 l 1
 405 120 l 1
 405 128 l 1
 422 128 l 1
 422 137 l 1
 431 137 l 1
 431 145 l 1
 439 145 l 1
 439 154 l 1
 448 154 l 1
 448 171 l 1
 456 171 l 1
 456 179 l 1
 465 179 l 1
 465 205 l 1
 473 205 l 1
 473 239 l 1
 482 239 l 1
 482 290 l 1
 465 290 l 1
 465 282 l 1
 456 282 l 1
 456 273 l 1
 431 273 l 1
 431 265 l 1
 396 265 l 1
 396 256 l 1
 354 256 l 1
 354 248 l 1
 277 248 l 1
 277 256 l 1
 234 256 l 1
 234 265 l 1
 209 265 l 1
 209 273 l 1
 192 273 l 1
 192 282 l 1
 174 282 l 1
 174 290 l 1
 157 290 l 1
 157 299 l 1
 149 299 l 1
 149 307 l 1
 140 307 l 1
 140 316 l 1
 132 316 l 1
 132 324 l 1
 123 324 l 1
 123 333 l 1
 115 333 l 1
 115 341 l 1
 106 341 l 1
 106 359 l 1
 98 359 l 1
 98 367 l 1
 89 367 l 1
 89 393 l 1
 81 393 l 1
 81 427 l 1
 72 427 l 1
 72 521 l 1
 81 521 l 1
 81 555 l 1
 89 555 l 1
 89 572 l 1
 98 572 l 1
 98 589 l 1
 106 589 l 1
 106 598 l 1
 115 598 l 1
 115 615 l 1
 123 615 l 1
 123 623 l 1
 132 623 l 1
 132 632 l 1
 140 632 l 1
 140 640 l 1
 149 640 l 1
 149 649 l 1
 166 649 l 1
 166 657 l 1
 174 657 l 1
 174 666 l 1
 192 666 l 1
 192 674 l 1
 217 674 l 1
 217 683 l 1
 243 683 l 1
 243 691 l 1
 285 691 l 1
 285 700 l 1
 388 700 l 1
 388 691 l 1
 431 691 l 1
 431 683 l 1
 456 683 l 1
 456 674 l 1
 482 674 l 1
 482 666 l 1
 490 666 l 1
 490 657 l 1
 507 657 l 1
 507 649 l 1
 516 649 l 1
 516 640 l 1
 524 640 l 1
 524 632 l 1
 533 632 l 1
 533 623 l 1
 542 623 l 1
 542 615 l 1
 550 615 l 1
 550 606 l 1
 559 606 l 1
 559 598 l 1
 567 598 l 1
 567 580 l 1
 576 580 l 1
 576 563 l 1
 584 563 l 1
 584 546 l 1
 593 546 l 1
 593 529 l 1
 601 529 l 1
 601 495 l 1
 610 495 l 1
 610 444 l 1
 618 444 l 1
 618 290 l 1
 610 290 l 1
 610 239 l 1
 601 239 l 1
 601 205 l 1
 593 205 l 1
 593 179 l 1
 584 179 l 1
 584 162 l 1
 576 162 l 1
 576 145 l 1
 567 145 l 1
 567 128 l 1
 559 128 l 1
 559 120 l 1
 550 120 l 1
 550 102 l 1
 542 102 l 1
 542 94 l 1
 533 94 l 1
 533 85 l 1
 524 85 l 1
 524 77 l 1
 516 77 l 1
 516 68 l 1
 507 68 l 1
 507 60 l 1
 499 60 l 1
 499 51 l 1
 482 51 l 1
 482 43 l 1
 473 43 l 1
 473 34 l 1
 456 34 l 1
 456 26 l 1
 431 26 l 1
 431 17 l 1
 413 17 l 1
 413 9 l 1
 371 9 l 1
 371 0 l 1
 209 0 l 1
 209 9 l 1
 157 9 l 1
 157 17 l 1
 132 17 l 1
 132 26 l 1
 115 26 l 1
 115 120 l 1
 106 120 l 1
 106 128 l 1
 115 128 l 1
 115 137 l 1
EndSplineSet
EndChar

StartChar: colon
Encoding: 58 58 29
Width: 646
GlyphClass: 1
Flags: W
LayerCount: 2
Fore
SplineSet
329 529 m 1
 391 529 l 1
 391 520 l 1
 408 520 l 1
 408 511 l 1
 417 511 l 1
 417 503 l 1
 426 503 l 1
 426 494 l 1
 434 494 l 1
 434 433 l 1
 426 433 l 1
 426 415 l 1
 417 415 l 1
 417 407 l 1
 408 407 l 1
 408 398 l 1
 399 398 l 1
 399 389 l 1
 321 389 l 1
 321 398 l 1
 312 398 l 1
 312 407 l 1
 303 407 l 1
 303 415 l 1
 294 415 l 1
 294 424 l 1
 286 424 l 1
 286 485 l 1
 294 485 l 1
 294 503 l 1
 303 503 l 1
 303 511 l 1
 312 511 l 1
 312 520 l 1
 329 520 l 1
 329 529 l 1
329 256 m 1
 391 256 l 1
 391 247 l 1
 408 247 l 1
 408 238 l 1
 417 238 l 1
 417 230 l 1
 426 230 l 1
 426 221 l 1
 434 221 l 1
 434 160 l 1
 426 160 l 1
 426 142 l 1
 417 142 l 1
 417 134 l 1
 408 134 l 1
 408 125 l 1
 399 125 l 1
 399 116 l 1
 321 116 l 1
 321 125 l 1
 312 125 l 1
 312 134 l 1
 303 134 l 1
 303 142 l 1
 294 142 l 1
 294 151 l 1
 286 151 l 1
 286 212 l 1
 294 212 l 1
 294 230 l 1
 303 230 l 1
 303 238 l 1
 312 238 l 1
 312 247 l 1
 329 247 l 1
 329 256 l 1
EndSplineSet
EndChar

StartChar: semicolon
Encoding: 59 59 30
Width: 646
GlyphClass: 1
Flags: W
LayerCount: 2
Fore
SplineSet
321 289 m 1
 389 289 l 1
 389 279 l 1
 408 279 l 1
 408 270 l 1
 418 270 l 1
 418 260 l 1
 427 260 l 1
 427 241 l 1
 437 241 l 1
 437 125 l 1
 427 125 l 1
 427 96 l 1
 418 96 l 1
 418 77 l 1
 408 77 l 1
 408 67 l 1
 399 67 l 1
 399 48 l 1
 389 48 l 1
 389 38 l 1
 369 38 l 1
 369 28 l 1
 360 28 l 1
 360 19 l 1
 341 19 l 1
 341 9 l 1
 283 9 l 1
 283 19 l 1
 302 19 l 1
 302 28 l 1
 312 28 l 1
 312 38 l 1
 321 38 l 1
 321 48 l 1
 331 48 l 1
 331 67 l 1
 341 67 l 1
 341 86 l 1
 350 86 l 1
 350 135 l 1
 341 135 l 1
 341 144 l 1
 312 144 l 1
 312 154 l 1
 302 154 l 1
 302 163 l 1
 292 163 l 1
 292 173 l 1
 283 173 l 1
 283 193 l 1
 273 193 l 1
 273 250 l 1
 283 250 l 1
 283 260 l 1
 292 260 l 1
 292 270 l 1
 302 270 l 1
 302 279 l 1
 321 279 l 1
 321 289 l 1
329 498 m 1
 391 498 l 1
 391 489 l 1
 408 489 l 1
 408 480 l 1
 417 480 l 1
 417 472 l 1
 426 472 l 1
 426 463 l 1
 434 463 l 1
 434 402 l 1
 426 402 l 1
 426 384 l 1
 417 384 l 1
 417 376 l 1
 408 376 l 1
 408 367 l 1
 399 367 l 1
 399 358 l 1
 321 358 l 1
 321 367 l 1
 312 367 l 1
 312 376 l 1
 303 376 l 1
 303 384 l 1
 294 384 l 1
 294 393 l 1
 286 393 l 1
 286 454 l 1
 294 454 l 1
 294 472 l 1
 303 472 l 1
 303 480 l 1
 312 480 l 1
 312 489 l 1
 329 489 l 1
 329 498 l 1
EndSplineSet
EndChar

StartChar: equal
Encoding: 61 61 31
Width: 1171
GlyphClass: 1
Flags: W
LayerCount: 2
Fore
SplineSet
199 612 m 1
 958 612 l 1
 958 447 l 1
 682 447 l 1
 682 460 l 1
 655 460 l 1
 655 447 l 1
 627 447 l 1
 627 460 l 1
 599 460 l 1
 599 447 l 1
 586 447 l 1
 586 460 l 1
 309 460 l 1
 309 447 l 1
 199 447 l 1
 199 612 l 1
862 253 m 1
 958 253 l 1
 958 254 958 254 958 88 c 1
 199 88 l 1
 199 253 l 1
 779 253 l 1
 779 240 l 1
 862 240 l 1
 862 253 l 1
EndSplineSet
EndChar

StartChar: question
Encoding: 63 63 32
Width: 579
GlyphClass: 1
Flags: W
LayerCount: 2
Fore
SplineSet
199 746 m 1
 325 746 l 1
 325 738 l 1
 367 738 l 1
 367 729 l 1
 392 729 l 1
 392 721 l 1
 418 721 l 1
 418 712 l 1
 426 712 l 1
 426 704 l 1
 443 704 l 1
 443 695 l 1
 452 695 l 1
 452 687 l 1
 460 687 l 1
 460 679 l 1
 468 679 l 1
 468 662 l 1
 477 662 l 1
 477 645 l 1
 485 645 l 1
 485 619 l 1
 494 619 l 1
 494 535 l 1
 485 535 l 1
 485 510 l 1
 477 510 l 1
 477 493 l 1
 468 493 l 1
 468 485 l 1
 460 485 l 1
 460 476 l 1
 452 476 l 1
 452 459 l 1
 443 459 l 1
 443 451 l 1
 435 451 l 1
 435 442 l 1
 426 442 l 1
 426 434 l 1
 409 434 l 1
 409 426 l 1
 401 426 l 1
 401 417 l 1
 392 417 l 1
 392 409 l 1
 384 409 l 1
 384 400 l 1
 367 400 l 1
 367 392 l 1
 359 392 l 1
 359 383 l 1
 350 383 l 1
 350 375 l 1
 342 375 l 1
 342 366 l 1
 333 366 l 1
 333 358 l 1
 325 358 l 1
 325 350 l 1
 317 350 l 1
 317 341 l 1
 308 341 l 1
 308 324 l 1
 300 324 l 1
 300 307 l 1
 291 307 l 1
 291 257 l 1
 190 257 l 1
 190 282 l 1
 182 282 l 1
 182 341 l 1
 190 341 l 1
 190 358 l 1
 199 358 l 1
 199 375 l 1
 207 375 l 1
 207 383 l 1
 215 383 l 1
 215 392 l 1
 224 392 l 1
 224 400 l 1
 232 400 l 1
 232 409 l 1
 241 409 l 1
 241 417 l 1
 249 417 l 1
 249 426 l 1
 258 426 l 1
 258 434 l 1
 266 434 l 1
 266 442 l 1
 274 442 l 1
 274 451 l 1
 291 451 l 1
 291 459 l 1
 300 459 l 1
 300 468 l 1
 308 468 l 1
 308 476 l 1
 317 476 l 1
 317 485 l 1
 325 485 l 1
 325 493 l 1
 333 493 l 1
 333 501 l 1
 342 501 l 1
 342 510 l 1
 350 510 l 1
 350 518 l 1
 359 518 l 1
 359 535 l 1
 367 535 l 1
 367 594 l 1
 359 594 l 1
 359 611 l 1
 350 611 l 1
 350 619 l 1
 342 619 l 1
 342 628 l 1
 325 628 l 1
 325 636 l 1
 300 636 l 1
 300 645 l 1
 182 645 l 1
 182 636 l 1
 148 636 l 1
 148 628 l 1
 131 628 l 1
 131 619 l 1
 106 619 l 1
 106 611 l 1
 89 611 l 1
 89 603 l 1
 80 603 l 1
 80 594 l 1
 72 594 l 1
 72 712 l 1
 97 712 l 1
 97 721 l 1
 123 721 l 1
 123 729 l 1
 148 729 l 1
 148 738 l 1
 199 738 l 1
 199 746 l 1
224 181 m 1
 274 181 l 1
 274 173 l 1
 291 173 l 1
 291 164 l 1
 300 164 l 1
 300 156 l 1
 308 156 l 1
 308 147 l 1
 317 147 l 1
 317 113 l 1
 325 113 l 1
 325 105 l 1
 317 105 l 1
 317 71 l 1
 308 71 l 1
 308 63 l 1
 300 63 l 1
 300 54 l 1
 283 54 l 1
 283 46 l 1
 207 46 l 1
 207 54 l 1
 199 54 l 1
 199 63 l 1
 190 63 l 1
 190 71 l 1
 182 71 l 1
 182 97 l 1
 173 97 l 1
 173 130 l 1
 182 130 l 1
 182 147 l 1
 190 147 l 1
 190 164 l 1
 207 164 l 1
 207 173 l 1
 224 173 l 1
 224 181 l 1
EndSplineSet
EndChar

StartChar: at
Encoding: 64 64 33
Width: 520
GlyphClass: 1
Flags: W
LayerCount: 2
Fore
SplineSet
388 469 m 1
 394 469 l 1
 394 451 l 1
 388 451 l 1
 388 416 l 1
 382 416 l 1
 382 392 l 1
 376 392 l 1
 376 350 l 1
 370 350 l 1
 370 279 l 1
 376 279 l 1
 376 273 l 1
 394 273 l 1
 394 279 l 1
 406 279 l 1
 406 284 l 1
 418 284 l 1
 418 290 l 1
 424 290 l 1
 424 296 l 1
 430 296 l 1
 430 302 l 1
 436 302 l 1
 436 308 l 1
 442 308 l 1
 442 320 l 1
 448 320 l 1
 448 332 l 1
 454 332 l 1
 454 350 l 1
 460 350 l 1
 460 433 l 1
 454 433 l 1
 454 457 l 1
 448 457 l 1
 448 469 l 1
 442 469 l 1
 442 475 l 1
 436 475 l 1
 436 487 l 1
 430 487 l 1
 430 493 l 1
 424 493 l 1
 424 499 l 1
 418 499 l 1
 418 505 l 1
 412 505 l 1
 412 511 l 1
 400 511 l 1
 400 517 l 1
 388 517 l 1
 388 523 l 1
 382 523 l 1
 382 529 l 1
 370 529 l 1
 370 535 l 1
 352 535 l 1
 352 541 l 1
 334 541 l 1
 334 540 334 540 334 546 c 1
 305 546 l 1
 305 552 l 1
 259 552 l 1
 257 552 l 1
 229 552 l 1
 229 546 l 1
 199 546 l 1
 199 541 l 1
 200 541 200 541 182 541 c 1
 182 535 l 1
 170 535 l 1
 170 529 l 1
 158 529 l 1
 158 523 l 1
 146 523 l 1
 146 517 l 1
 134 517 l 1
 134 511 l 1
 128 511 l 1
 128 505 l 1
 122 505 l 1
 122 499 l 1
 116 499 l 1
 116 493 l 1
 110 493 l 1
 110 487 l 1
 104 487 l 1
 104 481 l 1
 98 481 l 1
 98 475 l 1
 92 475 l 1
 92 463 l 1
 86 463 l 1
 86 451 l 1
 80 451 l 1
 80 439 l 1
 74 439 l 1
 74 427 l 1
 68 427 l 1
 68 404 l 1
 62 404 l 1
 62 374 l 1
 56 374 l 1
 56 308 l 1
 62 308 l 1
 62 284 l 1
 68 284 l 1
 68 261 l 1
 74 261 l 1
 74 249 l 1
 80 249 l 1
 80 237 l 1
 86 237 l 1
 86 231 l 1
 92 231 l 1
 92 219 l 1
 98 219 l 1
 98 213 l 1
 104 213 l 1
 104 207 l 1
 110 207 l 1
 110 201 l 1
 116 201 l 1
 116 195 l 1
 122 195 l 1
 122 189 l 1
 134 189 l 1
 134 183 l 1
 140 183 l 1
 140 177 l 1
 152 177 l 1
 152 171 l 1
 164 171 l 1
 164 165 l 1
 176 165 l 1
 176 159 l 1
 199 159 l 1
 199 160 199 160 199 154 c 1
 241 154 l 1
 241 148 l 1
 257 148 l 1
 259 148 l 1
 287 148 l 1
 287 154 l 1
 286 154 286 154 334 154 c 1
 334 159 l 1
 364 159 l 1
 364 165 l 1
 382 165 l 1
 382 171 l 1
 400 171 l 1
 400 172 400 172 400 130 c 1
 394 130 l 1
 394 124 l 1
 400 124 l 1
 400 118 l 1
 394 118 l 1
 394 112 l 1
 376 112 l 1
 376 106 l 1
 352 106 l 1
 352 100 l 1
 328 100 l 1
 328 94 l 1
 293 94 l 1
 293 88 l 1
 259 88 l 1
 257 88 l 1
 205 88 l 1
 205 94 l 1
 206 94 206 94 170 94 c 1
 170 100 l 1
 152 100 l 1
 152 106 l 1
 134 106 l 1
 134 112 l 1
 122 112 l 1
 122 118 l 1
 110 118 l 1
 110 124 l 1
 98 124 l 1
 98 130 l 1
 92 130 l 1
 92 136 l 1
 80 136 l 1
 80 142 l 1
 74 142 l 1
 74 148 l 1
 68 148 l 1
 68 154 l 1
 62 154 l 1
 62 159 l 1
 56 159 l 1
 56 165 l 1
 50 165 l 1
 50 171 l 1
 44 171 l 1
 44 177 l 1
 38 177 l 1
 38 189 l 1
 32 189 l 1
 32 195 l 1
 26 195 l 1
 26 207 l 1
 20 207 l 1
 20 219 l 1
 14 219 l 1
 14 237 l 1
 8 237 l 1
 8 249 l 1
 2 249 l 1
 2 279 l 1
 -4 279 l 1
 -4 392 l 1
 2 392 l 1
 2 421 l 1
 8 421 l 1
 8 439 l 1
 14 439 l 1
 14 451 l 1
 20 451 l 1
 20 463 l 1
 26 463 l 1
 26 481 l 1
 32 481 l 1
 32 487 l 1
 38 487 l 1
 38 499 l 1
 44 499 l 1
 44 505 l 1
 50 505 l 1
 50 517 l 1
 56 517 l 1
 56 523 l 1
 62 523 l 1
 62 529 l 1
 68 529 l 1
 68 535 l 1
 74 535 l 1
 74 534 74 534 74 546 c 1
 80 546 l 1
 80 552 l 1
 92 552 l 1
 92 558 l 1
 98 558 l 1
 98 564 l 1
 104 564 l 1
 104 570 l 1
 116 570 l 1
 116 576 l 1
 122 576 l 1
 122 582 l 1
 134 582 l 1
 134 588 l 1
 146 588 l 1
 146 594 l 1
 164 594 l 1
 164 600 l 1
 182 600 l 1
 182 606 l 1
 205 606 l 1
 205 612 l 1
 257 612 l 1
 259 612 l 1
 258 612 258 612 340 612 c 1
 340 606 l 1
 370 606 l 1
 370 600 l 1
 388 600 l 1
 388 594 l 1
 406 594 l 1
 406 588 l 1
 418 588 l 1
 418 582 l 1
 430 582 l 1
 430 576 l 1
 442 576 l 1
 442 570 l 1
 448 570 l 1
 448 564 l 1
 454 564 l 1
 454 558 l 1
 466 558 l 1
 466 552 l 1
 472 552 l 1
 472 546 l 1
 478 546 l 1
 478 541 l 1
 484 541 l 1
 484 529 l 1
 490 529 l 1
 490 523 l 1
 496 523 l 1
 496 517 l 1
 502 517 l 1
 502 505 l 1
 508 505 l 1
 508 487 l 1
 514 487 l 1
 514 469 l 1
 520 469 l 1
 520 374 l 1
 514 374 l 1
 514 344 l 1
 508 344 l 1
 508 326 l 1
 502 326 l 1
 502 314 l 1
 496 314 l 1
 496 302 l 1
 490 302 l 1
 490 290 l 1
 484 290 l 1
 484 279 l 1
 478 279 l 1
 478 273 l 1
 472 273 l 1
 472 267 l 1
 466 267 l 1
 466 261 l 1
 460 261 l 1
 460 255 l 1
 454 255 l 1
 454 249 l 1
 448 249 l 1
 448 243 l 1
 442 243 l 1
 442 237 l 1
 430 237 l 1
 430 231 l 1
 424 231 l 1
 424 225 l 1
 406 225 l 1
 406 219 l 1
 388 219 l 1
 388 213 l 1
 352 213 l 1
 352 219 l 1
 334 219 l 1
 334 225 l 1
 328 225 l 1
 328 231 l 1
 323 231 l 1
 323 237 l 1
 317 237 l 1
 317 249 l 1
 311 249 l 1
 311 243 l 1
 305 243 l 1
 305 237 l 1
 299 237 l 1
 299 231 l 1
 293 231 l 1
 293 225 l 1
 281 225 l 1
 281 219 l 1
 263 219 l 1
 263 213 l 1
 259 213 l 1
 257 213 l 1
 193 213 l 1
 193 219 l 1
 194 219 194 219 182 219 c 1
 182 225 l 1
 170 225 l 1
 170 231 l 1
 164 231 l 1
 164 237 l 1
 158 237 l 1
 158 243 l 1
 152 243 l 1
 152 249 l 1
 146 249 l 1
 146 261 l 1
 140 261 l 1
 140 273 l 1
 134 273 l 1
 134 290 l 1
 128 290 l 1
 128 374 l 1
 134 374 l 1
 134 392 l 1
 140 392 l 1
 140 404 l 1
 146 404 l 1
 146 416 l 1
 152 416 l 1
 152 427 l 1
 158 427 l 1
 158 433 l 1
 164 433 l 1
 164 439 l 1
 170 439 l 1
 170 445 l 1
 176 445 l 1
 176 451 l 1
 188 451 l 1
 188 457 l 1
 199 457 l 1
 199 463 l 1
 217 463 l 1
 217 469 l 1
 257 469 l 1
 259 469 l 1
 281 469 l 1
 281 463 l 1
 299 463 l 1
 299 457 l 1
 311 457 l 1
 311 451 l 1
 323 451 l 1
 323 445 l 1
 322 445 322 445 328 445 c 1
 328 439 l 1
 334 439 l 1
 334 445 l 1
 340 445 l 1
 340 463 l 1
 388 463 l 1
 388 469 l 1
257 267 m 1
 257 273 l 1
 281 273 l 1
 281 279 l 1
 293 279 l 1
 293 284 l 1
 305 284 l 1
 305 290 l 1
 311 290 l 1
 311 314 l 1
 317 314 l 1
 317 362 l 1
 323 362 l 1
 323 398 l 1
 322 398 322 398 328 398 c 1
 328 404 l 1
 323 404 l 1
 323 410 l 1
 305 410 l 1
 305 416 l 1
 259 416 l 1
 257 416 l 1
 241 416 l 1
 241 410 l 1
 229 410 l 1
 229 404 l 1
 217 404 l 1
 217 398 l 1
 211 398 l 1
 211 392 l 1
 205 392 l 1
 205 380 l 1
 199 380 l 1
 199 362 l 1
 193 362 l 1
 193 302 l 1
 199 302 l 1
 199 284 l 1
 205 284 l 1
 205 279 l 1
 211 279 l 1
 211 273 l 1
 229 273 l 1
 229 267 l 1
 257 267 l 1
EndSplineSet
EndChar

StartChar: A
Encoding: 65 65 34
Width: 894
GlyphClass: 1
Flags: W
LayerCount: 2
Fore
SplineSet
565 257 m 1
 565 266 l 1
 556 266 l 1
 556 292 l 1
 547 292 l 1
 547 310 l 1
 538 310 l 1
 538 328 l 1
 530 328 l 1
 530 346 l 1
 521 346 l 1
 521 363 l 1
 512 363 l 1
 512 390 l 1
 503 390 l 1
 503 408 l 1
 494 408 l 1
 494 425 l 1
 485 425 l 1
 485 443 l 1
 476 443 l 1
 476 461 l 1
 468 461 l 1
 468 487 l 1
 459 487 l 1
 459 505 l 1
 450 505 l 1
 450 523 l 1
 441 523 l 1
 441 549 l 1
 432 549 l 1
 432 541 l 1
 423 541 l 1
 423 514 l 1
 414 514 l 1
 414 487 l 1
 406 487 l 1
 406 470 l 1
 397 470 l 1
 397 452 l 1
 388 452 l 1
 388 434 l 1
 379 434 l 1
 379 408 l 1
 370 408 l 1
 370 390 l 1
 361 390 l 1
 361 372 l 1
 352 372 l 1
 352 346 l 1
 344 346 l 1
 344 328 l 1
 335 328 l 1
 335 310 l 1
 326 310 l 1
 326 292 l 1
 317 292 l 1
 317 275 l 1
 308 275 l 1
 308 257 l 1
 565 257 l 1
344 700 m 1
 530 700 l 1
 530 673 l 1
 538 673 l 1
 538 656 l 1
 547 656 l 1
 547 638 l 1
 556 638 l 1
 556 611 l 1
 565 611 l 1
 565 594 l 1
 574 594 l 1
 574 567 l 1
 583 567 l 1
 583 549 l 1
 592 549 l 1
 592 532 l 1
 601 532 l 1
 601 505 l 1
 609 505 l 1
 609 487 l 1
 618 487 l 1
 618 470 l 1
 627 470 l 1
 627 443 l 1
 636 443 l 1
 636 425 l 1
 645 425 l 1
 645 408 l 1
 654 408 l 1
 654 390 l 1
 663 390 l 1
 663 363 l 1
 671 363 l 1
 671 346 l 1
 680 346 l 1
 680 328 l 1
 689 328 l 1
 689 310 l 1
 698 310 l 1
 698 292 l 1
 707 292 l 1
 707 266 l 1
 716 266 l 1
 716 248 l 1
 725 248 l 1
 725 230 l 1
 733 230 l 1
 733 213 l 1
 742 213 l 1
 742 186 l 1
 751 186 l 1
 751 168 l 1
 760 168 l 1
 760 151 l 1
 769 151 l 1
 769 133 l 1
 778 133 l 1
 778 106 l 1
 787 106 l 1
 787 89 l 1
 795 89 l 1
 795 71 l 1
 804 71 l 1
 804 53 l 1
 813 53 l 1
 813 35 l 1
 822 35 l 1
 822 18 l 1
 831 18 l 1
 831 0 l 1
 663 0 l 1
 663 27 l 1
 654 27 l 1
 654 44 l 1
 645 44 l 1
 645 71 l 1
 636 71 l 1
 636 97 l 1
 627 97 l 1
 627 115 l 1
 618 115 l 1
 618 142 l 1
 609 142 l 1
 609 159 l 1
 255 159 l 1
 255 142 l 1
 246 142 l 1
 246 115 l 1
 237 115 l 1
 237 97 l 1
 228 97 l 1
 228 71 l 1
 219 71 l 1
 219 53 l 1
 211 53 l 1
 211 27 l 1
 202 27 l 1
 202 9 l 1
 193 9 l 1
 193 0 l 1
 60 0 l 1
 60 9 l 1
 69 9 l 1
 69 27 l 1
 78 27 l 1
 78 44 l 1
 87 44 l 1
 87 71 l 1
 95 71 l 1
 95 89 l 1
 104 89 l 1
 104 106 l 1
 113 106 l 1
 113 124 l 1
 122 124 l 1
 122 151 l 1
 131 151 l 1
 131 168 l 1
 140 168 l 1
 140 186 l 1
 149 186 l 1
 149 204 l 1
 157 204 l 1
 157 222 l 1
 166 222 l 1
 166 248 l 1
 175 248 l 1
 175 266 l 1
 184 266 l 1
 184 284 l 1
 193 284 l 1
 193 301 l 1
 202 301 l 1
 202 319 l 1
 211 319 l 1
 211 346 l 1
 219 346 l 1
 219 363 l 1
 228 363 l 1
 228 381 l 1
 237 381 l 1
 237 399 l 1
 246 399 l 1
 246 425 l 1
 255 425 l 1
 255 443 l 1
 264 443 l 1
 264 461 l 1
 273 461 l 1
 273 478 l 1
 282 478 l 1
 282 496 l 1
 290 496 l 1
 290 523 l 1
 299 523 l 1
 299 541 l 1
 308 541 l 1
 308 558 l 1
 317 558 l 1
 317 576 l 1
 326 576 l 1
 326 603 l 1
 335 603 l 1
 335 620 l 1
 344 620 l 1
 344 638 l 1
 352 638 l 1
 352 673 l 1
 344 673 l 1
 344 700 l 1
EndSplineSet
EndChar

StartChar: B
Encoding: 66 66 35
Width: 804
GlyphClass: 1
Flags: W
LayerCount: 2
Fore
SplineSet
453 408 m 1
 453 416 l 1
 506 416 l 1
 506 425 l 1
 524 425 l 1
 524 434 l 1
 533 434 l 1
 533 443 l 1
 542 443 l 1
 542 452 l 1
 550 452 l 1
 550 478 l 1
 559 478 l 1
 559 532 l 1
 550 532 l 1
 550 558 l 1
 542 558 l 1
 542 567 l 1
 533 567 l 1
 533 576 l 1
 524 576 l 1
 524 585 l 1
 506 585 l 1
 506 594 l 1
 471 594 l 1
 471 603 l 1
 205 603 l 1
 205 408 l 1
 453 408 l 1
515 106 m 1
 515 115 l 1
 533 115 l 1
 533 124 l 1
 542 124 l 1
 542 133 l 1
 550 133 l 1
 550 142 l 1
 559 142 l 1
 559 151 l 1
 568 151 l 1
 568 168 l 1
 577 168 l 1
 577 195 l 1
 586 195 l 1
 586 248 l 1
 577 248 l 1
 577 266 l 1
 568 266 l 1
 568 275 l 1
 559 275 l 1
 559 284 l 1
 550 284 l 1
 550 292 l 1
 542 292 l 1
 542 301 l 1
 515 301 l 1
 515 310 l 1
 205 310 l 1
 205 106 l 1
 515 106 l 1
72 700 m 1
 533 700 l 1
 533 691 l 1
 577 691 l 1
 577 682 l 1
 595 682 l 1
 595 673 l 1
 613 673 l 1
 613 665 l 1
 630 665 l 1
 630 656 l 1
 639 656 l 1
 639 647 l 1
 648 647 l 1
 648 638 l 1
 657 638 l 1
 657 629 l 1
 666 629 l 1
 666 611 l 1
 675 611 l 1
 675 594 l 1
 683 594 l 1
 683 567 l 1
 692 567 l 1
 692 505 l 1
 683 505 l 1
 683 470 l 1
 675 470 l 1
 675 452 l 1
 666 452 l 1
 666 434 l 1
 657 434 l 1
 657 425 l 1
 648 425 l 1
 648 416 l 1
 639 416 l 1
 639 408 l 1
 630 408 l 1
 630 399 l 1
 613 399 l 1
 613 390 l 1
 604 390 l 1
 604 381 l 1
 595 381 l 1
 595 372 l 1
 604 372 l 1
 604 363 l 1
 621 363 l 1
 621 354 l 1
 639 354 l 1
 639 346 l 1
 648 346 l 1
 648 337 l 1
 666 337 l 1
 666 328 l 1
 675 328 l 1
 675 319 l 1
 683 319 l 1
 683 310 l 1
 692 310 l 1
 692 292 l 1
 701 292 l 1
 701 275 l 1
 710 275 l 1
 710 248 l 1
 719 248 l 1
 719 133 l 1
 710 133 l 1
 710 106 l 1
 701 106 l 1
 701 89 l 1
 692 89 l 1
 692 80 l 1
 683 80 l 1
 683 71 l 1
 675 71 l 1
 675 62 l 1
 666 62 l 1
 666 53 l 1
 657 53 l 1
 657 44 l 1
 639 44 l 1
 639 35 l 1
 630 35 l 1
 630 27 l 1
 604 27 l 1
 604 18 l 1
 568 18 l 1
 568 9 l 1
 497 9 l 1
 497 0 l 1
 72 0 l 1
 72 700 l 1
EndSplineSet
EndChar

StartChar: C
Encoding: 67 67 36
Width: 795
GlyphClass: 1
Flags: W
LayerCount: 2
Fore
SplineSet
686 145 m 1
 703 145 l 1
 703 34 l 1
 686 34 l 1
 686 26 l 1
 652 26 l 1
 652 17 l 1
 609 17 l 1
 609 9 l 1
 550 9 l 1
 550 0 l 1
 379 0 l 1
 379 9 l 1
 328 9 l 1
 328 17 l 1
 293 17 l 1
 293 26 l 1
 268 26 l 1
 268 34 l 1
 251 34 l 1
 251 43 l 1
 234 43 l 1
 234 51 l 1
 217 51 l 1
 217 60 l 1
 208 60 l 1
 208 68 l 1
 191 68 l 1
 191 77 l 1
 182 77 l 1
 182 85 l 1
 174 85 l 1
 174 94 l 1
 165 94 l 1
 165 102 l 1
 157 102 l 1
 157 111 l 1
 148 111 l 1
 148 128 l 1
 140 128 l 1
 140 137 l 1
 131 137 l 1
 131 154 l 1
 123 154 l 1
 123 171 l 1
 114 171 l 1
 114 188 l 1
 106 188 l 1
 106 205 l 1
 97 205 l 1
 97 239 l 1
 89 239 l 1
 89 299 l 1
 80 299 l 1
 80 401 l 1
 89 401 l 1
 89 452 l 1
 97 452 l 1
 97 487 l 1
 106 487 l 1
 106 512 l 1
 114 512 l 1
 114 529 l 1
 123 529 l 1
 123 546 l 1
 131 546 l 1
 131 555 l 1
 140 555 l 1
 140 572 l 1
 148 572 l 1
 148 580 l 1
 157 580 l 1
 157 589 l 1
 165 589 l 1
 165 598 l 1
 174 598 l 1
 174 606 l 1
 182 606 l 1
 182 615 l 1
 191 615 l 1
 191 623 l 1
 200 623 l 1
 200 632 l 1
 217 632 l 1
 217 640 l 1
 234 640 l 1
 234 649 l 1
 242 649 l 1
 242 657 l 1
 259 657 l 1
 259 666 l 1
 285 666 l 1
 285 674 l 1
 310 674 l 1
 310 683 l 1
 345 683 l 1
 345 691 l 1
 396 691 l 1
 396 700 l 1
 592 700 l 1
 592 691 l 1
 643 691 l 1
 643 683 l 1
 686 683 l 1
 686 674 l 1
 712 674 l 1
 712 555 l 1
 703 555 l 1
 703 563 l 1
 678 563 l 1
 678 572 l 1
 643 572 l 1
 643 580 l 1
 601 580 l 1
 601 589 l 1
 550 589 l 1
 550 598 l 1
 439 598 l 1
 439 589 l 1
 379 589 l 1
 379 580 l 1
 353 580 l 1
 353 572 l 1
 336 572 l 1
 336 563 l 1
 319 563 l 1
 319 555 l 1
 302 555 l 1
 302 546 l 1
 293 546 l 1
 293 538 l 1
 276 538 l 1
 276 529 l 1
 268 529 l 1
 268 512 l 1
 259 512 l 1
 259 504 l 1
 251 504 l 1
 251 487 l 1
 242 487 l 1
 242 470 l 1
 234 470 l 1
 234 452 l 1
 225 452 l 1
 225 410 l 1
 217 410 l 1
 217 290 l 1
 225 290 l 1
 225 248 l 1
 234 248 l 1
 234 222 l 1
 242 222 l 1
 242 205 l 1
 251 205 l 1
 251 196 l 1
 259 196 l 1
 259 179 l 1
 268 179 l 1
 268 171 l 1
 276 171 l 1
 276 162 l 1
 285 162 l 1
 285 154 l 1
 302 154 l 1
 302 145 l 1
 310 145 l 1
 310 137 l 1
 328 137 l 1
 328 128 l 1
 353 128 l 1
 353 120 l 1
 379 120 l 1
 379 111 l 1
 439 111 l 1
 439 102 l 1
 532 102 l 1
 532 111 l 1
 592 111 l 1
 592 120 l 1
 626 120 l 1
 626 128 l 1
 660 128 l 1
 660 137 l 1
 686 137 l 1
 686 145 l 1
EndSplineSet
EndChar

StartChar: D
Encoding: 68 68 37
Width: 875
GlyphClass: 1
Flags: W
LayerCount: 2
Fore
SplineSet
400 106 m 1
 400 115 l 1
 480 115 l 1
 480 124 l 1
 515 124 l 1
 515 133 l 1
 533 133 l 1
 533 142 l 1
 550 142 l 1
 550 151 l 1
 568 151 l 1
 568 159 l 1
 577 159 l 1
 577 168 l 1
 586 168 l 1
 586 177 l 1
 595 177 l 1
 595 186 l 1
 604 186 l 1
 604 195 l 1
 613 195 l 1
 613 204 l 1
 621 204 l 1
 621 222 l 1
 630 222 l 1
 630 248 l 1
 639 248 l 1
 639 284 l 1
 648 284 l 1
 648 416 l 1
 639 416 l 1
 639 461 l 1
 630 461 l 1
 630 478 l 1
 621 478 l 1
 621 496 l 1
 613 496 l 1
 613 514 l 1
 604 514 l 1
 604 523 l 1
 595 523 l 1
 595 532 l 1
 586 532 l 1
 586 541 l 1
 577 541 l 1
 577 549 l 1
 568 549 l 1
 568 558 l 1
 550 558 l 1
 550 567 l 1
 533 567 l 1
 533 576 l 1
 506 576 l 1
 506 585 l 1
 480 585 l 1
 480 594 l 1
 205 594 l 1
 205 115 l 1
 267 115 l 1
 267 106 l 1
 400 106 l 1
72 700 m 1
 506 700 l 1
 506 691 l 1
 550 691 l 1
 550 682 l 1
 577 682 l 1
 577 673 l 1
 604 673 l 1
 604 665 l 1
 621 665 l 1
 621 656 l 1
 639 656 l 1
 639 647 l 1
 657 647 l 1
 657 638 l 1
 675 638 l 1
 675 629 l 1
 683 629 l 1
 683 620 l 1
 692 620 l 1
 692 611 l 1
 701 611 l 1
 701 603 l 1
 710 603 l 1
 710 594 l 1
 719 594 l 1
 719 585 l 1
 728 585 l 1
 728 567 l 1
 737 567 l 1
 737 558 l 1
 745 558 l 1
 745 541 l 1
 754 541 l 1
 754 523 l 1
 763 523 l 1
 763 496 l 1
 772 496 l 1
 772 470 l 1
 781 470 l 1
 781 408 l 1
 790 408 l 1
 790 292 l 1
 781 292 l 1
 781 248 l 1
 772 248 l 1
 772 213 l 1
 763 213 l 1
 763 195 l 1
 754 195 l 1
 754 168 l 1
 745 168 l 1
 745 151 l 1
 737 151 l 1
 737 142 l 1
 728 142 l 1
 728 124 l 1
 719 124 l 1
 719 115 l 1
 710 115 l 1
 710 106 l 1
 701 106 l 1
 701 97 l 1
 692 97 l 1
 692 89 l 1
 683 89 l 1
 683 80 l 1
 666 80 l 1
 666 71 l 1
 657 71 l 1
 657 62 l 1
 639 62 l 1
 639 53 l 1
 621 53 l 1
 621 44 l 1
 604 44 l 1
 604 35 l 1
 577 35 l 1
 577 27 l 1
 550 27 l 1
 550 18 l 1
 497 18 l 1
 497 9 l 1
 400 9 l 1
 400 0 l 1
 72 0 l 1
 72 700 l 1
EndSplineSet
EndChar

StartChar: E
Encoding: 69 69 38
Width: 698
GlyphClass: 1
Flags: W
LayerCount: 2
Fore
SplineSet
72 700 m 1
 595 700 l 1
 595 594 l 1
 205 594 l 1
 205 408 l 1
 550 408 l 1
 550 310 l 1
 542 310 l 1
 542 301 l 1
 205 301 l 1
 205 106 l 1
 613 106 l 1
 613 0 l 1
 568 0 l 1
 568 9 l 1
 391 9 l 1
 391 0 l 1
 373 0 l 1
 373 9 l 1
 294 9 l 1
 294 0 l 1
 72 0 l 1
 72 700 l 1
EndSplineSet
EndChar

StartChar: F
Encoding: 70 70 39
Width: 671
GlyphClass: 1
Flags: W
LayerCount: 2
Fore
SplineSet
72 700 m 1
 586 700 l 1
 586 594 l 1
 214 594 l 1
 214 585 l 1
 214 390 l 1
 533 390 l 1
 533 284 l 1
 214 284 l 1
 214 0 l 1
 81 0 l 1
 81 9 l 1
 72 9 l 1
 72 18 l 1
 81 18 l 1
 81 691 l 1
 72 691 l 1
 72 700 l 1
EndSplineSet
EndChar

StartChar: G
Encoding: 71 71 40
Width: 829
GlyphClass: 1
Flags: W
LayerCount: 2
Fore
SplineSet
447 384 m 1
 746 384 l 1
 746 43 l 1
 729 43 l 1
 729 34 l 1
 703 34 l 1
 703 26 l 1
 669 26 l 1
 669 17 l 1
 618 17 l 1
 618 9 l 1
 567 9 l 1
 567 0 l 1
 379 0 l 1
 379 9 l 1
 328 9 l 1
 328 17 l 1
 302 17 l 1
 302 26 l 1
 276 26 l 1
 276 34 l 1
 259 34 l 1
 259 43 l 1
 242 43 l 1
 242 51 l 1
 225 51 l 1
 225 60 l 1
 208 60 l 1
 208 68 l 1
 200 68 l 1
 200 77 l 1
 191 77 l 1
 191 85 l 1
 182 85 l 1
 182 94 l 1
 174 94 l 1
 174 102 l 1
 165 102 l 1
 165 111 l 1
 157 111 l 1
 157 120 l 1
 148 120 l 1
 148 128 l 1
 140 128 l 1
 140 137 l 1
 131 137 l 1
 131 154 l 1
 123 154 l 1
 123 171 l 1
 114 171 l 1
 114 188 l 1
 106 188 l 1
 106 205 l 1
 97 205 l 1
 97 239 l 1
 89 239 l 1
 89 273 l 1
 80 273 l 1
 80 435 l 1
 89 435 l 1
 89 470 l 1
 97 470 l 1
 97 495 l 1
 106 495 l 1
 106 521 l 1
 114 521 l 1
 114 538 l 1
 123 538 l 1
 123 555 l 1
 131 555 l 1
 131 563 l 1
 140 563 l 1
 140 580 l 1
 148 580 l 1
 148 589 l 1
 157 589 l 1
 157 598 l 1
 165 598 l 1
 165 606 l 1
 174 606 l 1
 174 615 l 1
 182 615 l 1
 182 623 l 1
 191 623 l 1
 191 632 l 1
 208 632 l 1
 208 640 l 1
 217 640 l 1
 217 649 l 1
 234 649 l 1
 234 657 l 1
 251 657 l 1
 251 666 l 1
 268 666 l 1
 268 674 l 1
 293 674 l 1
 293 683 l 1
 328 683 l 1
 328 691 l 1
 370 691 l 1
 370 700 l 1
 592 700 l 1
 592 691 l 1
 635 691 l 1
 635 683 l 1
 678 683 l 1
 678 674 l 1
 712 674 l 1
 712 666 l 1
 729 666 l 1
 729 555 l 1
 712 555 l 1
 712 563 l 1
 678 563 l 1
 678 572 l 1
 652 572 l 1
 652 580 l 1
 609 580 l 1
 609 589 l 1
 558 589 l 1
 558 598 l 1
 413 598 l 1
 413 589 l 1
 370 589 l 1
 370 580 l 1
 345 580 l 1
 345 572 l 1
 319 572 l 1
 319 563 l 1
 310 563 l 1
 310 555 l 1
 293 555 l 1
 293 546 l 1
 285 546 l 1
 285 538 l 1
 276 538 l 1
 276 529 l 1
 268 529 l 1
 268 521 l 1
 259 521 l 1
 259 512 l 1
 251 512 l 1
 251 495 l 1
 242 495 l 1
 242 487 l 1
 234 487 l 1
 234 461 l 1
 225 461 l 1
 225 427 l 1
 217 427 l 1
 217 290 l 1
 225 290 l 1
 225 248 l 1
 234 248 l 1
 234 230 l 1
 242 230 l 1
 242 213 l 1
 251 213 l 1
 251 196 l 1
 259 196 l 1
 259 179 l 1
 268 179 l 1
 268 171 l 1
 276 171 l 1
 276 162 l 1
 285 162 l 1
 285 154 l 1
 293 154 l 1
 293 145 l 1
 310 145 l 1
 310 137 l 1
 328 137 l 1
 328 128 l 1
 345 128 l 1
 345 120 l 1
 370 120 l 1
 370 111 l 1
 413 111 l 1
 413 102 l 1
 541 102 l 1
 541 111 l 1
 584 111 l 1
 584 120 l 1
 609 120 l 1
 609 282 l 1
 447 282 l 1
 447 384 l 1
EndSplineSet
EndChar

StartChar: H
Encoding: 72 72 41
Width: 840
GlyphClass: 1
Flags: W
LayerCount: 2
Fore
SplineSet
613 700 m 1
 745 700 l 1
 745 18 l 1
 754 18 l 1
 754 9 l 1
 745 9 l 1
 745 0 l 1
 737 0 l 1
 737 9 l 1
 728 9 l 1
 728 0 l 1
 613 0 l 1
 613 301 l 1
 214 301 l 1
 214 0 l 1
 205 0 l 1
 205 9 l 1
 196 9 l 1
 196 0 l 1
 152 0 l 1
 152 9 l 1
 143 9 l 1
 143 0 l 1
 81 0 l 1
 81 9 l 1
 72 9 l 1
 72 700 l 1
 214 700 l 1
 214 408 l 1
 613 408 l 1
 613 700 l 1
EndSplineSet
EndChar

StartChar: I
Encoding: 73 73 42
Width: 520
GlyphClass: 1
Flags: W
LayerCount: 2
Fore
SplineSet
60 700 m 1
 202 700 l 1
 202 691 l 1
 193 691 l 1
 193 638 l 1
 202 638 l 1
 202 585 l 1
 193 585 l 1
 193 567 l 1
 202 567 l 1
 202 301 l 1
 193 301 l 1
 193 266 l 1
 202 266 l 1
 202 248 l 1
 193 248 l 1
 193 230 l 1
 202 230 l 1
 202 222 l 1
 193 222 l 1
 193 213 l 1
 202 213 l 1
 202 159 l 1
 193 159 l 1
 193 35 l 1
 202 35 l 1
 202 27 l 1
 193 27 l 1
 193 18 l 1
 202 18 l 1
 202 9 l 1
 193 9 l 1
 193 0 l 1
 69 0 l 1
 69 9 l 1
 60 9 l 1
 60 700 l 1
EndSplineSet
EndChar

StartChar: J
Encoding: 74 74 43
Width: 605
GlyphClass: 1
Flags: W
LayerCount: 2
Fore
SplineSet
60 158 m 1
 78 158 l 1
 78 149 l 1
 95 149 l 1
 95 140 l 1
 112 140 l 1
 112 131 l 1
 139 131 l 1
 139 122 l 1
 174 122 l 1
 174 114 l 1
 331 114 l 1
 331 122 l 1
 349 122 l 1
 349 131 l 1
 366 131 l 1
 366 140 l 1
 375 140 l 1
 375 149 l 1
 384 149 l 1
 384 158 l 1
 392 158 l 1
 392 184 l 1
 401 184 l 1
 401 210 l 1
 410 210 l 1
 410 700 l 1
 541 700 l 1
 541 184 l 1
 532 184 l 1
 532 149 l 1
 524 149 l 1
 524 122 l 1
 515 122 l 1
 515 105 l 1
 506 105 l 1
 506 88 l 1
 498 88 l 1
 498 79 l 1
 489 79 l 1
 489 70 l 1
 480 70 l 1
 480 61 l 1
 471 61 l 1
 471 52 l 1
 462 52 l 1
 462 44 l 1
 445 44 l 1
 445 35 l 1
 428 35 l 1
 428 26 l 1
 410 26 l 1
 410 18 l 1
 384 18 l 1
 384 9 l 1
 331 9 l 1
 331 0 l 1
 209 0 l 1
 209 9 l 1
 148 9 l 1
 148 18 l 1
 112 18 l 1
 112 26 l 1
 86 26 l 1
 86 35 l 1
 60 35 l 1
 60 158 l 1
EndSplineSet
EndChar

StartChar: K
Encoding: 75 75 44
Width: 822
GlyphClass: 1
Flags: W
LayerCount: 2
Fore
SplineSet
550 700 m 1
 728 700 l 1
 728 691 l 1
 719 691 l 1
 719 682 l 1
 710 682 l 1
 710 673 l 1
 701 673 l 1
 701 665 l 1
 683 665 l 1
 683 656 l 1
 675 656 l 1
 675 647 l 1
 666 647 l 1
 666 638 l 1
 657 638 l 1
 657 629 l 1
 639 629 l 1
 639 620 l 1
 630 620 l 1
 630 611 l 1
 621 611 l 1
 621 603 l 1
 613 603 l 1
 613 594 l 1
 595 594 l 1
 595 585 l 1
 586 585 l 1
 586 576 l 1
 577 576 l 1
 577 567 l 1
 568 567 l 1
 568 558 l 1
 559 558 l 1
 559 549 l 1
 550 549 l 1
 550 541 l 1
 533 541 l 1
 533 532 l 1
 524 532 l 1
 524 523 l 1
 515 523 l 1
 515 514 l 1
 506 514 l 1
 506 505 l 1
 497 505 l 1
 497 496 l 1
 488 496 l 1
 488 487 l 1
 471 487 l 1
 471 478 l 1
 462 478 l 1
 462 470 l 1
 453 470 l 1
 453 461 l 1
 444 461 l 1
 444 452 l 1
 426 452 l 1
 426 443 l 1
 418 443 l 1
 418 434 l 1
 409 434 l 1
 409 425 l 1
 400 425 l 1
 400 416 l 1
 391 416 l 1
 391 408 l 1
 382 408 l 1
 382 390 l 1
 391 390 l 1
 391 381 l 1
 400 381 l 1
 400 372 l 1
 409 372 l 1
 409 363 l 1
 418 363 l 1
 418 354 l 1
 426 354 l 1
 426 337 l 1
 435 337 l 1
 435 328 l 1
 444 328 l 1
 444 319 l 1
 453 319 l 1
 453 310 l 1
 462 310 l 1
 462 301 l 1
 471 301 l 1
 471 292 l 1
 480 292 l 1
 480 284 l 1
 488 284 l 1
 488 275 l 1
 497 275 l 1
 497 266 l 1
 506 266 l 1
 506 257 l 1
 515 257 l 1
 515 248 l 1
 524 248 l 1
 524 239 l 1
 533 239 l 1
 533 230 l 1
 542 230 l 1
 542 222 l 1
 550 222 l 1
 550 204 l 1
 559 204 l 1
 559 195 l 1
 568 195 l 1
 568 186 l 1
 577 186 l 1
 577 177 l 1
 586 177 l 1
 586 168 l 1
 595 168 l 1
 595 159 l 1
 604 159 l 1
 604 151 l 1
 613 151 l 1
 613 142 l 1
 621 142 l 1
 621 133 l 1
 630 133 l 1
 630 124 l 1
 639 124 l 1
 639 115 l 1
 648 115 l 1
 648 106 l 1
 657 106 l 1
 657 97 l 1
 666 97 l 1
 666 89 l 1
 675 89 l 1
 675 80 l 1
 683 80 l 1
 683 62 l 1
 692 62 l 1
 692 53 l 1
 701 53 l 1
 701 44 l 1
 710 44 l 1
 710 35 l 1
 719 35 l 1
 719 27 l 1
 728 27 l 1
 728 18 l 1
 737 18 l 1
 737 0 l 1
 728 0 l 1
 728 9 l 1
 710 9 l 1
 710 0 l 1
 675 0 l 1
 675 9 l 1
 666 9 l 1
 666 0 l 1
 577 0 l 1
 577 9 l 1
 559 9 l 1
 559 27 l 1
 550 27 l 1
 550 35 l 1
 542 35 l 1
 542 44 l 1
 533 44 l 1
 533 53 l 1
 524 53 l 1
 524 62 l 1
 515 62 l 1
 515 71 l 1
 506 71 l 1
 506 80 l 1
 497 80 l 1
 497 89 l 1
 488 89 l 1
 488 97 l 1
 480 97 l 1
 480 106 l 1
 471 106 l 1
 471 124 l 1
 462 124 l 1
 462 133 l 1
 453 133 l 1
 453 142 l 1
 444 142 l 1
 444 151 l 1
 435 151 l 1
 435 159 l 1
 426 159 l 1
 426 168 l 1
 418 168 l 1
 418 177 l 1
 409 177 l 1
 409 186 l 1
 400 186 l 1
 400 195 l 1
 391 195 l 1
 391 204 l 1
 382 204 l 1
 382 213 l 1
 373 213 l 1
 373 222 l 1
 364 222 l 1
 364 230 l 1
 356 230 l 1
 356 248 l 1
 347 248 l 1
 347 257 l 1
 338 257 l 1
 338 266 l 1
 329 266 l 1
 329 275 l 1
 320 275 l 1
 320 284 l 1
 311 284 l 1
 311 292 l 1
 302 292 l 1
 302 301 l 1
 294 301 l 1
 294 310 l 1
 285 310 l 1
 285 319 l 1
 276 319 l 1
 276 310 l 1
 267 310 l 1
 267 301 l 1
 258 301 l 1
 258 292 l 1
 249 292 l 1
 249 284 l 1
 231 284 l 1
 231 275 l 1
 223 275 l 1
 223 266 l 1
 214 266 l 1
 214 0 l 1
 72 0 l 1
 72 700 l 1
 214 700 l 1
 214 416 l 1
 223 416 l 1
 223 425 l 1
 240 425 l 1
 240 434 l 1
 249 434 l 1
 249 443 l 1
 258 443 l 1
 258 452 l 1
 267 452 l 1
 267 461 l 1
 276 461 l 1
 276 470 l 1
 285 470 l 1
 285 478 l 1
 302 478 l 1
 302 487 l 1
 311 487 l 1
 311 496 l 1
 320 496 l 1
 320 505 l 1
 329 505 l 1
 329 514 l 1
 338 514 l 1
 338 523 l 1
 356 523 l 1
 356 532 l 1
 364 532 l 1
 364 541 l 1
 373 541 l 1
 373 549 l 1
 382 549 l 1
 382 558 l 1
 391 558 l 1
 391 567 l 1
 409 567 l 1
 409 576 l 1
 418 576 l 1
 418 585 l 1
 426 585 l 1
 426 594 l 1
 435 594 l 1
 435 603 l 1
 444 603 l 1
 444 611 l 1
 453 611 l 1
 453 620 l 1
 462 620 l 1
 462 629 l 1
 480 629 l 1
 480 638 l 1
 488 638 l 1
 488 647 l 1
 497 647 l 1
 497 656 l 1
 506 656 l 1
 506 665 l 1
 515 665 l 1
 515 673 l 1
 533 673 l 1
 533 682 l 1
 542 682 l 1
 542 691 l 1
 550 691 l 1
 550 700 l 1
EndSplineSet
EndChar

StartChar: L
Encoding: 76 76 45
Width: 646
GlyphClass: 1
Flags: W
LayerCount: 2
Fore
SplineSet
60 700 m 1
 193 700 l 1
 193 115 l 1
 574 115 l 1
 574 106 l 1
 583 106 l 1
 583 97 l 1
 574 97 l 1
 574 89 l 1
 583 89 l 1
 583 27 l 1
 574 27 l 1
 574 18 l 1
 583 18 l 1
 583 9 l 1
 574 9 l 1
 574 0 l 1
 565 0 l 1
 565 9 l 1
 556 9 l 1
 556 0 l 1
 423 0 l 1
 423 9 l 1
 104 9 l 1
 104 0 l 1
 60 0 l 1
 60 700 l 1
EndSplineSet
EndChar

StartChar: M
Encoding: 77 77 46
Width: 1126
GlyphClass: 1
Flags: W
LayerCount: 2
Fore
SplineSet
767 700 m 1
 956 700 l 1
 956 673 l 1
 964 673 l 1
 964 592 l 1
 973 592 l 1
 973 494 l 1
 982 494 l 1
 982 422 l 1
 991 422 l 1
 991 341 l 1
 1000 341 l 1
 1000 269 l 1
 1009 269 l 1
 1009 197 l 1
 1018 197 l 1
 1018 126 l 1
 1027 126 l 1
 1027 54 l 1
 1036 54 l 1
 1036 0 l 1
 893 0 l 1
 893 63 l 1
 884 63 l 1
 884 144 l 1
 875 144 l 1
 875 233 l 1
 866 233 l 1
 866 314 l 1
 857 314 l 1
 857 404 l 1
 848 404 l 1
 848 476 l 1
 839 476 l 1
 839 574 l 1
 830 574 l 1
 830 547 l 1
 821 547 l 1
 821 529 l 1
 812 529 l 1
 812 503 l 1
 803 503 l 1
 803 476 l 1
 794 476 l 1
 794 458 l 1
 785 458 l 1
 785 431 l 1
 776 431 l 1
 776 413 l 1
 767 413 l 1
 767 386 l 1
 758 386 l 1
 758 368 l 1
 749 368 l 1
 749 341 l 1
 740 341 l 1
 740 323 l 1
 731 323 l 1
 731 296 l 1
 722 296 l 1
 722 269 l 1
 713 269 l 1
 713 251 l 1
 704 251 l 1
 704 224 l 1
 695 224 l 1
 695 197 l 1
 686 197 l 1
 686 179 l 1
 677 179 l 1
 677 153 l 1
 668 153 l 1
 668 126 l 1
 659 126 l 1
 659 108 l 1
 650 108 l 1
 650 81 l 1
 641 81 l 1
 641 54 l 1
 632 54 l 1
 632 36 l 1
 623 36 l 1
 623 9 l 1
 614 9 l 1
 614 0 l 1
 507 0 l 1
 507 18 l 1
 498 18 l 1
 498 45 l 1
 489 45 l 1
 489 63 l 1
 480 63 l 1
 480 90 l 1
 471 90 l 1
 471 108 l 1
 462 108 l 1
 462 135 l 1
 453 135 l 1
 453 153 l 1
 444 153 l 1
 444 179 l 1
 435 179 l 1
 435 197 l 1
 426 197 l 1
 426 215 l 1
 417 215 l 1
 417 242 l 1
 408 242 l 1
 408 260 l 1
 399 260 l 1
 399 287 l 1
 390 287 l 1
 390 305 l 1
 381 305 l 1
 381 332 l 1
 372 332 l 1
 372 350 l 1
 363 350 l 1
 363 368 l 1
 354 368 l 1
 354 395 l 1
 345 395 l 1
 345 413 l 1
 336 413 l 1
 336 431 l 1
 327 431 l 1
 327 458 l 1
 318 458 l 1
 318 476 l 1
 309 476 l 1
 309 503 l 1
 300 503 l 1
 300 521 l 1
 291 521 l 1
 291 538 l 1
 282 538 l 1
 282 547 l 1
 273 547 l 1
 273 476 l 1
 264 476 l 1
 264 422 l 1
 256 422 l 1
 256 359 l 1
 247 359 l 1
 247 305 l 1
 238 305 l 1
 238 233 l 1
 229 233 l 1
 229 162 l 1
 220 162 l 1
 220 108 l 1
 211 108 l 1
 211 45 l 1
 202 45 l 1
 202 0 l 1
 85 0 l 1
 85 45 l 1
 94 45 l 1
 94 99 l 1
 103 99 l 1
 103 153 l 1
 112 153 l 1
 112 215 l 1
 121 215 l 1
 121 269 l 1
 130 269 l 1
 130 323 l 1
 139 323 l 1
 139 377 l 1
 148 377 l 1
 148 431 l 1
 157 431 l 1
 157 485 l 1
 166 485 l 1
 166 538 l 1
 175 538 l 1
 175 601 l 1
 184 601 l 1
 184 673 l 1
 175 673 l 1
 175 700 l 1
 363 700 l 1
 363 682 l 1
 372 682 l 1
 372 655 l 1
 381 655 l 1
 381 637 l 1
 390 637 l 1
 390 610 l 1
 399 610 l 1
 399 592 l 1
 408 592 l 1
 408 574 l 1
 417 574 l 1
 417 547 l 1
 426 547 l 1
 426 529 l 1
 435 529 l 1
 435 503 l 1
 444 503 l 1
 444 485 l 1
 453 485 l 1
 453 467 l 1
 462 467 l 1
 462 440 l 1
 471 440 l 1
 471 422 l 1
 480 422 l 1
 480 395 l 1
 489 395 l 1
 489 377 l 1
 498 377 l 1
 498 359 l 1
 507 359 l 1
 507 332 l 1
 516 332 l 1
 516 314 l 1
 525 314 l 1
 525 287 l 1
 534 287 l 1
 534 269 l 1
 543 269 l 1
 543 242 l 1
 552 242 l 1
 552 215 l 1
 561 215 l 1
 561 197 l 1
 570 197 l 1
 570 188 l 1
 579 188 l 1
 579 215 l 1
 588 215 l 1
 588 233 l 1
 597 233 l 1
 597 260 l 1
 606 260 l 1
 606 278 l 1
 614 278 l 1
 614 305 l 1
 623 305 l 1
 623 323 l 1
 632 323 l 1
 632 350 l 1
 641 350 l 1
 641 377 l 1
 650 377 l 1
 650 395 l 1
 659 395 l 1
 659 422 l 1
 668 422 l 1
 668 440 l 1
 677 440 l 1
 677 467 l 1
 686 467 l 1
 686 485 l 1
 695 485 l 1
 695 512 l 1
 704 512 l 1
 704 538 l 1
 713 538 l 1
 713 556 l 1
 722 556 l 1
 722 583 l 1
 731 583 l 1
 731 610 l 1
 740 610 l 1
 740 628 l 1
 749 628 l 1
 749 655 l 1
 758 655 l 1
 758 682 l 1
 767 682 l 1
 767 700 l 1
EndSplineSet
EndChar

StartChar: N
Encoding: 78 78 47
Width: 804
GlyphClass: 1
Flags: W
LayerCount: 2
Fore
SplineSet
595 700 m 1
 719 700 l 1
 719 0 l 1
 710 0 l 1
 710 9 l 1
 586 9 l 1
 586 27 l 1
 577 27 l 1
 577 35 l 1
 568 35 l 1
 568 44 l 1
 559 44 l 1
 559 53 l 1
 550 53 l 1
 550 62 l 1
 542 62 l 1
 542 80 l 1
 533 80 l 1
 533 89 l 1
 524 89 l 1
 524 97 l 1
 515 97 l 1
 515 106 l 1
 506 106 l 1
 506 124 l 1
 497 124 l 1
 497 133 l 1
 488 133 l 1
 488 142 l 1
 480 142 l 1
 480 151 l 1
 471 151 l 1
 471 168 l 1
 462 168 l 1
 462 177 l 1
 453 177 l 1
 453 186 l 1
 444 186 l 1
 444 195 l 1
 435 195 l 1
 435 213 l 1
 426 213 l 1
 426 222 l 1
 418 222 l 1
 418 230 l 1
 409 230 l 1
 409 239 l 1
 400 239 l 1
 400 257 l 1
 391 257 l 1
 391 266 l 1
 382 266 l 1
 382 275 l 1
 373 275 l 1
 373 284 l 1
 364 284 l 1
 364 301 l 1
 356 301 l 1
 356 310 l 1
 347 310 l 1
 347 319 l 1
 338 319 l 1
 338 328 l 1
 329 328 l 1
 329 346 l 1
 320 346 l 1
 320 354 l 1
 311 354 l 1
 311 363 l 1
 302 363 l 1
 302 372 l 1
 294 372 l 1
 294 381 l 1
 285 381 l 1
 285 399 l 1
 276 399 l 1
 276 408 l 1
 267 408 l 1
 267 416 l 1
 258 416 l 1
 258 425 l 1
 249 425 l 1
 249 443 l 1
 240 443 l 1
 240 452 l 1
 231 452 l 1
 231 461 l 1
 223 461 l 1
 223 478 l 1
 214 478 l 1
 214 487 l 1
 205 487 l 1
 205 496 l 1
 196 496 l 1
 196 505 l 1
 187 505 l 1
 187 487 l 1
 196 487 l 1
 196 425 l 1
 187 425 l 1
 187 18 l 1
 196 18 l 1
 196 9 l 1
 187 9 l 1
 187 0 l 1
 178 0 l 1
 178 9 l 1
 125 9 l 1
 125 0 l 1
 99 0 l 1
 99 9 l 1
 90 9 l 1
 90 0 l 1
 72 0 l 1
 72 700 l 1
 214 700 l 1
 214 691 l 1
 223 691 l 1
 223 682 l 1
 231 682 l 1
 231 673 l 1
 240 673 l 1
 240 665 l 1
 249 665 l 1
 249 647 l 1
 258 647 l 1
 258 638 l 1
 267 638 l 1
 267 629 l 1
 276 629 l 1
 276 611 l 1
 285 611 l 1
 285 603 l 1
 294 603 l 1
 294 594 l 1
 302 594 l 1
 302 585 l 1
 311 585 l 1
 311 567 l 1
 320 567 l 1
 320 558 l 1
 329 558 l 1
 329 549 l 1
 338 549 l 1
 338 532 l 1
 347 532 l 1
 347 523 l 1
 356 523 l 1
 356 514 l 1
 364 514 l 1
 364 505 l 1
 373 505 l 1
 373 487 l 1
 382 487 l 1
 382 478 l 1
 391 478 l 1
 391 470 l 1
 400 470 l 1
 400 452 l 1
 409 452 l 1
 409 443 l 1
 418 443 l 1
 418 434 l 1
 426 434 l 1
 426 425 l 1
 435 425 l 1
 435 408 l 1
 444 408 l 1
 444 399 l 1
 453 399 l 1
 453 390 l 1
 462 390 l 1
 462 381 l 1
 471 381 l 1
 471 363 l 1
 480 363 l 1
 480 354 l 1
 488 354 l 1
 488 346 l 1
 497 346 l 1
 497 337 l 1
 506 337 l 1
 506 319 l 1
 515 319 l 1
 515 310 l 1
 524 310 l 1
 524 301 l 1
 533 301 l 1
 533 292 l 1
 542 292 l 1
 542 275 l 1
 550 275 l 1
 550 266 l 1
 559 266 l 1
 559 257 l 1
 568 257 l 1
 568 248 l 1
 577 248 l 1
 577 230 l 1
 586 230 l 1
 586 222 l 1
 595 222 l 1
 595 700 l 1
595 222 m 1
 595 213 l 1
 604 213 l 1
 604 222 l 1
 595 222 l 1
EndSplineSet
EndChar

StartChar: O
Encoding: 79 79 48
Width: 915
GlyphClass: 1
Flags: W
LayerCount: 2
Fore
SplineSet
521 104 m 1
 521 112 l 1
 555 112 l 1
 555 121 l 1
 581 121 l 1
 581 130 l 1
 590 130 l 1
 590 138 l 1
 607 138 l 1
 607 147 l 1
 616 147 l 1
 616 156 l 1
 633 156 l 1
 633 164 l 1
 642 164 l 1
 642 181 l 1
 650 181 l 1
 650 190 l 1
 659 190 l 1
 659 207 l 1
 668 207 l 1
 668 225 l 1
 676 225 l 1
 676 242 l 1
 685 242 l 1
 685 285 l 1
 694 285 l 1
 694 406 l 1
 685 406 l 1
 685 441 l 1
 676 441 l 1
 676 467 l 1
 668 467 l 1
 668 493 l 1
 659 493 l 1
 659 501 l 1
 650 501 l 1
 650 519 l 1
 642 519 l 1
 642 527 l 1
 633 527 l 1
 633 536 l 1
 624 536 l 1
 624 544 l 1
 616 544 l 1
 616 553 l 1
 607 553 l 1
 607 562 l 1
 599 562 l 1
 599 570 l 1
 581 570 l 1
 581 579 l 1
 555 579 l 1
 555 588 l 1
 521 588 l 1
 521 596 l 1
 391 596 l 1
 391 588 l 1
 348 588 l 1
 348 579 l 1
 331 579 l 1
 331 570 l 1
 313 570 l 1
 313 562 l 1
 296 562 l 1
 296 553 l 1
 287 553 l 1
 287 544 l 1
 279 544 l 1
 279 536 l 1
 270 536 l 1
 270 527 l 1
 261 527 l 1
 261 510 l 1
 253 510 l 1
 253 493 l 1
 244 493 l 1
 244 475 l 1
 236 475 l 1
 236 449 l 1
 227 449 l 1
 227 415 l 1
 218 415 l 1
 218 285 l 1
 227 285 l 1
 227 242 l 1
 236 242 l 1
 236 225 l 1
 244 225 l 1
 244 199 l 1
 253 199 l 1
 253 190 l 1
 261 190 l 1
 261 173 l 1
 270 173 l 1
 270 164 l 1
 279 164 l 1
 279 156 l 1
 287 156 l 1
 287 147 l 1
 296 147 l 1
 296 138 l 1
 313 138 l 1
 313 130 l 1
 331 130 l 1
 331 121 l 1
 348 121 l 1
 348 112 l 1
 382 112 l 1
 382 104 l 1
 521 104 l 1
365 700 m 1
 555 700 l 1
 555 691 l 1
 590 691 l 1
 590 683 l 1
 616 683 l 1
 616 674 l 1
 642 674 l 1
 642 665 l 1
 659 665 l 1
 659 657 l 1
 676 657 l 1
 676 648 l 1
 685 648 l 1
 685 640 l 1
 702 640 l 1
 702 631 l 1
 711 631 l 1
 711 622 l 1
 720 622 l 1
 720 614 l 1
 728 614 l 1
 728 605 l 1
 737 605 l 1
 737 596 l 1
 745 596 l 1
 745 588 l 1
 754 588 l 1
 754 579 l 1
 763 579 l 1
 763 570 l 1
 771 570 l 1
 771 553 l 1
 780 553 l 1
 780 544 l 1
 789 544 l 1
 789 527 l 1
 797 527 l 1
 797 501 l 1
 806 501 l 1
 806 484 l 1
 815 484 l 1
 815 449 l 1
 823 449 l 1
 823 406 l 1
 832 406 l 1
 832 294 l 1
 823 294 l 1
 823 242 l 1
 815 242 l 1
 815 216 l 1
 806 216 l 1
 806 190 l 1
 797 190 l 1
 797 173 l 1
 789 173 l 1
 789 156 l 1
 780 156 l 1
 780 147 l 1
 771 147 l 1
 771 130 l 1
 763 130 l 1
 763 121 l 1
 754 121 l 1
 754 112 l 1
 745 112 l 1
 745 104 l 1
 737 104 l 1
 737 95 l 1
 728 95 l 1
 728 86 l 1
 720 86 l 1
 720 78 l 1
 711 78 l 1
 711 69 l 1
 702 69 l 1
 702 60 l 1
 685 60 l 1
 685 52 l 1
 668 52 l 1
 668 43 l 1
 650 43 l 1
 650 35 l 1
 633 35 l 1
 633 26 l 1
 607 26 l 1
 607 17 l 1
 573 17 l 1
 573 9 l 1
 512 9 l 1
 512 0 l 1
 374 0 l 1
 374 9 l 1
 331 9 l 1
 331 17 l 1
 296 17 l 1
 296 26 l 1
 270 26 l 1
 270 35 l 1
 253 35 l 1
 253 43 l 1
 236 43 l 1
 236 52 l 1
 218 52 l 1
 218 60 l 1
 210 60 l 1
 210 69 l 1
 192 69 l 1
 192 78 l 1
 184 78 l 1
 184 86 l 1
 175 86 l 1
 175 95 l 1
 166 95 l 1
 166 104 l 1
 158 104 l 1
 158 112 l 1
 149 112 l 1
 149 121 l 1
 140 121 l 1
 140 138 l 1
 132 138 l 1
 132 156 l 1
 123 156 l 1
 123 164 l 1
 115 164 l 1
 115 181 l 1
 106 181 l 1
 106 207 l 1
 97 207 l 1
 97 233 l 1
 89 233 l 1
 89 277 l 1
 80 277 l 1
 80 432 l 1
 89 432 l 1
 89 467 l 1
 97 467 l 1
 97 493 l 1
 106 493 l 1
 106 519 l 1
 115 519 l 1
 115 536 l 1
 123 536 l 1
 123 553 l 1
 132 553 l 1
 132 562 l 1
 140 562 l 1
 140 579 l 1
 149 579 l 1
 149 588 l 1
 158 588 l 1
 158 596 l 1
 166 596 l 1
 166 605 l 1
 175 605 l 1
 175 614 l 1
 184 614 l 1
 184 622 l 1
 192 622 l 1
 192 631 l 1
 201 631 l 1
 201 640 l 1
 218 640 l 1
 218 648 l 1
 236 648 l 1
 236 657 l 1
 244 657 l 1
 244 665 l 1
 270 665 l 1
 270 674 l 1
 296 674 l 1
 296 683 l 1
 322 683 l 1
 322 691 l 1
 365 691 l 1
 365 700 l 1
EndSplineSet
EndChar

StartChar: P
Encoding: 80 80 49
Width: 760
GlyphClass: 1
Flags: W
LayerCount: 2
Fore
SplineSet
444 346 m 1
 444 354 l 1
 471 354 l 1
 471 363 l 1
 488 363 l 1
 488 372 l 1
 506 372 l 1
 506 381 l 1
 515 381 l 1
 515 390 l 1
 524 390 l 1
 524 408 l 1
 533 408 l 1
 533 514 l 1
 524 514 l 1
 524 532 l 1
 515 532 l 1
 515 549 l 1
 506 549 l 1
 506 558 l 1
 497 558 l 1
 497 567 l 1
 480 567 l 1
 480 576 l 1
 462 576 l 1
 462 585 l 1
 418 585 l 1
 418 594 l 1
 214 594 l 1
 214 346 l 1
 444 346 l 1
81 700 m 1
 471 700 l 1
 471 691 l 1
 515 691 l 1
 515 682 l 1
 542 682 l 1
 542 673 l 1
 559 673 l 1
 559 665 l 1
 577 665 l 1
 577 656 l 1
 586 656 l 1
 586 647 l 1
 595 647 l 1
 595 638 l 1
 613 638 l 1
 613 629 l 1
 621 629 l 1
 621 620 l 1
 630 620 l 1
 630 603 l 1
 639 603 l 1
 639 594 l 1
 648 594 l 1
 648 576 l 1
 657 576 l 1
 657 549 l 1
 666 549 l 1
 666 523 l 1
 675 523 l 1
 675 416 l 1
 666 416 l 1
 666 381 l 1
 657 381 l 1
 657 363 l 1
 648 363 l 1
 648 346 l 1
 639 346 l 1
 639 328 l 1
 630 328 l 1
 630 319 l 1
 621 319 l 1
 621 310 l 1
 613 310 l 1
 613 301 l 1
 604 301 l 1
 604 292 l 1
 595 292 l 1
 595 284 l 1
 577 284 l 1
 577 275 l 1
 559 275 l 1
 559 266 l 1
 542 266 l 1
 542 257 l 1
 515 257 l 1
 515 248 l 1
 480 248 l 1
 480 239 l 1
 214 239 l 1
 214 9 l 1
 90 9 l 1
 90 0 l 1
 81 0 l 1
 81 9 l 1
 72 9 l 1
 72 18 l 1
 81 18 l 1
 81 682 l 1
 72 682 l 1
 72 691 l 1
 81 691 l 1
 81 700 l 1
EndSplineSet
EndChar

StartChar: Q
Encoding: 81 81 50
Width: 872
GlyphClass: 1
Flags: W
LayerCount: 2
Fore
SplineSet
349 700 m 1
 511 700 l 1
 511 692 l 1
 552 692 l 1
 552 684 l 1
 585 684 l 1
 585 676 l 1
 601 676 l 1
 601 667 l 1
 625 667 l 1
 625 659 l 1
 633 659 l 1
 633 651 l 1
 650 651 l 1
 650 643 l 1
 658 643 l 1
 658 635 l 1
 674 635 l 1
 674 627 l 1
 682 627 l 1
 682 619 l 1
 690 619 l 1
 690 610 l 1
 699 610 l 1
 699 602 l 1
 707 602 l 1
 707 594 l 1
 715 594 l 1
 715 586 l 1
 723 586 l 1
 723 570 l 1
 731 570 l 1
 731 562 l 1
 739 562 l 1
 739 545 l 1
 747 545 l 1
 747 529 l 1
 756 529 l 1
 756 513 l 1
 764 513 l 1
 764 488 l 1
 772 488 l 1
 772 456 l 1
 780 456 l 1
 780 391 l 1
 788 391 l 1
 788 350 l 1
 780 350 l 1
 780 285 l 1
 772 285 l 1
 772 252 l 1
 764 252 l 1
 764 236 l 1
 756 236 l 1
 756 220 l 1
 747 220 l 1
 747 203 l 1
 739 203 l 1
 739 187 l 1
 731 187 l 1
 731 171 l 1
 723 171 l 1
 723 163 l 1
 715 163 l 1
 715 155 l 1
 707 155 l 1
 707 147 l 1
 699 147 l 1
 699 138 l 1
 690 138 l 1
 690 130 l 1
 682 130 l 1
 682 122 l 1
 674 122 l 1
 674 114 l 1
 682 114 l 1
 682 106 l 1
 690 106 l 1
 690 98 l 1
 699 98 l 1
 699 90 l 1
 715 90 l 1
 715 81 l 1
 723 81 l 1
 723 73 l 1
 731 73 l 1
 731 65 l 1
 739 65 l 1
 739 57 l 1
 747 57 l 1
 747 49 l 1
 756 49 l 1
 756 41 l 1
 764 41 l 1
 764 33 l 1
 772 33 l 1
 772 24 l 1
 780 24 l 1
 780 16 l 1
 747 16 l 1
 747 8 l 1
 707 8 l 1
 707 0 l 1
 625 0 l 1
 625 8 l 1
 617 8 l 1
 617 16 l 1
 609 16 l 1
 609 24 l 1
 601 24 l 1
 601 33 l 1
 593 33 l 1
 593 49 l 1
 585 49 l 1
 585 57 l 1
 577 57 l 1
 577 65 l 1
 568 65 l 1
 568 57 l 1
 536 57 l 1
 536 49 l 1
 495 49 l 1
 495 41 l 1
 365 41 l 1
 365 49 l 1
 316 49 l 1
 316 57 l 1
 292 57 l 1
 292 65 l 1
 267 65 l 1
 267 73 l 1
 251 73 l 1
 251 81 l 1
 235 81 l 1
 235 90 l 1
 218 90 l 1
 218 98 l 1
 210 98 l 1
 210 106 l 1
 194 106 l 1
 194 114 l 1
 186 114 l 1
 186 122 l 1
 178 122 l 1
 178 130 l 1
 170 130 l 1
 170 138 l 1
 161 138 l 1
 161 147 l 1
 153 147 l 1
 153 155 l 1
 145 155 l 1
 145 163 l 1
 137 163 l 1
 137 179 l 1
 129 179 l 1
 129 187 l 1
 121 187 l 1
 121 203 l 1
 113 203 l 1
 113 220 l 1
 104 220 l 1
 104 244 l 1
 96 244 l 1
 96 269 l 1
 88 269 l 1
 88 309 l 1
 80 309 l 1
 80 448 l 1
 88 448 l 1
 88 480 l 1
 96 480 l 1
 96 505 l 1
 104 505 l 1
 104 529 l 1
 113 529 l 1
 113 545 l 1
 121 545 l 1
 121 553 l 1
 129 553 l 1
 129 570 l 1
 137 570 l 1
 137 586 l 1
 145 586 l 1
 145 594 l 1
 153 594 l 1
 153 602 l 1
 161 602 l 1
 161 610 l 1
 170 610 l 1
 170 619 l 1
 178 619 l 1
 178 627 l 1
 186 627 l 1
 186 635 l 1
 194 635 l 1
 194 643 l 1
 210 643 l 1
 210 651 l 1
 218 651 l 1
 218 659 l 1
 235 659 l 1
 235 667 l 1
 251 667 l 1
 251 676 l 1
 275 676 l 1
 275 684 l 1
 308 684 l 1
 308 692 l 1
 349 692 l 1
 349 700 l 1
414 293 m 1
 422 293 l 1
 422 285 l 1
 430 285 l 1
 430 277 l 1
 446 277 l 1
 446 269 l 1
 463 269 l 1
 463 260 l 1
 479 260 l 1
 479 252 l 1
 495 252 l 1
 495 244 l 1
 503 244 l 1
 503 236 l 1
 520 236 l 1
 520 228 l 1
 536 228 l 1
 536 220 l 1
 544 220 l 1
 544 212 l 1
 560 212 l 1
 560 203 l 1
 568 203 l 1
 568 195 l 1
 585 195 l 1
 585 187 l 1
 593 187 l 1
 593 195 l 1
 601 195 l 1
 601 203 l 1
 609 203 l 1
 609 212 l 1
 617 212 l 1
 617 228 l 1
 625 228 l 1
 625 236 l 1
 633 236 l 1
 633 252 l 1
 642 252 l 1
 642 277 l 1
 650 277 l 1
 650 317 l 1
 658 317 l 1
 658 415 l 1
 650 415 l 1
 650 456 l 1
 642 456 l 1
 642 480 l 1
 633 480 l 1
 633 497 l 1
 625 497 l 1
 625 513 l 1
 617 513 l 1
 617 529 l 1
 609 529 l 1
 609 537 l 1
 601 537 l 1
 601 545 l 1
 593 545 l 1
 593 553 l 1
 585 553 l 1
 585 562 l 1
 577 562 l 1
 577 570 l 1
 560 570 l 1
 560 578 l 1
 544 578 l 1
 544 586 l 1
 528 586 l 1
 528 594 l 1
 495 594 l 1
 495 602 l 1
 373 602 l 1
 373 594 l 1
 332 594 l 1
 332 586 l 1
 316 586 l 1
 316 578 l 1
 300 578 l 1
 300 570 l 1
 283 570 l 1
 283 562 l 1
 275 562 l 1
 275 553 l 1
 267 553 l 1
 267 545 l 1
 259 545 l 1
 259 537 l 1
 251 537 l 1
 251 529 l 1
 243 529 l 1
 243 513 l 1
 235 513 l 1
 235 497 l 1
 227 497 l 1
 227 472 l 1
 218 472 l 1
 218 440 l 1
 210 440 l 1
 210 317 l 1
 218 317 l 1
 218 285 l 1
 227 285 l 1
 227 260 l 1
 235 260 l 1
 235 244 l 1
 243 244 l 1
 243 228 l 1
 251 228 l 1
 251 212 l 1
 259 212 l 1
 259 203 l 1
 267 203 l 1
 267 195 l 1
 275 195 l 1
 275 187 l 1
 283 187 l 1
 283 179 l 1
 292 179 l 1
 292 171 l 1
 308 171 l 1
 308 163 l 1
 324 163 l 1
 324 155 l 1
 340 155 l 1
 340 147 l 1
 373 147 l 1
 373 138 l 1
 479 138 l 1
 479 147 l 1
 495 147 l 1
 495 155 l 1
 487 155 l 1
 487 171 l 1
 479 171 l 1
 479 179 l 1
 471 179 l 1
 471 195 l 1
 463 195 l 1
 463 203 l 1
 454 203 l 1
 454 220 l 1
 446 220 l 1
 446 236 l 1
 438 236 l 1
 438 244 l 1
 430 244 l 1
 430 260 l 1
 422 260 l 1
 422 277 l 1
 414 277 l 1
 414 293 l 1
EndSplineSet
EndChar

StartChar: R
Encoding: 82 82 51
Width: 768
GlyphClass: 1
Flags: W
LayerCount: 2
Fore
SplineSet
341 350 m 1
 341 359 l 1
 422 359 l 1
 422 368 l 1
 449 368 l 1
 449 377 l 1
 467 377 l 1
 467 386 l 1
 476 386 l 1
 476 395 l 1
 485 395 l 1
 485 404 l 1
 494 404 l 1
 494 413 l 1
 503 413 l 1
 503 431 l 1
 512 431 l 1
 512 449 l 1
 521 449 l 1
 521 521 l 1
 512 521 l 1
 512 538 l 1
 503 538 l 1
 503 556 l 1
 485 556 l 1
 485 565 l 1
 476 565 l 1
 476 574 l 1
 458 574 l 1
 458 583 l 1
 422 583 l 1
 422 592 l 1
 207 592 l 1
 207 359 l 1
 243 359 l 1
 243 350 l 1
 341 350 l 1
72 700 m 1
 440 700 l 1
 440 691 l 1
 503 691 l 1
 503 682 l 1
 530 682 l 1
 530 673 l 1
 557 673 l 1
 557 664 l 1
 566 664 l 1
 566 655 l 1
 584 655 l 1
 584 646 l 1
 593 646 l 1
 593 637 l 1
 601 637 l 1
 601 628 l 1
 610 628 l 1
 610 619 l 1
 619 619 l 1
 619 610 l 1
 628 610 l 1
 628 592 l 1
 637 592 l 1
 637 574 l 1
 646 574 l 1
 646 538 l 1
 655 538 l 1
 655 422 l 1
 646 422 l 1
 646 395 l 1
 637 395 l 1
 637 368 l 1
 628 368 l 1
 628 359 l 1
 619 359 l 1
 619 341 l 1
 610 341 l 1
 610 332 l 1
 601 332 l 1
 601 323 l 1
 593 323 l 1
 593 314 l 1
 575 314 l 1
 575 305 l 1
 566 305 l 1
 566 296 l 1
 548 296 l 1
 548 287 l 1
 530 287 l 1
 530 278 l 1
 503 278 l 1
 503 269 l 1
 494 269 l 1
 494 260 l 1
 503 260 l 1
 503 251 l 1
 512 251 l 1
 512 233 l 1
 521 233 l 1
 521 224 l 1
 530 224 l 1
 530 206 l 1
 539 206 l 1
 539 197 l 1
 548 197 l 1
 548 188 l 1
 557 188 l 1
 557 171 l 1
 566 171 l 1
 566 162 l 1
 575 162 l 1
 575 144 l 1
 584 144 l 1
 584 135 l 1
 593 135 l 1
 593 126 l 1
 601 126 l 1
 601 108 l 1
 610 108 l 1
 610 99 l 1
 619 99 l 1
 619 81 l 1
 628 81 l 1
 628 72 l 1
 637 72 l 1
 637 63 l 1
 646 63 l 1
 646 45 l 1
 655 45 l 1
 655 36 l 1
 664 36 l 1
 664 18 l 1
 673 18 l 1
 673 9 l 1
 682 9 l 1
 682 0 l 1
 521 0 l 1
 521 9 l 1
 512 9 l 1
 512 27 l 1
 503 27 l 1
 503 36 l 1
 494 36 l 1
 494 54 l 1
 485 54 l 1
 485 63 l 1
 476 63 l 1
 476 81 l 1
 467 81 l 1
 467 90 l 1
 458 90 l 1
 458 108 l 1
 449 108 l 1
 449 117 l 1
 440 117 l 1
 440 135 l 1
 431 135 l 1
 431 144 l 1
 422 144 l 1
 422 162 l 1
 413 162 l 1
 413 171 l 1
 404 171 l 1
 404 188 l 1
 395 188 l 1
 395 197 l 1
 386 197 l 1
 386 215 l 1
 377 215 l 1
 377 224 l 1
 368 224 l 1
 368 242 l 1
 359 242 l 1
 359 251 l 1
 350 251 l 1
 350 260 l 1
 207 260 l 1
 207 0 l 1
 72 0 l 1
 72 700 l 1
EndSplineSet
EndChar

StartChar: S
Encoding: 83 83 52
Width: 725
GlyphClass: 1
Flags: W
LayerCount: 2
Fore
SplineSet
89 164 m 1
 97 164 l 1
 97 156 l 1
 115 156 l 1
 115 147 l 1
 132 147 l 1
 132 138 l 1
 158 138 l 1
 158 130 l 1
 184 130 l 1
 184 121 l 1
 218 121 l 1
 218 112 l 1
 279 112 l 1
 279 104 l 1
 382 104 l 1
 382 112 l 1
 434 112 l 1
 434 121 l 1
 452 121 l 1
 452 130 l 1
 469 130 l 1
 469 138 l 1
 478 138 l 1
 478 147 l 1
 486 147 l 1
 486 156 l 1
 495 156 l 1
 495 173 l 1
 503 173 l 1
 503 225 l 1
 495 225 l 1
 495 242 l 1
 486 242 l 1
 486 251 l 1
 478 251 l 1
 478 259 l 1
 460 259 l 1
 460 268 l 1
 452 268 l 1
 452 277 l 1
 426 277 l 1
 426 285 l 1
 400 285 l 1
 400 294 l 1
 365 294 l 1
 365 302 l 1
 331 302 l 1
 331 311 l 1
 296 311 l 1
 296 320 l 1
 253 320 l 1
 253 328 l 1
 227 328 l 1
 227 337 l 1
 201 337 l 1
 201 346 l 1
 184 346 l 1
 184 354 l 1
 166 354 l 1
 166 363 l 1
 149 363 l 1
 149 372 l 1
 140 372 l 1
 140 380 l 1
 132 380 l 1
 132 389 l 1
 123 389 l 1
 123 398 l 1
 115 398 l 1
 115 406 l 1
 106 406 l 1
 106 415 l 1
 97 415 l 1
 97 432 l 1
 89 432 l 1
 89 458 l 1
 80 458 l 1
 80 553 l 1
 89 553 l 1
 89 588 l 1
 97 588 l 1
 97 605 l 1
 106 605 l 1
 106 614 l 1
 115 614 l 1
 115 622 l 1
 123 622 l 1
 123 631 l 1
 132 631 l 1
 132 640 l 1
 140 640 l 1
 140 648 l 1
 149 648 l 1
 149 657 l 1
 166 657 l 1
 166 665 l 1
 184 665 l 1
 184 674 l 1
 210 674 l 1
 210 683 l 1
 236 683 l 1
 236 691 l 1
 279 691 l 1
 279 700 l 1
 478 700 l 1
 478 691 l 1
 529 691 l 1
 529 683 l 1
 564 683 l 1
 564 674 l 1
 590 674 l 1
 590 553 l 1
 581 553 l 1
 581 562 l 1
 555 562 l 1
 555 570 l 1
 521 570 l 1
 521 579 l 1
 486 579 l 1
 486 588 l 1
 426 588 l 1
 426 596 l 1
 322 596 l 1
 322 588 l 1
 279 588 l 1
 279 579 l 1
 253 579 l 1
 253 570 l 1
 244 570 l 1
 244 562 l 1
 236 562 l 1
 236 544 l 1
 227 544 l 1
 227 475 l 1
 236 475 l 1
 236 467 l 1
 244 467 l 1
 244 458 l 1
 261 458 l 1
 261 449 l 1
 287 449 l 1
 287 441 l 1
 313 441 l 1
 313 432 l 1
 348 432 l 1
 348 423 l 1
 374 423 l 1
 374 415 l 1
 417 415 l 1
 417 406 l 1
 452 406 l 1
 452 398 l 1
 478 398 l 1
 478 389 l 1
 503 389 l 1
 503 380 l 1
 529 380 l 1
 529 372 l 1
 547 372 l 1
 547 363 l 1
 564 363 l 1
 564 354 l 1
 573 354 l 1
 573 346 l 1
 590 346 l 1
 590 337 l 1
 599 337 l 1
 599 328 l 1
 607 328 l 1
 607 320 l 1
 616 320 l 1
 616 302 l 1
 624 302 l 1
 624 285 l 1
 633 285 l 1
 633 268 l 1
 642 268 l 1
 642 147 l 1
 633 147 l 1
 633 130 l 1
 624 130 l 1
 624 112 l 1
 616 112 l 1
 616 95 l 1
 607 95 l 1
 607 86 l 1
 599 86 l 1
 599 78 l 1
 590 78 l 1
 590 69 l 1
 581 69 l 1
 581 60 l 1
 573 60 l 1
 573 52 l 1
 555 52 l 1
 555 43 l 1
 547 43 l 1
 547 35 l 1
 529 35 l 1
 529 26 l 1
 503 26 l 1
 503 17 l 1
 469 17 l 1
 469 9 l 1
 426 9 l 1
 426 0 l 1
 253 0 l 1
 253 9 l 1
 192 9 l 1
 192 17 l 1
 158 17 l 1
 158 26 l 1
 123 26 l 1
 123 35 l 1
 89 35 l 1
 89 43 l 1
 80 43 l 1
 80 104 l 1
 89 104 l 1
 89 164 l 1
EndSplineSet
EndChar

StartChar: T
Encoding: 84 84 53
Width: 752
GlyphClass: 1
Flags: W
LayerCount: 2
Fore
SplineSet
60 700 m 1
 688 700 l 1
 688 583 l 1
 670 583 l 1
 670 592 l 1
 643 592 l 1
 643 583 l 1
 625 583 l 1
 625 592 l 1
 437 592 l 1
 437 45 l 1
 446 45 l 1
 446 0 l 1
 302 0 l 1
 302 592 l 1
 96 592 l 1
 96 583 l 1
 60 583 l 1
 60 700 l 1
EndSplineSet
EndChar

StartChar: U
Encoding: 85 85 54
Width: 770
GlyphClass: 1
Flags: W
LayerCount: 2
Fore
SplineSet
562 700 m 1
 684 700 l 1
 684 192 l 1
 676 192 l 1
 676 158 l 1
 667 158 l 1
 667 131 l 1
 658 131 l 1
 658 114 l 1
 650 114 l 1
 650 105 l 1
 641 105 l 1
 641 88 l 1
 632 88 l 1
 632 79 l 1
 623 79 l 1
 623 70 l 1
 614 70 l 1
 614 61 l 1
 606 61 l 1
 606 52 l 1
 597 52 l 1
 597 44 l 1
 580 44 l 1
 580 35 l 1
 562 35 l 1
 562 26 l 1
 544 26 l 1
 544 18 l 1
 510 18 l 1
 510 9 l 1
 457 9 l 1
 457 0 l 1
 291 0 l 1
 291 9 l 1
 247 9 l 1
 247 18 l 1
 221 18 l 1
 221 26 l 1
 194 26 l 1
 194 35 l 1
 177 35 l 1
 177 44 l 1
 160 44 l 1
 160 52 l 1
 151 52 l 1
 151 61 l 1
 142 61 l 1
 142 70 l 1
 133 70 l 1
 133 79 l 1
 124 79 l 1
 124 88 l 1
 116 88 l 1
 116 105 l 1
 107 105 l 1
 107 122 l 1
 98 122 l 1
 98 140 l 1
 90 140 l 1
 90 166 l 1
 81 166 l 1
 81 219 l 1
 72 219 l 1
 72 700 l 1
 203 700 l 1
 203 228 l 1
 212 228 l 1
 212 192 l 1
 221 192 l 1
 221 175 l 1
 230 175 l 1
 230 158 l 1
 238 158 l 1
 238 149 l 1
 247 149 l 1
 247 140 l 1
 256 140 l 1
 256 131 l 1
 264 131 l 1
 264 122 l 1
 291 122 l 1
 291 114 l 1
 334 114 l 1
 334 105 l 1
 440 105 l 1
 440 114 l 1
 474 114 l 1
 474 122 l 1
 492 122 l 1
 492 131 l 1
 510 131 l 1
 510 140 l 1
 518 140 l 1
 518 149 l 1
 527 149 l 1
 527 166 l 1
 536 166 l 1
 536 184 l 1
 544 184 l 1
 544 210 l 1
 553 210 l 1
 553 254 l 1
 562 254 l 1
 562 700 l 1
EndSplineSet
EndChar

StartChar: V
Encoding: 86 86 55
Width: 911
GlyphClass: 1
Flags: W
LayerCount: 2
Fore
SplineSet
700 700 m 1
 826 700 l 1
 826 673 l 1
 817 673 l 1
 817 655 l 1
 808 655 l 1
 808 637 l 1
 799 637 l 1
 799 610 l 1
 790 610 l 1
 790 592 l 1
 781 592 l 1
 781 574 l 1
 772 574 l 1
 772 556 l 1
 763 556 l 1
 763 529 l 1
 754 529 l 1
 754 512 l 1
 745 512 l 1
 745 494 l 1
 736 494 l 1
 736 467 l 1
 727 467 l 1
 727 449 l 1
 718 449 l 1
 718 431 l 1
 709 431 l 1
 709 404 l 1
 700 404 l 1
 700 386 l 1
 691 386 l 1
 691 368 l 1
 682 368 l 1
 682 341 l 1
 673 341 l 1
 673 323 l 1
 664 323 l 1
 664 305 l 1
 655 305 l 1
 655 287 l 1
 646 287 l 1
 646 260 l 1
 637 260 l 1
 637 242 l 1
 628 242 l 1
 628 224 l 1
 619 224 l 1
 619 197 l 1
 610 197 l 1
 610 179 l 1
 601 179 l 1
 601 162 l 1
 593 162 l 1
 593 144 l 1
 584 144 l 1
 584 117 l 1
 575 117 l 1
 575 99 l 1
 566 99 l 1
 566 81 l 1
 557 81 l 1
 557 54 l 1
 548 54 l 1
 548 36 l 1
 539 36 l 1
 539 18 l 1
 530 18 l 1
 530 0 l 1
 368 0 l 1
 368 9 l 1
 359 9 l 1
 359 36 l 1
 350 36 l 1
 350 63 l 1
 341 63 l 1
 341 81 l 1
 332 81 l 1
 332 108 l 1
 323 108 l 1
 323 126 l 1
 314 126 l 1
 314 153 l 1
 305 153 l 1
 305 171 l 1
 296 171 l 1
 296 188 l 1
 287 188 l 1
 287 215 l 1
 278 215 l 1
 278 233 l 1
 269 233 l 1
 269 251 l 1
 260 251 l 1
 260 269 l 1
 251 269 l 1
 251 296 l 1
 243 296 l 1
 243 314 l 1
 234 314 l 1
 234 332 l 1
 225 332 l 1
 225 359 l 1
 216 359 l 1
 216 377 l 1
 207 377 l 1
 207 395 l 1
 198 395 l 1
 198 422 l 1
 189 422 l 1
 189 440 l 1
 180 440 l 1
 180 458 l 1
 171 458 l 1
 171 485 l 1
 162 485 l 1
 162 503 l 1
 153 503 l 1
 153 521 l 1
 144 521 l 1
 144 547 l 1
 135 547 l 1
 135 565 l 1
 126 565 l 1
 126 583 l 1
 117 583 l 1
 117 610 l 1
 108 610 l 1
 108 628 l 1
 99 628 l 1
 99 646 l 1
 90 646 l 1
 90 664 l 1
 81 664 l 1
 81 682 l 1
 72 682 l 1
 72 700 l 1
 225 700 l 1
 225 691 l 1
 234 691 l 1
 234 673 l 1
 243 673 l 1
 243 646 l 1
 251 646 l 1
 251 628 l 1
 260 628 l 1
 260 610 l 1
 269 610 l 1
 269 583 l 1
 278 583 l 1
 278 565 l 1
 287 565 l 1
 287 547 l 1
 296 547 l 1
 296 521 l 1
 305 521 l 1
 305 503 l 1
 314 503 l 1
 314 476 l 1
 323 476 l 1
 323 458 l 1
 332 458 l 1
 332 440 l 1
 341 440 l 1
 341 422 l 1
 350 422 l 1
 350 395 l 1
 359 395 l 1
 359 377 l 1
 368 377 l 1
 368 359 l 1
 377 359 l 1
 377 332 l 1
 386 332 l 1
 386 314 l 1
 395 314 l 1
 395 296 l 1
 404 296 l 1
 404 269 l 1
 413 269 l 1
 413 251 l 1
 422 251 l 1
 422 224 l 1
 431 224 l 1
 431 206 l 1
 440 206 l 1
 440 179 l 1
 449 179 l 1
 449 162 l 1
 458 162 l 1
 458 135 l 1
 467 135 l 1
 467 153 l 1
 476 153 l 1
 476 171 l 1
 485 171 l 1
 485 188 l 1
 494 188 l 1
 494 215 l 1
 503 215 l 1
 503 233 l 1
 512 233 l 1
 512 251 l 1
 521 251 l 1
 521 269 l 1
 530 269 l 1
 530 296 l 1
 539 296 l 1
 539 314 l 1
 548 314 l 1
 548 332 l 1
 557 332 l 1
 557 359 l 1
 566 359 l 1
 566 377 l 1
 575 377 l 1
 575 404 l 1
 584 404 l 1
 584 422 l 1
 593 422 l 1
 593 449 l 1
 601 449 l 1
 601 467 l 1
 610 467 l 1
 610 485 l 1
 619 485 l 1
 619 512 l 1
 628 512 l 1
 628 529 l 1
 637 529 l 1
 637 556 l 1
 646 556 l 1
 646 574 l 1
 655 574 l 1
 655 601 l 1
 664 601 l 1
 664 628 l 1
 673 628 l 1
 673 646 l 1
 682 646 l 1
 682 673 l 1
 691 673 l 1
 691 691 l 1
 700 691 l 1
 700 700 l 1
EndSplineSet
EndChar

StartChar: W
Encoding: 87 87 56
Width: 1200
GlyphClass: 1
Flags: W
LayerCount: 2
Fore
SplineSet
1118 725 m 1
 1129 725 l 1
 1129 693 l 1
 1128 693 1128 693 1118 693 c 1
 1118 661 l 1
 1107 661 l 1
 1107 627 l 1
 1096 627 l 1
 1096 606 l 1
 1085 606 l 1
 1085 573 l 1
 1074 573 l 1
 1074 541 l 1
 1064 541 l 1
 1064 519 l 1
 1053 519 l 1
 1053 486 l 1
 1042 486 l 1
 1042 454 l 1
 1031 454 l 1
 1031 432 l 1
 1020 432 l 1
 1011 400 l 1
 1009 400 l 1
 1009 367 l 1
 998 367 l 1
 998 346 l 1
 987 346 l 1
 987 312 l 1
 976 312 l 1
 976 280 l 1
 965 280 l 1
 965 248 l 1
 955 248 l 1
 955 226 l 1
 943 226 l 1
 943 194 l 1
 932 194 l 1
 932 160 l 1
 921 160 l 1
 921 139 l 1
 920 139 920 139 910 139 c 1
 910 106 l 1
 909 106 l 1
 905 58 l 1
 743 56 l 1
 746 117 l 1
 735 117 l 1
 735 149 l 1
 724 149 l 1
 724 183 l 1
 713 183 l 1
 713 204 l 1
 703 204 l 1
 703 237 l 1
 692 237 l 1
 692 269 l 1
 681 269 l 1
 681 270 681 270 681 302 c 1
 670 302 l 1
 670 335 l 1
 659 335 l 1
 659 367 l 1
 649 367 l 1
 649 400 l 1
 637 400 l 1
 637 432 l 1
 626 432 l 1
 626 464 l 1
 615 464 l 1
 615 475 l 1
 614 475 614 475 604 475 c 1
 604 454 l 1
 594 454 l 1
 594 421 l 1
 583 421 l 1
 583 389 l 1
 572 389 l 1
 572 367 l 1
 561 367 l 1
 561 335 l 1
 560 335 560 335 550 335 c 1
 550 336 550 336 550 302 c 1
 540 302 l 1
 540 280 l 1
 529 280 l 1
 529 248 l 1
 518 248 l 1
 518 215 l 1
 507 215 l 1
 507 216 507 216 507 194 c 1
 506 194 506 194 496 194 c 1
 496 160 l 1
 485 160 l 1
 485 128 l 1
 474 128 l 1
 474 51 l 1
 466 47 l 1
 467 53 l 1
 325 51 l 1
 322 106 l 1
 311 106 l 1
 311 139 l 1
 310 139 310 139 300 139 c 1
 300 171 l 1
 290 171 l 1
 290 204 l 1
 279 204 l 1
 279 226 l 1
 268 226 l 1
 268 258 l 1
 257 258 l 1
 257 291 l 1
 256 291 256 291 246 291 c 1
 246 312 l 1
 259 312 l 1
 248 346 l 1
 237 346 l 1
 237 378 l 1
 226 378 l 1
 226 410 l 1
 215 410 l 1
 215 443 l 1
 214 443 214 443 204 443 c 1
 204 464 l 1
 193 464 l 1
 193 498 l 1
 182 498 l 1
 182 530 l 1
 171 530 l 1
 171 562 l 1
 160 562 l 1
 150 612 l 1
 150 627 l 1
 146 627 l 1
 139 661 l 1
 144 627 l 1
 139 627 l 1
 139 661 l 1
 128 661 l 1
 117 693 l 1
 117 715 l 1
 268 715 l 1
 268 682 l 1
 279 682 l 1
 279 638 l 1
 280 638 280 638 290 638 c 1
 290 606 l 1
 300 606 l 1
 300 573 l 1
 311 573 l 1
 311 530 l 1
 322 530 l 1
 322 498 l 1
 334 498 l 1
 334 464 l 1
 344 464 l 1
 344 432 l 1
 355 432 l 1
 355 389 l 1
 366 389 l 1
 366 356 l 1
 377 356 l 1
 377 323 l 1
 388 323 l 1
 399 291 l 1
 398 291 l 1
 398 269 l 1
 409 269 l 1
 409 270 409 270 409 302 c 1
 420 302 l 1
 420 335 l 1
 431 335 l 1
 431 356 l 1
 442 356 l 1
 442 389 l 1
 452 389 l 1
 452 421 l 1
 463 421 l 1
 463 454 l 1
 474 454 l 1
 474 486 l 1
 485 486 l 1
 485 519 l 1
 484 519 484 519 496 519 c 1
 496 552 l 1
 507 552 l 1
 507 584 l 1
 518 584 l 1
 518 616 l 1
 529 616 l 1
 529 650 l 1
 540 650 l 1
 540 682 l 1
 550 682 l 1
 550 715 l 1
 561 715 l 1
 561 725 l 1
 626 725 l 1
 659 725 l 1
 670 725 l 1
 681 725 l 1
 686 725 l 1
 681 725 l 1
 681 715 l 1
 692 715 l 1
 692 682 l 1
 703 682 l 1
 703 650 l 1
 713 650 l 1
 713 616 l 1
 724 616 l 1
 724 584 l 1
 735 584 l 1
 735 552 l 1
 746 552 l 1
 746 519 l 1
 757 519 l 1
 757 486 l 1
 767 486 l 1
 767 454 l 1
 778 454 l 1
 778 410 l 1
 789 410 l 1
 789 378 l 1
 800 378 l 1
 800 346 l 1
 812 346 l 1
 812 302 l 1
 822 302 l 1
 822 269 l 1
 833 269 l 1
 833 291 l 1
 844 291 l 1
 844 323 l 1
 855 323 l 1
 855 356 l 1
 856 356 856 356 866 356 c 1
 866 389 l 1
 876 389 l 1
 876 410 l 1
 887 410 l 1
 887 443 l 1
 898 443 l 1
 898 475 l 1
 909 475 l 1
 909 474 909 474 909 508 c 1
 910 508 910 508 920 508 c 1
 920 541 l 1
 930 541 l 1
 930 573 l 1
 941 573 l 1
 941 606 l 1
 952 606 l 1
 952 638 l 1
 964 638 l 1
 964 671 l 1
 974 671 l 1
 974 704 l 1
 985 704 l 1
 985 725 l 1
 1007 725 l 1
 1007 715 l 1
 1006 715 1006 715 1118 715 c 1
 1118 725 l 1
626 715 m 1
 626 719 l 1
 583 715 l 1
 626 715 l 1
659 715 m 1
 670 715 l 1
 670 724 l 1
 659 723 l 1
 659 715 l 1
144 627 m 1
 146 627 l 1
 150 612 l 1
 150 595 l 1
 144 627 l 1
EndSplineSet
EndChar

StartChar: X
Encoding: 88 88 57
Width: 867
GlyphClass: 1
Flags: W
LayerCount: 2
Fore
SplineSet
569 700 m 1
 726 700 l 1
 726 691 l 1
 717 691 l 1
 717 682 l 1
 708 682 l 1
 708 663 l 1
 698 663 l 1
 698 654 l 1
 689 654 l 1
 689 645 l 1
 680 645 l 1
 680 636 l 1
 671 636 l 1
 671 617 l 1
 661 617 l 1
 661 608 l 1
 652 608 l 1
 652 599 l 1
 643 599 l 1
 643 580 l 1
 634 580 l 1
 634 571 l 1
 625 571 l 1
 625 553 l 1
 615 553 l 1
 615 543 l 1
 606 543 l 1
 606 534 l 1
 597 534 l 1
 597 516 l 1
 588 516 l 1
 588 507 l 1
 579 507 l 1
 579 497 l 1
 569 497 l 1
 569 488 l 1
 560 488 l 1
 560 470 l 1
 551 470 l 1
 551 461 l 1
 542 461 l 1
 542 442 l 1
 533 442 l 1
 533 433 l 1
 523 433 l 1
 523 424 l 1
 514 424 l 1
 514 414 l 1
 505 414 l 1
 505 396 l 1
 496 396 l 1
 496 387 l 1
 486 387 l 1
 486 378 l 1
 496 378 l 1
 496 368 l 1
 505 368 l 1
 505 350 l 1
 514 350 l 1
 514 341 l 1
 523 341 l 1
 523 332 l 1
 533 332 l 1
 533 313 l 1
 542 313 l 1
 542 304 l 1
 551 304 l 1
 551 295 l 1
 560 295 l 1
 560 276 l 1
 569 276 l 1
 569 267 l 1
 579 267 l 1
 579 258 l 1
 588 258 l 1
 588 249 l 1
 597 249 l 1
 597 230 l 1
 606 230 l 1
 606 221 l 1
 615 221 l 1
 615 212 l 1
 625 212 l 1
 625 193 l 1
 634 193 l 1
 634 184 l 1
 643 184 l 1
 643 175 l 1
 652 175 l 1
 652 157 l 1
 661 157 l 1
 661 147 l 1
 671 147 l 1
 671 138 l 1
 680 138 l 1
 680 120 l 1
 689 120 l 1
 689 111 l 1
 698 111 l 1
 698 101 l 1
 708 101 l 1
 708 92 l 1
 717 92 l 1
 717 74 l 1
 726 74 l 1
 726 64 l 1
 735 64 l 1
 735 55 l 1
 744 55 l 1
 744 37 l 1
 754 37 l 1
 754 28 l 1
 763 28 l 1
 763 18 l 1
 772 18 l 1
 772 9 l 1
 781 9 l 1
 781 0 l 1
 588 0 l 1
 588 18 l 1
 579 18 l 1
 579 28 l 1
 569 28 l 1
 569 37 l 1
 560 37 l 1
 560 55 l 1
 551 55 l 1
 551 64 l 1
 542 64 l 1
 542 74 l 1
 533 74 l 1
 533 83 l 1
 523 83 l 1
 523 101 l 1
 514 101 l 1
 514 111 l 1
 505 111 l 1
 505 120 l 1
 496 120 l 1
 496 138 l 1
 486 138 l 1
 486 147 l 1
 477 147 l 1
 477 166 l 1
 468 166 l 1
 468 175 l 1
 459 175 l 1
 459 184 l 1
 450 184 l 1
 450 203 l 1
 440 203 l 1
 440 212 l 1
 431 212 l 1
 431 221 l 1
 422 221 l 1
 422 239 l 1
 413 239 l 1
 413 249 l 1
 404 249 l 1
 404 258 l 1
 394 258 l 1
 394 239 l 1
 385 239 l 1
 385 230 l 1
 376 230 l 1
 376 212 l 1
 367 212 l 1
 367 203 l 1
 358 203 l 1
 358 184 l 1
 348 184 l 1
 348 175 l 1
 339 175 l 1
 339 166 l 1
 330 166 l 1
 330 147 l 1
 321 147 l 1
 321 138 l 1
 311 138 l 1
 311 120 l 1
 302 120 l 1
 302 111 l 1
 293 111 l 1
 293 92 l 1
 284 92 l 1
 284 83 l 1
 275 83 l 1
 275 64 l 1
 265 64 l 1
 265 55 l 1
 256 55 l 1
 256 46 l 1
 247 46 l 1
 247 28 l 1
 238 28 l 1
 238 18 l 1
 229 18 l 1
 229 0 l 1
 72 0 l 1
 72 9 l 1
 81 9 l 1
 81 28 l 1
 90 28 l 1
 90 37 l 1
 100 37 l 1
 100 55 l 1
 109 55 l 1
 109 64 l 1
 118 64 l 1
 118 74 l 1
 127 74 l 1
 127 92 l 1
 136 92 l 1
 136 101 l 1
 146 101 l 1
 146 111 l 1
 155 111 l 1
 155 129 l 1
 164 129 l 1
 164 138 l 1
 173 138 l 1
 173 157 l 1
 183 157 l 1
 183 166 l 1
 192 166 l 1
 192 175 l 1
 201 175 l 1
 201 193 l 1
 210 193 l 1
 210 203 l 1
 219 203 l 1
 219 212 l 1
 229 212 l 1
 229 230 l 1
 238 230 l 1
 238 239 l 1
 247 239 l 1
 247 258 l 1
 256 258 l 1
 256 267 l 1
 265 267 l 1
 265 276 l 1
 275 276 l 1
 275 295 l 1
 284 295 l 1
 284 304 l 1
 293 304 l 1
 293 322 l 1
 302 322 l 1
 302 332 l 1
 311 332 l 1
 311 350 l 1
 321 350 l 1
 321 359 l 1
 330 359 l 1
 330 368 l 1
 321 368 l 1
 321 387 l 1
 311 387 l 1
 311 396 l 1
 302 396 l 1
 302 414 l 1
 293 414 l 1
 293 424 l 1
 284 424 l 1
 284 433 l 1
 275 433 l 1
 275 451 l 1
 265 451 l 1
 265 461 l 1
 256 461 l 1
 256 470 l 1
 247 470 l 1
 247 488 l 1
 238 488 l 1
 238 497 l 1
 229 497 l 1
 229 516 l 1
 219 516 l 1
 219 525 l 1
 210 525 l 1
 210 534 l 1
 201 534 l 1
 201 553 l 1
 192 553 l 1
 192 562 l 1
 183 562 l 1
 183 571 l 1
 173 571 l 1
 173 589 l 1
 164 589 l 1
 164 599 l 1
 155 599 l 1
 155 617 l 1
 146 617 l 1
 146 626 l 1
 136 626 l 1
 136 636 l 1
 127 636 l 1
 127 654 l 1
 118 654 l 1
 118 663 l 1
 109 663 l 1
 109 682 l 1
 100 682 l 1
 100 691 l 1
 90 691 l 1
 90 700 l 1
 275 700 l 1
 275 691 l 1
 284 691 l 1
 284 682 l 1
 293 682 l 1
 293 663 l 1
 302 663 l 1
 302 654 l 1
 311 654 l 1
 311 636 l 1
 321 636 l 1
 321 626 l 1
 330 626 l 1
 330 608 l 1
 339 608 l 1
 339 589 l 1
 348 589 l 1
 348 580 l 1
 358 580 l 1
 358 562 l 1
 367 562 l 1
 367 553 l 1
 376 553 l 1
 376 534 l 1
 385 534 l 1
 385 525 l 1
 394 525 l 1
 394 507 l 1
 404 507 l 1
 404 497 l 1
 413 497 l 1
 413 479 l 1
 422 479 l 1
 422 497 l 1
 431 497 l 1
 431 507 l 1
 440 507 l 1
 440 516 l 1
 450 516 l 1
 450 534 l 1
 459 534 l 1
 459 543 l 1
 468 543 l 1
 468 562 l 1
 477 562 l 1
 477 571 l 1
 486 571 l 1
 486 580 l 1
 496 580 l 1
 496 599 l 1
 505 599 l 1
 505 608 l 1
 514 608 l 1
 514 626 l 1
 523 626 l 1
 523 636 l 1
 533 636 l 1
 533 645 l 1
 542 645 l 1
 542 663 l 1
 551 663 l 1
 551 672 l 1
 560 672 l 1
 560 682 l 1
 569 682 l 1
 569 700 l 1
EndSplineSet
EndChar

StartChar: Y
Encoding: 89 89 58
Width: 647
GlyphClass: 1
Flags: W
LayerCount: 2
Fore
SplineSet
114 127 m 1
 139 127 l 1
 139 118 l 1
 156 118 l 1
 156 110 l 1
 182 110 l 1
 182 101 l 1
 215 101 l 1
 215 93 l 1
 359 93 l 1
 359 101 l 1
 376 101 l 1
 376 110 l 1
 392 110 l 1
 392 118 l 1
 409 118 l 1
 409 127 l 1
 418 127 l 1
 418 143 l 1
 426 143 l 1
 426 160 l 1
 435 160 l 1
 435 186 l 1
 443 186 l 1
 443 270 l 1
 435 270 l 1
 435 261 l 1
 426 261 l 1
 426 253 l 1
 418 253 l 1
 418 245 l 1
 401 245 l 1
 401 236 l 1
 392 236 l 1
 392 228 l 1
 376 228 l 1
 376 219 l 1
 350 219 l 1
 350 211 l 1
 317 211 l 1
 317 202 l 1
 207 202 l 1
 207 211 l 1
 173 211 l 1
 173 219 l 1
 156 219 l 1
 156 228 l 1
 139 228 l 1
 139 236 l 1
 131 236 l 1
 131 245 l 1
 123 245 l 1
 123 253 l 1
 114 253 l 1
 114 261 l 1
 106 261 l 1
 106 270 l 1
 97 270 l 1
 97 287 l 1
 89 287 l 1
 89 304 l 1
 80 304 l 1
 80 337 l 1
 72 337 l 1
 72 700 l 1
 199 700 l 1
 199 354 l 1
 207 354 l 1
 207 337 l 1
 215 337 l 1
 215 329 l 1
 224 329 l 1
 224 320 l 1
 232 320 l 1
 232 312 l 1
 249 312 l 1
 249 304 l 1
 359 304 l 1
 359 312 l 1
 384 312 l 1
 384 320 l 1
 401 320 l 1
 401 329 l 1
 409 329 l 1
 409 337 l 1
 426 337 l 1
 426 346 l 1
 435 346 l 1
 435 354 l 1
 443 354 l 1
 443 683 l 1
 435 683 l 1
 435 692 l 1
 443 692 l 1
 443 700 l 1
 561 700 l 1
 561 160 l 1
 553 160 l 1
 553 135 l 1
 544 135 l 1
 544 110 l 1
 536 110 l 1
 536 101 l 1
 527 101 l 1
 527 84 l 1
 519 84 l 1
 519 76 l 1
 511 76 l 1
 511 67 l 1
 502 67 l 1
 502 59 l 1
 494 59 l 1
 494 51 l 1
 485 51 l 1
 485 42 l 1
 468 42 l 1
 468 34 l 1
 460 34 l 1
 460 25 l 1
 443 25 l 1
 443 17 l 1
 418 17 l 1
 418 8 l 1
 376 8 l 1
 376 0 l 1
 207 0 l 1
 207 8 l 1
 165 8 l 1
 165 17 l 1
 139 17 l 1
 139 25 l 1
 123 25 l 1
 123 118 l 1
 114 118 l 1
 114 127 l 1
EndSplineSet
EndChar

StartChar: Z
Encoding: 90 90 59
Width: 749
GlyphClass: 1
Flags: W
LayerCount: 2
Fore
SplineSet
651 579 m 1
 651 567 l 1
 639 567 l 1
 639 555 l 1
 627 555 l 1
 627 531 l 1
 615 531 l 1
 615 519 l 1
 603 519 l 1
 603 507 l 1
 591 507 l 1
 591 495 l 1
 579 495 l 1
 579 471 l 1
 567 471 l 1
 567 459 l 1
 555 459 l 1
 555 447 l 1
 543 447 l 1
 543 434 l 1
 531 434 l 1
 531 410 l 1
 519 410 l 1
 519 398 l 1
 506 398 l 1
 506 386 l 1
 494 386 l 1
 494 374 l 1
 482 374 l 1
 482 350 l 1
 470 350 l 1
 470 338 l 1
 458 338 l 1
 458 326 l 1
 446 326 l 1
 446 302 l 1
 434 302 l 1
 434 290 l 1
 422 290 l 1
 422 278 l 1
 410 278 l 1
 410 266 l 1
 398 266 l 1
 398 241 l 1
 386 241 l 1
 386 229 l 1
 374 229 l 1
 374 217 l 1
 362 217 l 1
 362 205 l 1
 350 205 l 1
 350 181 l 1
 338 181 l 1
 338 169 l 1
 325 169 l 1
 325 157 l 1
 313 157 l 1
 313 145 l 1
 301 145 l 1
 301 133 l 1
 663 133 l 1
 662 33 l 1
 68 31 l 1
 72 109 l 1
 84 109 l 1
 84 133 l 1
 96 133 l 1
 96 145 l 1
 108 145 l 1
 108 157 l 1
 120 157 l 1
 120 169 l 1
 132 169 l 1
 132 181 l 1
 144 181 l 1
 144 205 l 1
 156 205 l 1
 156 217 l 1
 169 217 l 1
 169 229 l 1
 181 229 l 1
 181 241 l 1
 193 241 l 1
 193 266 l 1
 205 266 l 1
 205 278 l 1
 217 278 l 1
 217 290 l 1
 229 290 l 1
 229 302 l 1
 241 302 l 1
 241 326 l 1
 253 326 l 1
 253 338 l 1
 265 338 l 1
 265 350 l 1
 277 350 l 1
 277 362 l 1
 289 362 l 1
 289 386 l 1
 301 386 l 1
 301 398 l 1
 313 398 l 1
 313 410 l 1
 325 410 l 1
 325 422 l 1
 338 422 l 1
 338 447 l 1
 350 447 l 1
 350 459 l 1
 362 459 l 1
 362 471 l 1
 374 471 l 1
 374 483 l 1
 386 483 l 1
 386 507 l 1
 398 507 l 1
 398 519 l 1
 410 519 l 1
 410 531 l 1
 422 531 l 1
 422 543 l 1
 434 543 l 1
 434 555 l 1
 446 555 l 1
 446 567 l 1
 72 567 l 1
 68 674 l 1
 662 672 l 1
 663 579 l 1
 651 579 l 1
EndSplineSet
EndChar

StartChar: a
Encoding: 97 97 60
Width: 651
GlyphClass: 1
Flags: W
LayerCount: 2
Fore
SplineSet
306 84 m 1
 306 92 l 1
 340 92 l 1
 340 100 l 1
 365 100 l 1
 365 109 l 1
 373 109 l 1
 373 117 l 1
 390 117 l 1
 390 125 l 1
 406 125 l 1
 406 134 l 1
 415 134 l 1
 415 142 l 1
 423 142 l 1
 423 234 l 1
 348 234 l 1
 348 226 l 1
 273 226 l 1
 273 217 l 1
 239 217 l 1
 239 209 l 1
 222 209 l 1
 222 201 l 1
 214 201 l 1
 214 192 l 1
 206 192 l 1
 206 184 l 1
 197 184 l 1
 197 117 l 1
 206 117 l 1
 206 109 l 1
 214 109 l 1
 214 100 l 1
 222 100 l 1
 222 92 l 1
 248 92 l 1
 248 84 l 1
 306 84 l 1
231 510 m 1
 390 510 l 1
 390 502 l 1
 423 502 l 1
 423 493 l 1
 448 493 l 1
 448 485 l 1
 457 485 l 1
 457 477 l 1
 473 477 l 1
 473 468 l 1
 482 468 l 1
 482 460 l 1
 498 460 l 1
 498 451 l 1
 507 451 l 1
 507 435 l 1
 515 435 l 1
 515 426 l 1
 523 426 l 1
 523 410 l 1
 532 410 l 1
 532 393 l 1
 540 393 l 1
 540 360 l 1
 549 360 l 1
 549 75 l 1
 557 75 l 1
 557 25 l 1
 565 25 l 1
 565 8 l 1
 448 8 l 1
 448 17 l 1
 440 17 l 1
 440 42 l 1
 432 42 l 1
 432 50 l 1
 423 50 l 1
 423 42 l 1
 406 42 l 1
 406 33 l 1
 390 33 l 1
 390 25 l 1
 365 25 l 1
 365 17 l 1
 340 17 l 1
 340 8 l 1
 298 8 l 1
 298 0 l 1
 214 0 l 1
 214 8 l 1
 172 8 l 1
 172 17 l 1
 156 17 l 1
 156 25 l 1
 139 25 l 1
 139 33 l 1
 122 33 l 1
 122 42 l 1
 114 42 l 1
 114 50 l 1
 105 50 l 1
 105 59 l 1
 97 59 l 1
 97 67 l 1
 89 67 l 1
 89 84 l 1
 80 84 l 1
 80 100 l 1
 72 100 l 1
 72 192 l 1
 80 192 l 1
 80 209 l 1
 89 209 l 1
 89 226 l 1
 97 226 l 1
 97 234 l 1
 105 234 l 1
 105 242 l 1
 114 242 l 1
 114 251 l 1
 122 251 l 1
 122 259 l 1
 139 259 l 1
 139 268 l 1
 147 268 l 1
 147 276 l 1
 172 276 l 1
 172 284 l 1
 197 284 l 1
 197 293 l 1
 231 293 l 1
 231 301 l 1
 314 301 l 1
 314 309 l 1
 423 309 l 1
 423 343 l 1
 415 343 l 1
 415 368 l 1
 406 368 l 1
 406 385 l 1
 398 385 l 1
 398 393 l 1
 381 393 l 1
 381 401 l 1
 373 401 l 1
 373 410 l 1
 348 410 l 1
 348 418 l 1
 231 418 l 1
 231 410 l 1
 189 410 l 1
 189 401 l 1
 156 401 l 1
 156 393 l 1
 139 393 l 1
 139 385 l 1
 114 385 l 1
 114 477 l 1
 122 477 l 1
 122 485 l 1
 147 485 l 1
 147 493 l 1
 189 493 l 1
 189 502 l 1
 231 502 l 1
 231 510 l 1
EndSplineSet
EndChar

StartChar: b
Encoding: 98 98 61
Width: 691
GlyphClass: 1
Flags: W
LayerCount: 2
Fore
SplineSet
380 100 m 1
 380 108 l 1
 405 108 l 1
 405 117 l 1
 422 117 l 1
 422 125 l 1
 430 125 l 1
 430 133 l 1
 439 133 l 1
 439 142 l 1
 447 142 l 1
 447 150 l 1
 455 150 l 1
 455 158 l 1
 464 158 l 1
 464 183 l 1
 472 183 l 1
 472 208 l 1
 480 208 l 1
 480 308 l 1
 472 308 l 1
 472 342 l 1
 464 342 l 1
 464 358 l 1
 455 358 l 1
 455 367 l 1
 447 367 l 1
 447 375 l 1
 439 375 l 1
 439 383 l 1
 430 383 l 1
 430 392 l 1
 414 392 l 1
 414 400 l 1
 389 400 l 1
 389 408 l 1
 280 408 l 1
 280 400 l 1
 255 400 l 1
 255 392 l 1
 239 392 l 1
 239 383 l 1
 222 383 l 1
 222 375 l 1
 205 375 l 1
 205 367 l 1
 197 367 l 1
 197 133 l 1
 205 133 l 1
 205 125 l 1
 222 125 l 1
 222 117 l 1
 239 117 l 1
 239 108 l 1
 272 108 l 1
 272 100 l 1
 380 100 l 1
314 508 m 1
 430 508 l 1
 430 500 l 1
 464 500 l 1
 464 492 l 1
 480 492 l 1
 480 483 l 1
 497 483 l 1
 497 475 l 1
 514 475 l 1
 514 467 l 1
 522 467 l 1
 522 458 l 1
 530 458 l 1
 530 450 l 1
 539 450 l 1
 539 442 l 1
 547 442 l 1
 547 433 l 1
 555 433 l 1
 555 425 l 1
 564 425 l 1
 564 408 l 1
 572 408 l 1
 572 400 l 1
 580 400 l 1
 580 383 l 1
 589 383 l 1
 589 358 l 1
 597 358 l 1
 597 325 l 1
 605 325 l 1
 605 183 l 1
 597 183 l 1
 597 158 l 1
 589 158 l 1
 589 133 l 1
 580 133 l 1
 580 117 l 1
 572 117 l 1
 572 108 l 1
 564 108 l 1
 564 92 l 1
 555 92 l 1
 555 83 l 1
 547 83 l 1
 547 75 l 1
 539 75 l 1
 539 67 l 1
 530 67 l 1
 530 58 l 1
 522 58 l 1
 522 50 l 1
 505 50 l 1
 505 42 l 1
 497 42 l 1
 497 33 l 1
 480 33 l 1
 480 25 l 1
 464 25 l 1
 464 17 l 1
 430 17 l 1
 430 8 l 1
 397 8 l 1
 397 0 l 1
 322 0 l 1
 322 8 l 1
 272 8 l 1
 272 17 l 1
 247 17 l 1
 247 25 l 1
 230 25 l 1
 230 33 l 1
 214 33 l 1
 214 42 l 1
 197 42 l 1
 197 8 l 1
 80 8 l 1
 80 17 l 1
 72 17 l 1
 72 700 l 1
 197 700 l 1
 197 458 l 1
 205 458 l 1
 205 467 l 1
 214 467 l 1
 214 475 l 1
 230 475 l 1
 230 483 l 1
 247 483 l 1
 247 492 l 1
 272 492 l 1
 272 500 l 1
 314 500 l 1
 314 508 l 1
EndSplineSet
EndChar

StartChar: c
Encoding: 99 99 62
Width: 598
GlyphClass: 1
Flags: W
LayerCount: 2
Fore
SplineSet
499 139 m 1
 508 139 l 1
 508 38 l 1
 499 38 l 1
 499 30 l 1
 474 30 l 1
 474 22 l 1
 441 22 l 1
 441 13 l 1
 391 13 l 1
 391 5 l 1
 282 5 l 1
 282 13 l 1
 240 13 l 1
 240 22 l 1
 215 22 l 1
 215 30 l 1
 198 30 l 1
 198 38 l 1
 182 38 l 1
 182 47 l 1
 165 47 l 1
 165 55 l 1
 157 55 l 1
 157 64 l 1
 148 64 l 1
 148 72 l 1
 140 72 l 1
 140 80 l 1
 132 80 l 1
 132 89 l 1
 123 89 l 1
 123 97 l 1
 115 97 l 1
 115 105 l 1
 106 105 l 1
 106 122 l 1
 98 122 l 1
 98 139 l 1
 90 139 l 1
 90 155 l 1
 81 155 l 1
 81 189 l 1
 73 189 l 1
 73 339 l 1
 81 339 l 1
 81 365 l 1
 90 365 l 1
 90 390 l 1
 98 390 l 1
 98 398 l 1
 106 398 l 1
 106 415 l 1
 115 415 l 1
 115 423 l 1
 123 423 l 1
 123 440 l 1
 132 440 l 1
 132 448 l 1
 140 448 l 1
 140 456 l 1
 157 456 l 1
 157 465 l 1
 165 465 l 1
 165 473 l 1
 182 473 l 1
 182 482 l 1
 198 482 l 1
 198 490 l 1
 215 490 l 1
 215 498 l 1
 240 498 l 1
 240 507 l 1
 274 507 l 1
 274 515 l 1
 441 515 l 1
 441 507 l 1
 474 507 l 1
 474 498 l 1
 499 498 l 1
 499 490 l 1
 508 490 l 1
 508 398 l 1
 483 398 l 1
 483 406 l 1
 449 406 l 1
 449 415 l 1
 416 415 l 1
 416 423 l 1
 307 423 l 1
 307 415 l 1
 282 415 l 1
 282 406 l 1
 257 406 l 1
 257 398 l 1
 249 398 l 1
 249 390 l 1
 240 390 l 1
 240 381 l 1
 232 381 l 1
 232 373 l 1
 223 373 l 1
 223 365 l 1
 215 365 l 1
 215 348 l 1
 207 348 l 1
 207 331 l 1
 198 331 l 1
 198 189 l 1
 207 189 l 1
 207 172 l 1
 215 172 l 1
 215 155 l 1
 223 155 l 1
 223 147 l 1
 232 147 l 1
 232 139 l 1
 240 139 l 1
 240 130 l 1
 249 130 l 1
 249 122 l 1
 265 122 l 1
 265 114 l 1
 299 114 l 1
 299 105 l 1
 416 105 l 1
 416 114 l 1
 449 114 l 1
 449 122 l 1
 474 122 l 1
 474 130 l 1
 499 130 l 1
 499 139 l 1
EndSplineSet
EndChar

StartChar: d
Encoding: 100 100 63
Width: 682
GlyphClass: 1
Flags: W
LayerCount: 2
Fore
SplineSet
380 100 m 1
 380 108 l 1
 414 108 l 1
 414 117 l 1
 430 117 l 1
 430 125 l 1
 447 125 l 1
 447 133 l 1
 464 133 l 1
 464 142 l 1
 472 142 l 1
 472 383 l 1
 464 383 l 1
 464 392 l 1
 447 392 l 1
 447 400 l 1
 414 400 l 1
 414 408 l 1
 289 408 l 1
 289 400 l 1
 272 400 l 1
 272 392 l 1
 255 392 l 1
 255 383 l 1
 239 383 l 1
 239 375 l 1
 230 375 l 1
 230 358 l 1
 222 358 l 1
 222 350 l 1
 214 350 l 1
 214 333 l 1
 205 333 l 1
 205 300 l 1
 197 300 l 1
 197 208 l 1
 205 208 l 1
 205 183 l 1
 214 183 l 1
 214 158 l 1
 222 158 l 1
 222 150 l 1
 230 150 l 1
 230 133 l 1
 247 133 l 1
 247 125 l 1
 255 125 l 1
 255 117 l 1
 272 117 l 1
 272 108 l 1
 297 108 l 1
 297 100 l 1
 380 100 l 1
255 508 m 1
 372 508 l 1
 372 500 l 1
 405 500 l 1
 405 492 l 1
 430 492 l 1
 430 483 l 1
 447 483 l 1
 447 475 l 1
 464 475 l 1
 464 467 l 1
 472 467 l 1
 472 700 l 1
 597 700 l 1
 597 8 l 1
 489 8 l 1
 489 17 l 1
 480 17 l 1
 480 58 l 1
 464 58 l 1
 464 50 l 1
 455 50 l 1
 455 42 l 1
 447 42 l 1
 447 33 l 1
 430 33 l 1
 430 25 l 1
 414 25 l 1
 414 17 l 1
 389 17 l 1
 389 8 l 1
 339 8 l 1
 339 0 l 1
 247 0 l 1
 247 8 l 1
 222 8 l 1
 222 17 l 1
 197 17 l 1
 197 25 l 1
 180 25 l 1
 180 33 l 1
 172 33 l 1
 172 42 l 1
 155 42 l 1
 155 50 l 1
 147 50 l 1
 147 58 l 1
 139 58 l 1
 139 67 l 1
 130 67 l 1
 130 75 l 1
 122 75 l 1
 122 83 l 1
 114 83 l 1
 114 100 l 1
 105 100 l 1
 105 117 l 1
 97 117 l 1
 97 133 l 1
 89 133 l 1
 89 158 l 1
 80 158 l 1
 80 200 l 1
 72 200 l 1
 72 292 l 1
 80 292 l 1
 80 342 l 1
 89 342 l 1
 89 367 l 1
 97 367 l 1
 97 383 l 1
 105 383 l 1
 105 400 l 1
 114 400 l 1
 114 408 l 1
 122 408 l 1
 122 425 l 1
 130 425 l 1
 130 433 l 1
 139 433 l 1
 139 442 l 1
 147 442 l 1
 147 450 l 1
 155 450 l 1
 155 458 l 1
 164 458 l 1
 164 467 l 1
 180 467 l 1
 180 475 l 1
 189 475 l 1
 189 483 l 1
 205 483 l 1
 205 492 l 1
 230 492 l 1
 230 500 l 1
 255 500 l 1
 255 508 l 1
EndSplineSet
EndChar

StartChar: e
Encoding: 101 101 64
Width: 668
GlyphClass: 1
Flags: W
LayerCount: 2
Fore
SplineSet
473 293 m 1
 473 326 l 1
 465 326 l 1
 465 360 l 1
 457 360 l 1
 457 376 l 1
 448 376 l 1
 448 385 l 1
 440 385 l 1
 440 393 l 1
 432 393 l 1
 432 401 l 1
 423 401 l 1
 423 410 l 1
 406 410 l 1
 406 418 l 1
 381 418 l 1
 381 426 l 1
 306 426 l 1
 306 418 l 1
 281 418 l 1
 281 410 l 1
 264 410 l 1
 264 401 l 1
 256 401 l 1
 256 393 l 1
 239 393 l 1
 239 376 l 1
 231 376 l 1
 231 368 l 1
 222 368 l 1
 222 351 l 1
 214 351 l 1
 214 334 l 1
 206 334 l 1
 206 293 l 1
 473 293 l 1
549 134 m 1
 565 134 l 1
 565 33 l 1
 557 33 l 1
 557 25 l 1
 523 25 l 1
 523 17 l 1
 490 17 l 1
 490 8 l 1
 440 8 l 1
 440 0 l 1
 306 0 l 1
 306 8 l 1
 256 8 l 1
 256 17 l 1
 222 17 l 1
 222 25 l 1
 206 25 l 1
 206 33 l 1
 189 33 l 1
 189 42 l 1
 172 42 l 1
 172 50 l 1
 164 50 l 1
 164 59 l 1
 147 59 l 1
 147 67 l 1
 139 67 l 1
 139 75 l 1
 131 75 l 1
 131 84 l 1
 122 84 l 1
 122 100 l 1
 114 100 l 1
 114 109 l 1
 105 109 l 1
 105 125 l 1
 97 125 l 1
 97 142 l 1
 89 142 l 1
 89 167 l 1
 80 167 l 1
 80 226 l 1
 72 226 l 1
 72 276 l 1
 80 276 l 1
 80 334 l 1
 89 334 l 1
 89 368 l 1
 97 368 l 1
 97 385 l 1
 105 385 l 1
 105 401 l 1
 114 401 l 1
 114 410 l 1
 122 410 l 1
 122 426 l 1
 131 426 l 1
 131 435 l 1
 139 435 l 1
 139 443 l 1
 147 443 l 1
 147 451 l 1
 156 451 l 1
 156 460 l 1
 172 460 l 1
 172 468 l 1
 181 468 l 1
 181 477 l 1
 197 477 l 1
 197 485 l 1
 214 485 l 1
 214 493 l 1
 239 493 l 1
 239 502 l 1
 273 502 l 1
 273 510 l 1
 415 510 l 1
 415 502 l 1
 448 502 l 1
 448 493 l 1
 465 493 l 1
 465 485 l 1
 482 485 l 1
 482 477 l 1
 498 477 l 1
 498 468 l 1
 507 468 l 1
 507 460 l 1
 515 460 l 1
 515 451 l 1
 523 451 l 1
 523 443 l 1
 532 443 l 1
 532 435 l 1
 540 435 l 1
 540 426 l 1
 549 426 l 1
 549 410 l 1
 557 410 l 1
 557 401 l 1
 565 401 l 1
 565 376 l 1
 574 376 l 1
 574 351 l 1
 582 351 l 1
 582 217 l 1
 574 217 l 1
 574 226 l 1
 206 226 l 1
 206 184 l 1
 214 184 l 1
 214 167 l 1
 222 167 l 1
 222 159 l 1
 231 159 l 1
 231 142 l 1
 239 142 l 1
 239 134 l 1
 256 134 l 1
 256 125 l 1
 264 125 l 1
 264 117 l 1
 281 117 l 1
 281 109 l 1
 314 109 l 1
 314 100 l 1
 465 100 l 1
 465 109 l 1
 498 109 l 1
 498 117 l 1
 532 117 l 1
 532 125 l 1
 549 125 l 1
 549 134 l 1
EndSplineSet
EndChar

StartChar: f
Encoding: 102 102 65
Width: 563
GlyphClass: 1
Flags: W
LayerCount: 2
Fore
SplineSet
296 700 m 1
 467 700 l 1
 467 692 l 1
 500 692 l 1
 500 594 l 1
 483 594 l 1
 483 602 l 1
 443 602 l 1
 443 610 l 1
 337 610 l 1
 337 602 l 1
 320 602 l 1
 320 594 l 1
 312 594 l 1
 312 586 l 1
 304 586 l 1
 304 562 l 1
 296 562 l 1
 296 480 l 1
 451 480 l 1
 451 391 l 1
 296 391 l 1
 296 0 l 1
 182 0 l 1
 182 391 l 1
 60 391 l 1
 60 480 l 1
 182 480 l 1
 182 602 l 1
 190 602 l 1
 190 627 l 1
 198 627 l 1
 198 643 l 1
 207 643 l 1
 207 651 l 1
 215 651 l 1
 215 659 l 1
 223 659 l 1
 223 667 l 1
 231 667 l 1
 231 676 l 1
 247 676 l 1
 247 684 l 1
 263 684 l 1
 263 692 l 1
 296 692 l 1
 296 700 l 1
EndSplineSet
EndChar

StartChar: g
Encoding: 103 103 66
Width: 674
GlyphClass: 1
Flags: W
LayerCount: 2
Fore
SplineSet
364 128 m 1
 364 137 l 1
 397 137 l 1
 397 145 l 1
 414 145 l 1
 414 153 l 1
 430 153 l 1
 430 162 l 1
 447 162 l 1
 447 170 l 1
 455 170 l 1
 455 178 l 1
 464 178 l 1
 464 187 l 1
 472 187 l 1
 472 195 l 1
 464 195 l 1
 464 378 l 1
 472 378 l 1
 472 387 l 1
 464 387 l 1
 464 395 l 1
 447 395 l 1
 447 403 l 1
 430 403 l 1
 430 412 l 1
 405 412 l 1
 405 420 l 1
 380 420 l 1
 380 428 l 1
 305 428 l 1
 305 420 l 1
 272 420 l 1
 272 412 l 1
 255 412 l 1
 255 403 l 1
 247 403 l 1
 247 395 l 1
 239 395 l 1
 239 387 l 1
 230 387 l 1
 230 378 l 1
 222 378 l 1
 222 370 l 1
 214 370 l 1
 214 353 l 1
 205 353 l 1
 205 328 l 1
 197 328 l 1
 197 237 l 1
 205 237 l 1
 205 203 l 1
 214 203 l 1
 214 187 l 1
 222 187 l 1
 222 170 l 1
 230 170 l 1
 230 162 l 1
 239 162 l 1
 239 153 l 1
 247 153 l 1
 247 145 l 1
 264 145 l 1
 264 137 l 1
 297 137 l 1
 297 128 l 1
 364 128 l 1
139 -47 m 1
 147 -47 l 1
 147 -55 l 1
 164 -55 l 1
 164 -63 l 1
 189 -63 l 1
 189 -72 l 1
 214 -72 l 1
 214 -80 l 1
 247 -80 l 1
 247 -88 l 1
 364 -88 l 1
 364 -80 l 1
 397 -80 l 1
 397 -72 l 1
 414 -72 l 1
 414 -63 l 1
 422 -63 l 1
 422 -55 l 1
 430 -55 l 1
 430 -47 l 1
 439 -47 l 1
 439 -38 l 1
 447 -38 l 1
 447 -22 l 1
 455 -22 l 1
 455 -5 l 1
 464 -5 l 1
 464 37 l 1
 472 37 l 1
 472 87 l 1
 455 87 l 1
 455 78 l 1
 447 78 l 1
 447 70 l 1
 430 70 l 1
 430 62 l 1
 414 62 l 1
 414 53 l 1
 397 53 l 1
 397 45 l 1
 355 45 l 1
 355 37 l 1
 247 37 l 1
 247 45 l 1
 214 45 l 1
 214 53 l 1
 189 53 l 1
 189 62 l 1
 172 62 l 1
 172 70 l 1
 155 70 l 1
 155 78 l 1
 147 78 l 1
 147 87 l 1
 139 87 l 1
 139 95 l 1
 130 95 l 1
 130 103 l 1
 122 103 l 1
 122 112 l 1
 114 112 l 1
 114 128 l 1
 105 128 l 1
 105 145 l 1
 97 145 l 1
 97 162 l 1
 89 162 l 1
 89 187 l 1
 80 187 l 1
 80 228 l 1
 72 228 l 1
 72 328 l 1
 80 328 l 1
 80 370 l 1
 89 370 l 1
 89 395 l 1
 97 395 l 1
 97 420 l 1
 105 420 l 1
 105 428 l 1
 114 428 l 1
 114 445 l 1
 122 445 l 1
 122 453 l 1
 130 453 l 1
 130 462 l 1
 139 462 l 1
 139 470 l 1
 147 470 l 1
 147 478 l 1
 155 478 l 1
 155 487 l 1
 172 487 l 1
 172 495 l 1
 189 495 l 1
 189 503 l 1
 205 503 l 1
 205 512 l 1
 239 512 l 1
 239 520 l 1
 380 520 l 1
 380 512 l 1
 414 512 l 1
 414 503 l 1
 430 503 l 1
 430 495 l 1
 455 495 l 1
 455 487 l 1
 480 487 l 1
 480 503 l 1
 547 503 l 1
 547 512 l 1
 589 512 l 1
 589 -5 l 1
 580 -5 l 1
 580 -30 l 1
 572 -30 l 1
 572 -55 l 1
 564 -55 l 1
 564 -72 l 1
 555 -72 l 1
 555 -88 l 1
 547 -88 l 1
 547 -97 l 1
 539 -97 l 1
 539 -105 l 1
 530 -105 l 1
 530 -113 l 1
 522 -113 l 1
 522 -122 l 1
 514 -122 l 1
 514 -130 l 1
 505 -130 l 1
 505 -138 l 1
 489 -138 l 1
 489 -147 l 1
 472 -147 l 1
 472 -155 l 1
 455 -155 l 1
 455 -163 l 1
 430 -163 l 1
 430 -172 l 1
 389 -172 l 1
 389 -180 l 1
 230 -180 l 1
 230 -172 l 1
 189 -172 l 1
 189 -163 l 1
 164 -163 l 1
 164 -155 l 1
 139 -155 l 1
 139 -63 l 1
 130 -63 l 1
 130 -55 l 1
 139 -55 l 1
 139 -47 l 1
EndSplineSet
EndChar

StartChar: h
Encoding: 104 104 67
Width: 664
GlyphClass: 1
Flags: W
LayerCount: 2
Fore
SplineSet
342 506 m 1
 452 506 l 1
 452 498 l 1
 477 498 l 1
 477 489 l 1
 494 489 l 1
 494 481 l 1
 511 481 l 1
 511 472 l 1
 519 472 l 1
 519 464 l 1
 527 464 l 1
 527 455 l 1
 536 455 l 1
 536 447 l 1
 544 447 l 1
 544 430 l 1
 553 430 l 1
 553 413 l 1
 561 413 l 1
 561 388 l 1
 570 388 l 1
 570 354 l 1
 578 354 l 1
 578 8 l 1
 468 8 l 1
 468 0 l 1
 460 0 l 1
 460 8 l 1
 452 8 l 1
 452 354 l 1
 443 354 l 1
 443 371 l 1
 435 371 l 1
 435 380 l 1
 426 380 l 1
 426 388 l 1
 418 388 l 1
 418 396 l 1
 401 396 l 1
 401 405 l 1
 300 405 l 1
 300 396 l 1
 274 396 l 1
 274 388 l 1
 258 388 l 1
 258 380 l 1
 241 380 l 1
 241 371 l 1
 224 371 l 1
 224 363 l 1
 215 363 l 1
 215 354 l 1
 207 354 l 1
 207 346 l 1
 199 346 l 1
 199 0 l 1
 190 0 l 1
 190 8 l 1
 89 8 l 1
 89 0 l 1
 80 0 l 1
 80 8 l 1
 72 8 l 1
 72 700 l 1
 199 700 l 1
 199 447 l 1
 207 447 l 1
 207 455 l 1
 224 455 l 1
 224 464 l 1
 241 464 l 1
 241 472 l 1
 258 472 l 1
 258 481 l 1
 274 481 l 1
 274 489 l 1
 308 489 l 1
 308 498 l 1
 342 498 l 1
 342 506 l 1
EndSplineSet
EndChar

StartChar: i
Encoding: 105 105 68
Width: 520
GlyphClass: 1
Flags: W
LayerCount: 2
Fore
SplineSet
267 704 m 1
 283 704 l 1
 283 696 l 1
 317 696 l 1
 317 687 l 1
 325 687 l 1
 325 679 l 1
 333 679 l 1
 333 671 l 1
 342 671 l 1
 342 596 l 1
 333 596 l 1
 333 587 l 1
 325 587 l 1
 325 579 l 1
 317 579 l 1
 317 571 l 1
 292 571 l 1
 292 562 l 1
 258 562 l 1
 258 571 l 1
 233 571 l 1
 233 579 l 1
 225 579 l 1
 225 587 l 1
 217 587 l 1
 217 596 l 1
 208 596 l 1
 208 621 l 1
 200 621 l 1
 200 646 l 1
 208 646 l 1
 208 671 l 1
 217 671 l 1
 217 679 l 1
 225 679 l 1
 225 687 l 1
 233 687 l 1
 233 696 l 1
 267 696 l 1
 267 704 l 1
211 496 m 1
 327 496 l 1
 327 4 l 1
 319 4 l 1
 319 12 l 1
 219 12 l 1
 219 4 l 1
 211 4 l 1
 211 12 l 1
 202 12 l 1
 202 21 l 1
 211 21 l 1
 211 479 l 1
 202 479 l 1
 202 487 l 1
 211 487 l 1
 211 496 l 1
EndSplineSet
EndChar

StartChar: j
Encoding: 106 106 69
Width: 605
GlyphClass: 1
Flags: W
LayerCount: 2
Fore
SplineSet
454 14 m 1048,40,-1
137 125 m 1
 149 125 l 1
 149 119 l 1
 161 119 l 1
 161 113 l 1
 172 113 l 1
 172 107 l 1
 191 107 l 1
 191 101 l 1
 214 101 l 1
 214 96 l 1
 307 96 l 1
 307 101 l 1
 319 101 l 1
 319 107 l 1
 334 107 l 1
 334 113 l 1
 340 113 l 1
 337 119 l 1
 343 119 l 1
 343 125 l 1
 349 125 l 1
 348 143 l 1
 354 143 l 1
 354 161 l 1
 360 161 l 1
 360 494 l 1
 471 494 l 1
 471 143 l 1
 465 143 l 1
 468 119 l 1
 462 119 l 1
 463 94 l 1
 457 94 l 1
 462 89 l 1
 456 89 l 1
 460 75 l 1
 455 75 l 1
 455 69 l 1
 449 69 l 1
 446 63 l 1
 440 63 l 1
 440 56 l 1
 433 56 l 1
 420 50 l 1
 414 50 l 1
 414 45 l 1
 403 45 l 1
 403 39 l 1
 391 39 l 1
 391 33 l 1
 379 33 l 1
 379 27 l 1
 361 27 l 1
 361 21 l 1
 321 24 l 1
 321 18 l 1
 238 18 l 1
 238 24 l 1
 197 24 l 1
 197 30 l 1
 172 30 l 1
 172 36 l 1
 155 36 l 1
 155 42 l 1
 137 42 l 1
 137 125 l 1
411 686 m 1
 427 686 l 1
 427 678 l 1
 461 678 l 1
 461 669 l 1
 469 669 l 1
 469 661 l 1
 477 661 l 1
 477 653 l 1
 486 653 l 1
 486 578 l 1
 477 578 l 1
 477 569 l 1
 469 569 l 1
 469 561 l 1
 461 561 l 1
 461 553 l 1
 436 553 l 1
 436 544 l 1
 402 544 l 1
 402 553 l 1
 377 553 l 1
 377 561 l 1
 369 561 l 1
 369 569 l 1
 361 569 l 1
 361 578 l 1
 352 578 l 1
 352 603 l 1
 344 603 l 1
 344 628 l 1
 352 628 l 1
 352 653 l 1
 361 653 l 1
 361 661 l 1
 369 661 l 1
 369 669 l 1
 377 669 l 1
 377 678 l 1
 411 678 l 1
 411 686 l 1
EndSplineSet
EndChar

StartChar: k
Encoding: 107 107 70
Width: 680
GlyphClass: 1
Flags: W
LayerCount: 2
Fore
SplineSet
409 498 m 1
 570 498 l 1
 570 489 l 1
 561 489 l 1
 561 481 l 1
 553 481 l 1
 553 472 l 1
 544 472 l 1
 544 464 l 1
 536 464 l 1
 536 455 l 1
 527 455 l 1
 527 447 l 1
 519 447 l 1
 519 439 l 1
 511 439 l 1
 511 430 l 1
 494 430 l 1
 494 422 l 1
 485 422 l 1
 485 413 l 1
 477 413 l 1
 477 405 l 1
 468 405 l 1
 468 396 l 1
 460 396 l 1
 460 388 l 1
 452 388 l 1
 452 380 l 1
 443 380 l 1
 443 371 l 1
 435 371 l 1
 435 363 l 1
 426 363 l 1
 426 354 l 1
 418 354 l 1
 418 346 l 1
 401 346 l 1
 401 337 l 1
 392 337 l 1
 392 329 l 1
 384 329 l 1
 384 320 l 1
 376 320 l 1
 376 312 l 1
 367 312 l 1
 367 304 l 1
 359 304 l 1
 359 287 l 1
 367 287 l 1
 367 278 l 1
 376 278 l 1
 376 261 l 1
 384 261 l 1
 384 253 l 1
 392 253 l 1
 392 245 l 1
 401 245 l 1
 401 236 l 1
 409 236 l 1
 409 228 l 1
 418 228 l 1
 418 219 l 1
 426 219 l 1
 426 202 l 1
 435 202 l 1
 435 194 l 1
 443 194 l 1
 443 186 l 1
 452 186 l 1
 452 177 l 1
 460 177 l 1
 460 169 l 1
 468 169 l 1
 468 152 l 1
 477 152 l 1
 477 143 l 1
 485 143 l 1
 485 135 l 1
 494 135 l 1
 494 127 l 1
 502 127 l 1
 502 118 l 1
 511 118 l 1
 511 101 l 1
 519 101 l 1
 519 93 l 1
 527 93 l 1
 527 84 l 1
 536 84 l 1
 536 76 l 1
 544 76 l 1
 544 67 l 1
 553 67 l 1
 553 59 l 1
 561 59 l 1
 561 42 l 1
 570 42 l 1
 570 34 l 1
 578 34 l 1
 578 25 l 1
 586 25 l 1
 586 17 l 1
 595 17 l 1
 595 8 l 1
 435 8 l 1
 435 25 l 1
 426 25 l 1
 426 34 l 1
 418 34 l 1
 418 42 l 1
 409 42 l 1
 409 51 l 1
 401 51 l 1
 401 59 l 1
 392 59 l 1
 392 67 l 1
 384 67 l 1
 384 84 l 1
 376 84 l 1
 376 93 l 1
 367 93 l 1
 367 101 l 1
 359 101 l 1
 359 110 l 1
 350 110 l 1
 350 127 l 1
 342 127 l 1
 342 135 l 1
 333 135 l 1
 333 143 l 1
 325 143 l 1
 325 152 l 1
 317 152 l 1
 317 169 l 1
 308 169 l 1
 308 177 l 1
 300 177 l 1
 300 186 l 1
 291 186 l 1
 291 194 l 1
 283 194 l 1
 283 211 l 1
 274 211 l 1
 274 219 l 1
 266 219 l 1
 266 228 l 1
 258 228 l 1
 258 219 l 1
 249 219 l 1
 249 211 l 1
 241 211 l 1
 241 202 l 1
 232 202 l 1
 232 194 l 1
 215 194 l 1
 215 186 l 1
 207 186 l 1
 207 177 l 1
 199 177 l 1
 199 0 l 1
 190 0 l 1
 190 8 l 1
 89 8 l 1
 89 0 l 1
 80 0 l 1
 80 8 l 1
 72 8 l 1
 72 700 l 1
 199 700 l 1
 199 295 l 1
 207 295 l 1
 207 304 l 1
 215 304 l 1
 215 312 l 1
 224 312 l 1
 224 320 l 1
 232 320 l 1
 232 329 l 1
 241 329 l 1
 241 337 l 1
 249 337 l 1
 249 346 l 1
 258 346 l 1
 258 354 l 1
 266 354 l 1
 266 363 l 1
 274 363 l 1
 274 371 l 1
 283 371 l 1
 283 380 l 1
 300 380 l 1
 300 388 l 1
 308 388 l 1
 308 396 l 1
 317 396 l 1
 317 405 l 1
 325 405 l 1
 325 413 l 1
 333 413 l 1
 333 422 l 1
 342 422 l 1
 342 430 l 1
 350 430 l 1
 350 439 l 1
 359 439 l 1
 359 447 l 1
 367 447 l 1
 367 455 l 1
 376 455 l 1
 376 464 l 1
 384 464 l 1
 384 472 l 1
 392 472 l 1
 392 481 l 1
 401 481 l 1
 401 489 l 1
 409 489 l 1
 409 498 l 1
EndSplineSet
EndChar

StartChar: l
Encoding: 108 108 71
Width: 520
GlyphClass: 1
Flags: W
LayerCount: 2
Fore
SplineSet
309 4 m 1
 309 12 l 1
 209 12 l 1
 209 4 l 1
 201 4 l 1
 201 12 l 1
 192 12 l 1
 192 21 l 1
 201 21 l 1
 201 509 l 1
 192 509 l 1
 192 517 l 1
 201 517 l 1
 197 726 l 1
 320 726 l 1
 317 4 l 1
 309 4 l 1
EndSplineSet
EndChar

StartChar: m
Encoding: 109 109 72
Width: 1038
GlyphClass: 1
Flags: W
LayerCount: 2
Fore
SplineSet
133 493 m 1
 252 493 l 1
 252 442 l 1
 260 442 l 1
 260 450 l 1
 278 450 l 1
 278 459 l 1
 286 459 l 1
 286 468 l 1
 303 468 l 1
 303 476 l 1
 320 476 l 1
 320 484 l 1
 337 484 l 1
 337 493 l 1
 371 493 l 1
 371 501 l 1
 498 501 l 1
 498 493 l 1
 515 493 l 1
 515 484 l 1
 532 484 l 1
 532 476 l 1
 549 476 l 1
 549 468 l 1
 558 468 l 1
 558 459 l 1
 566 459 l 1
 566 450 l 1
 575 450 l 1
 575 442 l 1
 583 442 l 1
 583 425 l 1
 600 425 l 1
 600 433 l 1
 609 433 l 1
 609 442 l 1
 617 442 l 1
 617 450 l 1
 626 450 l 1
 626 459 l 1
 643 459 l 1
 643 468 l 1
 651 468 l 1
 651 476 l 1
 668 476 l 1
 668 484 l 1
 685 484 l 1
 685 493 l 1
 711 493 l 1
 711 501 l 1
 770 501 l 1
 770 510 l 1
 787 510 l 1
 787 501 l 1
 847 501 l 1
 847 493 l 1
 864 493 l 1
 864 484 l 1
 881 484 l 1
 881 476 l 1
 889 476 l 1
 889 468 l 1
 898 468 l 1
 898 459 l 1
 906 459 l 1
 906 450 l 1
 915 450 l 1
 915 442 l 1
 923 442 l 1
 923 425 l 1
 932 425 l 1
 932 400 l 1
 940 400 l 1
 940 366 l 1
 949 366 l 1
 949 0 l 1
 821 0 l 1
 821 331 l 1
 813 331 l 1
 813 357 l 1
 804 357 l 1
 804 374 l 1
 796 374 l 1
 796 382 l 1
 787 382 l 1
 787 391 l 1
 762 391 l 1
 762 400 l 1
 694 400 l 1
 694 391 l 1
 668 391 l 1
 668 382 l 1
 651 382 l 1
 651 374 l 1
 634 374 l 1
 634 366 l 1
 626 366 l 1
 626 357 l 1
 617 357 l 1
 617 348 l 1
 609 348 l 1
 609 0 l 1
 482 0 l 1
 482 340 l 1
 473 340 l 1
 473 357 l 1
 464 357 l 1
 464 374 l 1
 456 374 l 1
 456 382 l 1
 447 382 l 1
 447 391 l 1
 422 391 l 1
 422 400 l 1
 354 400 l 1
 354 391 l 1
 328 391 l 1
 328 382 l 1
 312 382 l 1
 312 374 l 1
 294 374 l 1
 294 366 l 1
 286 366 l 1
 286 357 l 1
 269 357 l 1
 269 348 l 1
 260 348 l 1
 260 340 l 1
 252 340 l 1
 252 331 l 1
 260 331 l 1
 260 221 l 1
 252 221 l 1
 252 0 l 1
 133 0 l 1
 133 493 l 1
EndSplineSet
EndChar

StartChar: n
Encoding: 110 110 73
Width: 520
GlyphClass: 1
Flags: W
LayerCount: 2
Fore
SplineSet
508 352 m 1,68,-1
 508 4 l 1,69,-1
 381 4 l 1,70,-1
 381 344 l 1,71,-1
 372 344 l 1,72,-1
 372 361 l 1,73,-1
 363 361 l 1,74,-1
 363 378 l 1,75,-1
 355 378 l 1,76,-1
 355 386 l 1,77,-1
 346 386 l 1,78,-1
 346 395 l 1,79,-1
 321 395 l 1,80,-1
 321 404 l 1,81,-1
 253 404 l 1,82,-1
 253 395 l 1,83,-1
 227 395 l 1,84,-1
 227 386 l 1,85,-1
 211 386 l 1,86,-1
 211 378 l 1,87,-1
 193 378 l 1,88,-1
 193 370 l 1,89,-1
 185 370 l 1,90,-1
 185 361 l 1,91,-1
 168 361 l 1,92,-1
 168 352 l 1,93,-1
 159 352 l 1,94,-1
 159 344 l 1,95,-1
 151 344 l 1,96,-1
 151 335 l 1,97,-1
 159 335 l 1,98,-1
 159 225 l 1,99,-1
 151 225 l 1,100,-1
 151 4 l 1,101,-1
 32 4 l 1,102,-1
 32 497 l 1,103,-1
 151 497 l 1,104,-1
 151 446 l 1,105,-1
 159 446 l 1,106,-1
 159 454 l 1,107,-1
 177 454 l 1,108,-1
 177 463 l 1,109,-1
 185 463 l 1,110,-1
 185 472 l 1,111,-1
 202 472 l 1,112,-1
 202 480 l 1,113,-1
 219 480 l 1,114,-1
 219 488 l 1,115,-1
 236 488 l 1,116,-1
 236 497 l 1,117,-1
 270 497 l 1,118,-1
 270 505 l 1,119,-1
 397 505 l 1,120,-1
 397 497 l 1,121,-1
 414 497 l 1,122,-1
 414 488 l 1,123,-1
 431 488 l 1,124,-1
 431 480 l 1,125,-1
 448 480 l 1,126,-1
 448 472 l 1,127,-1
 457 472 l 1,128,-1
 457 463 l 1,129,-1
 465 463 l 1,130,-1
 465 454 l 1,131,-1
 474 454 l 1,132,-1
 474 446 l 1,133,-1
 482 446 l 1,134,-1
 493 427 l 1,135,-1
 499 409 l 1,136,-1
 508 352 l 1,137,-1
 499 409 l 1025,138,-1
501 380 m 25,2,-1
 505 352 l 1,3,-1
 507 280 l 1,4,-1
 509 176 l 1025,5,-1
501 318 m 1,0,-1
 507 234 l 1049,1,-1
136 502 m 1
 154 502 l 1
 154 442 l 1
 162 442 l 1
 162 450 l 1
 171 450 l 1
 171 459 l 1
 188 459 l 1
 188 468 l 1
 197 468 l 1
 197 476 l 1
 214 476 l 1
 214 485 l 1
 223 485 l 1
 223 494 l 1
 249 494 l 1
 249 502 l 1
 275 502 l 1
 275 511 l 1
 415 505 l 1
 482 446 l 1
 505 352 l 1
 508 4 l 1
 381 4 l 1
 379 346 l 1
 378 346 378 346 348 407 c 1
 266 407 l 1
 266 399 l 1
 240 399 l 1
 240 390 l 1
 223 390 l 1
 223 381 l 1
 206 381 l 1
 206 373 l 1
 197 373 l 1
 197 364 l 1
 188 364 l 1
 188 355 l 1
 180 355 l 1
 180 347 l 1
 171 347 l 1
 171 338 l 1
 162 338 l 1
 162 329 l 1
 154 329 l 1
 154 1 l 1
 24 1 l 1
 24 10 l 1
 33 10 l 1
 33 485 l 1
 24 485 l 1
 24 494 l 1
 33 494 l 1
 33 502 l 1
 128 502 l 1
 128 494 l 1
 136 494 l 1
 136 502 l 1
EndSplineSet
EndChar

StartChar: o
Encoding: 111 111 74
Width: 707
GlyphClass: 1
Flags: W
LayerCount: 2
Fore
SplineSet
373 92 m 1
 373 100 l 1
 414 100 l 1
 414 109 l 1
 431 109 l 1
 431 117 l 1
 448 117 l 1
 448 125 l 1
 456 125 l 1
 456 134 l 1
 465 134 l 1
 465 142 l 1
 473 142 l 1
 473 159 l 1
 481 159 l 1
 481 176 l 1
 490 176 l 1
 490 201 l 1
 498 201 l 1
 498 309 l 1
 490 309 l 1
 490 343 l 1
 481 343 l 1
 481 360 l 1
 473 360 l 1
 473 376 l 1
 465 376 l 1
 465 385 l 1
 456 385 l 1
 456 393 l 1
 448 393 l 1
 448 401 l 1
 440 401 l 1
 440 410 l 1
 414 410 l 1
 414 418 l 1
 389 418 l 1
 389 426 l 1
 322 426 l 1
 322 418 l 1
 289 418 l 1
 289 410 l 1
 272 410 l 1
 272 401 l 1
 256 401 l 1
 256 393 l 1
 247 393 l 1
 247 385 l 1
 239 385 l 1
 239 376 l 1
 230 376 l 1
 230 360 l 1
 222 360 l 1
 222 343 l 1
 214 343 l 1
 214 326 l 1
 205 326 l 1
 205 192 l 1
 214 192 l 1
 214 167 l 1
 222 167 l 1
 222 150 l 1
 230 150 l 1
 230 142 l 1
 239 142 l 1
 239 134 l 1
 247 134 l 1
 247 125 l 1
 256 125 l 1
 256 117 l 1
 272 117 l 1
 272 109 l 1
 289 109 l 1
 289 100 l 1
 331 100 l 1
 331 92 l 1
 373 92 l 1
281 510 m 1
 423 510 l 1
 423 502 l 1
 456 502 l 1
 456 493 l 1
 481 493 l 1
 481 485 l 1
 498 485 l 1
 498 477 l 1
 515 477 l 1
 515 468 l 1
 531 468 l 1
 531 460 l 1
 540 460 l 1
 540 451 l 1
 548 451 l 1
 548 443 l 1
 557 443 l 1
 557 435 l 1
 565 435 l 1
 565 426 l 1
 573 426 l 1
 573 418 l 1
 582 418 l 1
 582 401 l 1
 590 401 l 1
 590 385 l 1
 598 385 l 1
 598 368 l 1
 607 368 l 1
 607 351 l 1
 615 351 l 1
 615 309 l 1
 623 309 l 1
 623 201 l 1
 615 201 l 1
 615 167 l 1
 607 167 l 1
 607 142 l 1
 598 142 l 1
 598 125 l 1
 590 125 l 1
 590 109 l 1
 582 109 l 1
 582 100 l 1
 573 100 l 1
 573 84 l 1
 565 84 l 1
 565 75 l 1
 557 75 l 1
 557 67 l 1
 540 67 l 1
 540 59 l 1
 531 59 l 1
 531 50 l 1
 523 50 l 1
 523 42 l 1
 506 42 l 1
 506 33 l 1
 490 33 l 1
 490 25 l 1
 473 25 l 1
 473 17 l 1
 440 17 l 1
 440 8 l 1
 364 8 l 1
 364 0 l 1
 322 0 l 1
 322 8 l 1
 264 8 l 1
 264 17 l 1
 239 17 l 1
 239 25 l 1
 214 25 l 1
 214 33 l 1
 197 33 l 1
 197 42 l 1
 180 42 l 1
 180 50 l 1
 172 50 l 1
 172 59 l 1
 155 59 l 1
 155 67 l 1
 147 67 l 1
 147 75 l 1
 139 75 l 1
 139 84 l 1
 130 84 l 1
 130 92 l 1
 122 92 l 1
 122 109 l 1
 113 109 l 1
 113 117 l 1
 105 117 l 1
 105 142 l 1
 97 142 l 1
 97 159 l 1
 88 159 l 1
 88 192 l 1
 80 192 l 1
 80 318 l 1
 88 318 l 1
 88 351 l 1
 97 351 l 1
 97 376 l 1
 105 376 l 1
 105 393 l 1
 113 393 l 1
 113 410 l 1
 122 410 l 1
 122 418 l 1
 130 418 l 1
 130 426 l 1
 139 426 l 1
 139 435 l 1
 147 435 l 1
 147 443 l 1
 155 443 l 1
 155 451 l 1
 164 451 l 1
 164 460 l 1
 172 460 l 1
 172 468 l 1
 189 468 l 1
 189 477 l 1
 205 477 l 1
 205 485 l 1
 222 485 l 1
 222 493 l 1
 247 493 l 1
 247 502 l 1
 281 502 l 1
 281 510 l 1
EndSplineSet
EndChar

StartChar: p
Encoding: 112 112 75
Width: 680
GlyphClass: 1
Flags: W
LayerCount: 2
Fore
SplineSet
367 107 m 1
 367 115 l 1
 392 115 l 1
 392 124 l 1
 409 124 l 1
 409 132 l 1
 418 132 l 1
 418 140 l 1
 426 140 l 1
 426 149 l 1
 435 149 l 1
 435 157 l 1
 443 157 l 1
 443 166 l 1
 452 166 l 1
 452 183 l 1
 460 183 l 1
 460 216 l 1
 468 216 l 1
 468 318 l 1
 460 318 l 1
 460 343 l 1
 452 343 l 1
 452 360 l 1
 443 360 l 1
 443 377 l 1
 435 377 l 1
 435 385 l 1
 426 385 l 1
 426 393 l 1
 418 393 l 1
 418 402 l 1
 401 402 l 1
 401 410 l 1
 384 410 l 1
 384 419 l 1
 274 419 l 1
 274 410 l 1
 249 410 l 1
 249 402 l 1
 232 402 l 1
 232 393 l 1
 215 393 l 1
 215 385 l 1
 199 385 l 1
 199 377 l 1
 190 377 l 1
 190 360 l 1
 199 360 l 1
 199 149 l 1
 190 149 l 1
 190 140 l 1
 199 140 l 1
 199 132 l 1
 215 132 l 1
 215 124 l 1
 241 124 l 1
 241 115 l 1
 274 115 l 1
 274 107 l 1
 367 107 l 1
165 512 m 1
 173 512 l 1
 173 503 l 1
 182 503 l 1
 182 469 l 1
 199 469 l 1
 199 478 l 1
 215 478 l 1
 215 486 l 1
 224 486 l 1
 224 495 l 1
 249 495 l 1
 249 503 l 1
 274 503 l 1
 274 512 l 1
 308 512 l 1
 308 520 l 1
 418 520 l 1
 418 512 l 1
 452 512 l 1
 452 503 l 1
 477 503 l 1
 477 495 l 1
 494 495 l 1
 494 486 l 1
 502 486 l 1
 502 478 l 1
 511 478 l 1
 511 469 l 1
 527 469 l 1
 527 453 l 1
 536 453 l 1
 536 444 l 1
 544 444 l 1
 544 436 l 1
 553 436 l 1
 553 427 l 1
 561 427 l 1
 561 410 l 1
 570 410 l 1
 570 393 l 1
 578 393 l 1
 578 368 l 1
 586 368 l 1
 586 334 l 1
 595 334 l 1
 595 208 l 1
 586 208 l 1
 586 166 l 1
 578 166 l 1
 578 140 l 1
 570 140 l 1
 570 124 l 1
 561 124 l 1
 561 115 l 1
 553 115 l 1
 553 98 l 1
 544 98 l 1
 544 90 l 1
 536 90 l 1
 536 81 l 1
 527 81 l 1
 527 73 l 1
 519 73 l 1
 519 65 l 1
 511 65 l 1
 511 56 l 1
 502 56 l 1
 502 48 l 1
 485 48 l 1
 485 39 l 1
 468 39 l 1
 468 31 l 1
 452 31 l 1
 452 22 l 1
 426 22 l 1
 426 14 l 1
 274 14 l 1
 274 22 l 1
 249 22 l 1
 249 31 l 1
 224 31 l 1
 224 39 l 1
 207 39 l 1
 207 48 l 1
 190 48 l 1
 190 39 l 1
 199 39 l 1
 199 -180 l 1
 72 -180 l 1
 72 512 l 1
 131 512 l 1
 131 503 l 1
 165 503 l 1
 165 512 l 1
EndSplineSet
EndChar

StartChar: q
Encoding: 113 113 76
Width: 680
GlyphClass: 1
Flags: W
LayerCount: 2
Fore
SplineSet
376 107 m 1
 376 115 l 1
 401 115 l 1
 401 124 l 1
 426 124 l 1
 426 132 l 1
 443 132 l 1
 443 140 l 1
 452 140 l 1
 452 149 l 1
 468 149 l 1
 468 393 l 1
 460 393 l 1
 460 402 l 1
 452 402 l 1
 452 410 l 1
 426 410 l 1
 426 419 l 1
 392 419 l 1
 392 427 l 1
 308 427 l 1
 308 419 l 1
 274 419 l 1
 274 410 l 1
 266 410 l 1
 266 402 l 1
 249 402 l 1
 249 393 l 1
 241 393 l 1
 241 385 l 1
 232 385 l 1
 232 377 l 1
 224 377 l 1
 224 360 l 1
 215 360 l 1
 215 343 l 1
 207 343 l 1
 207 318 l 1
 199 318 l 1
 199 225 l 1
 207 225 l 1
 207 191 l 1
 215 191 l 1
 215 174 l 1
 224 174 l 1
 224 157 l 1
 232 157 l 1
 232 149 l 1
 241 149 l 1
 241 140 l 1
 249 140 l 1
 249 132 l 1
 258 132 l 1
 258 124 l 1
 274 124 l 1
 274 115 l 1
 300 115 l 1
 300 107 l 1
 376 107 l 1
578 512 m 1
 595 512 l 1
 595 -180 l 1
 468 -180 l 1
 468 56 l 1
 460 56 l 1
 460 48 l 1
 443 48 l 1
 443 39 l 1
 426 39 l 1
 426 31 l 1
 409 31 l 1
 409 22 l 1
 384 22 l 1
 384 14 l 1
 342 14 l 1
 342 6 l 1
 291 6 l 1
 291 14 l 1
 232 14 l 1
 232 22 l 1
 207 22 l 1
 207 31 l 1
 190 31 l 1
 190 39 l 1
 173 39 l 1
 173 48 l 1
 165 48 l 1
 165 56 l 1
 156 56 l 1
 156 65 l 1
 148 65 l 1
 148 73 l 1
 139 73 l 1
 139 81 l 1
 131 81 l 1
 131 90 l 1
 123 90 l 1
 123 107 l 1
 114 107 l 1
 114 115 l 1
 106 115 l 1
 106 132 l 1
 97 132 l 1
 97 157 l 1
 89 157 l 1
 89 183 l 1
 80 183 l 1
 80 259 l 1
 72 259 l 1
 72 292 l 1
 80 292 l 1
 80 351 l 1
 89 351 l 1
 89 385 l 1
 97 385 l 1
 97 402 l 1
 106 402 l 1
 106 419 l 1
 114 419 l 1
 114 427 l 1
 123 427 l 1
 123 444 l 1
 131 444 l 1
 131 453 l 1
 139 453 l 1
 139 461 l 1
 148 461 l 1
 148 469 l 1
 156 469 l 1
 156 478 l 1
 173 478 l 1
 173 486 l 1
 182 486 l 1
 182 495 l 1
 199 495 l 1
 199 503 l 1
 215 503 l 1
 215 512 l 1
 249 512 l 1
 249 520 l 1
 392 520 l 1
 392 512 l 1
 426 512 l 1
 426 503 l 1
 452 503 l 1
 452 495 l 1
 468 495 l 1
 468 486 l 1
 485 486 l 1
 485 495 l 1
 494 495 l 1
 494 503 l 1
 536 503 l 1
 536 512 l 1
 570 512 l 1
 570 503 l 1
 578 503 l 1
 578 512 l 1
EndSplineSet
EndChar

StartChar: r
Encoding: 114 114 77
Width: 520
GlyphClass: 1
Flags: W
LayerCount: 2
Fore
SplineSet
218 501 m 1
 236 501 l 1
 236 441 l 1
 244 441 l 1
 244 449 l 1
 253 449 l 1
 253 458 l 1
 270 458 l 1
 270 467 l 1
 279 467 l 1
 279 475 l 1
 296 475 l 1
 296 484 l 1
 305 484 l 1
 305 493 l 1
 331 493 l 1
 331 501 l 1
 357 501 l 1
 357 510 l 1
 434 510 l 1
 434 424 l 1
 426 424 l 1
 426 415 l 1
 434 415 l 1
 434 406 l 1
 348 406 l 1
 348 398 l 1
 322 398 l 1
 322 389 l 1
 305 389 l 1
 305 380 l 1
 288 380 l 1
 288 372 l 1
 279 372 l 1
 279 363 l 1
 270 363 l 1
 270 354 l 1
 262 354 l 1
 262 346 l 1
 253 346 l 1
 253 337 l 1
 244 337 l 1
 244 328 l 1
 236 328 l 1
 236 0 l 1
 106 0 l 1
 106 9 l 1
 115 9 l 1
 115 484 l 1
 106 484 l 1
 106 493 l 1
 115 493 l 1
 115 501 l 1
 210 501 l 1
 210 493 l 1
 218 493 l 1
 218 501 l 1
EndSplineSet
EndChar

StartChar: s
Encoding: 115 115 78
Width: 574
GlyphClass: 1
Flags: W
LayerCount: 2
Fore
SplineSet
72 128 m 1
 98 128 l 1
 98 119 l 1
 114 119 l 1
 114 110 l 1
 140 110 l 1
 140 102 l 1
 174 102 l 1
 174 94 l 1
 242 94 l 1
 242 85 l 1
 293 85 l 1
 293 94 l 1
 336 94 l 1
 336 102 l 1
 352 102 l 1
 352 110 l 1
 361 110 l 1
 361 119 l 1
 370 119 l 1
 370 170 l 1
 361 170 l 1
 361 178 l 1
 352 178 l 1
 352 187 l 1
 336 187 l 1
 336 196 l 1
 310 196 l 1
 310 204 l 1
 284 204 l 1
 284 212 l 1
 242 212 l 1
 242 221 l 1
 208 221 l 1
 208 230 l 1
 182 230 l 1
 182 238 l 1
 157 238 l 1
 157 246 l 1
 140 246 l 1
 140 255 l 1
 132 255 l 1
 132 264 l 1
 114 264 l 1
 114 272 l 1
 106 272 l 1
 106 280 l 1
 98 280 l 1
 98 298 l 1
 89 298 l 1
 89 314 l 1
 80 314 l 1
 80 416 l 1
 89 416 l 1
 89 433 l 1
 98 433 l 1
 98 450 l 1
 106 450 l 1
 106 459 l 1
 114 459 l 1
 114 468 l 1
 123 468 l 1
 123 476 l 1
 140 476 l 1
 140 484 l 1
 157 484 l 1
 157 493 l 1
 174 493 l 1
 174 501 l 1
 216 501 l 1
 216 510 l 1
 370 510 l 1
 370 501 l 1
 412 501 l 1
 412 493 l 1
 446 493 l 1
 446 484 l 1
 463 484 l 1
 463 382 l 1
 454 382 l 1
 454 391 l 1
 429 391 l 1
 429 400 l 1
 403 400 l 1
 403 408 l 1
 370 408 l 1
 370 416 l 1
 234 416 l 1
 234 408 l 1
 216 408 l 1
 216 400 l 1
 208 400 l 1
 208 391 l 1
 200 391 l 1
 200 348 l 1
 208 348 l 1
 208 340 l 1
 216 340 l 1
 216 331 l 1
 234 331 l 1
 234 323 l 1
 268 323 l 1
 268 314 l 1
 293 314 l 1
 293 306 l 1
 327 306 l 1
 327 298 l 1
 361 298 l 1
 361 289 l 1
 386 289 l 1
 386 280 l 1
 403 280 l 1
 403 272 l 1
 420 272 l 1
 420 264 l 1
 438 264 l 1
 438 255 l 1
 446 255 l 1
 446 246 l 1
 454 246 l 1
 454 238 l 1
 463 238 l 1
 463 230 l 1
 472 230 l 1
 472 221 l 1
 480 221 l 1
 480 196 l 1
 488 196 l 1
 488 102 l 1
 480 102 l 1
 480 85 l 1
 472 85 l 1
 472 68 l 1
 463 68 l 1
 463 60 l 1
 454 60 l 1
 454 51 l 1
 446 51 l 1
 446 42 l 1
 438 42 l 1
 438 34 l 1
 420 34 l 1
 420 26 l 1
 412 26 l 1
 412 17 l 1
 386 17 l 1
 386 8 l 1
 352 8 l 1
 352 0 l 1
 174 0 l 1
 174 8 l 1
 123 8 l 1
 123 17 l 1
 98 17 l 1
 98 26 l 1
 72 26 l 1
 72 128 l 1
EndSplineSet
EndChar

StartChar: t
Encoding: 116 116 79
Width: 568
GlyphClass: 1
Flags: W
LayerCount: 2
Fore
SplineSet
476 132 m 1
 495 132 l 1
 495 19 l 1
 476 19 l 1
 476 9 l 1
 438 9 l 1
 438 0 l 1
 259 0 l 1
 259 9 l 1
 240 9 l 1
 240 19 l 1
 221 19 l 1
 221 28 l 1
 211 28 l 1
 211 38 l 1
 202 38 l 1
 202 47 l 1
 192 47 l 1
 192 57 l 1
 183 57 l 1
 183 85 l 1
 174 85 l 1
 174 123 l 1
 164 123 l 1
 164 464 l 1
 60 464 l 1
 60 558 l 1
 164 558 l 1
 164 700 l 1
 306 700 l 1
 306 549 l 1
 315 549 l 1
 315 558 l 1
 495 558 l 1
 495 473 l 1
 505 473 l 1
 505 464 l 1
 306 464 l 1
 306 151 l 1
 315 151 l 1
 315 132 l 1
 325 132 l 1
 325 123 l 1
 334 123 l 1
 334 114 l 1
 353 114 l 1
 353 104 l 1
 419 104 l 1
 419 114 l 1
 457 114 l 1
 457 123 l 1
 476 123 l 1
 476 132 l 1
EndSplineSet
EndChar

StartChar: u
Encoding: 117 117 80
Width: 659
GlyphClass: 1
Flags: W
LayerCount: 2
Fore
SplineSet
444 510 m 1
 573 510 l 1
 573 9 l 1
 461 9 l 1
 461 35 l 1
 452 35 l 1
 452 52 l 1
 444 52 l 1
 444 43 l 1
 426 43 l 1
 426 35 l 1
 409 35 l 1
 409 26 l 1
 392 26 l 1
 392 17 l 1
 366 17 l 1
 366 9 l 1
 331 9 l 1
 331 0 l 1
 202 0 l 1
 202 9 l 1
 167 9 l 1
 167 17 l 1
 150 17 l 1
 150 26 l 1
 141 26 l 1
 141 35 l 1
 124 35 l 1
 124 43 l 1
 115 43 l 1
 115 52 l 1
 107 52 l 1
 107 69 l 1
 98 69 l 1
 98 86 l 1
 89 86 l 1
 89 104 l 1
 81 104 l 1
 81 138 l 1
 72 138 l 1
 72 510 l 1
 193 510 l 1
 193 501 l 1
 202 501 l 1
 202 493 l 1
 193 493 l 1
 193 190 l 1
 202 190 l 1
 202 156 l 1
 210 156 l 1
 210 130 l 1
 219 130 l 1
 219 121 l 1
 236 121 l 1
 236 112 l 1
 245 112 l 1
 245 104 l 1
 288 104 l 1
 288 95 l 1
 340 95 l 1
 340 104 l 1
 375 104 l 1
 375 112 l 1
 400 112 l 1
 400 121 l 1
 418 121 l 1
 418 130 l 1
 426 130 l 1
 426 138 l 1
 444 138 l 1
 444 510 l 1
EndSplineSet
EndChar

StartChar: v
Encoding: 118 118 81
Width: 711
GlyphClass: 1
Flags: W
LayerCount: 2
Fore
SplineSet
503 510 m 1
 626 510 l 1
 626 484 l 1
 617 484 l 1
 617 466 l 1
 608 466 l 1
 608 440 l 1
 600 440 l 1
 600 422 l 1
 591 422 l 1
 591 396 l 1
 582 396 l 1
 582 378 l 1
 573 378 l 1
 573 352 l 1
 564 352 l 1
 564 334 l 1
 556 334 l 1
 556 317 l 1
 547 317 l 1
 547 290 l 1
 538 290 l 1
 538 273 l 1
 529 273 l 1
 529 246 l 1
 520 246 l 1
 520 229 l 1
 512 229 l 1
 512 202 l 1
 503 202 l 1
 503 185 l 1
 494 185 l 1
 494 167 l 1
 485 167 l 1
 485 141 l 1
 476 141 l 1
 476 123 l 1
 468 123 l 1
 468 97 l 1
 459 97 l 1
 459 79 l 1
 450 79 l 1
 450 53 l 1
 441 53 l 1
 441 35 l 1
 433 35 l 1
 433 18 l 1
 424 18 l 1
 424 0 l 1
 265 0 l 1
 265 26 l 1
 257 26 l 1
 257 44 l 1
 248 44 l 1
 248 70 l 1
 239 70 l 1
 239 97 l 1
 230 97 l 1
 230 114 l 1
 221 114 l 1
 221 141 l 1
 213 141 l 1
 213 167 l 1
 204 167 l 1
 204 185 l 1
 195 185 l 1
 195 211 l 1
 186 211 l 1
 186 237 l 1
 178 237 l 1
 178 255 l 1
 169 255 l 1
 169 281 l 1
 160 281 l 1
 160 308 l 1
 151 308 l 1
 151 325 l 1
 142 325 l 1
 142 352 l 1
 134 352 l 1
 134 369 l 1
 125 369 l 1
 125 387 l 1
 116 387 l 1
 116 413 l 1
 107 413 l 1
 107 431 l 1
 98 431 l 1
 98 457 l 1
 90 457 l 1
 90 475 l 1
 81 475 l 1
 81 492 l 1
 72 492 l 1
 72 510 l 1
 213 510 l 1
 213 501 l 1
 221 501 l 1
 221 484 l 1
 230 484 l 1
 230 457 l 1
 239 457 l 1
 239 431 l 1
 248 431 l 1
 248 404 l 1
 257 404 l 1
 257 378 l 1
 265 378 l 1
 265 352 l 1
 274 352 l 1
 274 334 l 1
 283 334 l 1
 283 308 l 1
 292 308 l 1
 292 281 l 1
 301 281 l 1
 301 264 l 1
 309 264 l 1
 309 237 l 1
 318 237 l 1
 318 220 l 1
 327 220 l 1
 327 193 l 1
 336 193 l 1
 336 167 l 1
 345 167 l 1
 345 149 l 1
 353 149 l 1
 353 132 l 1
 362 132 l 1
 362 158 l 1
 371 158 l 1
 371 176 l 1
 380 176 l 1
 380 202 l 1
 389 202 l 1
 389 220 l 1
 397 220 l 1
 397 246 l 1
 406 246 l 1
 406 264 l 1
 415 264 l 1
 415 290 l 1
 424 290 l 1
 424 317 l 1
 433 317 l 1
 433 334 l 1
 441 334 l 1
 441 361 l 1
 450 361 l 1
 450 378 l 1
 459 378 l 1
 459 404 l 1
 468 404 l 1
 468 422 l 1
 476 422 l 1
 476 448 l 1
 485 448 l 1
 485 466 l 1
 494 466 l 1
 494 492 l 1
 503 492 l 1
 503 510 l 1
EndSplineSet
EndChar

StartChar: w
Encoding: 119 119 82
Width: 1019
GlyphClass: 1
Flags: W
LayerCount: 2
Fore
SplineSet
920 510 m 1
 929 510 l 1
 929 484 l 1
 920 484 l 1
 920 457 l 1
 912 457 l 1
 912 431 l 1
 903 431 l 1
 903 413 l 1
 894 413 l 1
 894 387 l 1
 885 387 l 1
 885 361 l 1
 876 361 l 1
 876 343 l 1
 868 343 l 1
 868 317 l 1
 859 317 l 1
 859 290 l 1
 850 290 l 1
 850 273 l 1
 841 273 l 1
 841 246 l 1
 832 246 l 1
 832 220 l 1
 824 220 l 1
 824 202 l 1
 815 202 l 1
 815 176 l 1
 806 176 l 1
 806 149 l 1
 797 149 l 1
 797 123 l 1
 788 123 l 1
 788 106 l 1
 780 106 l 1
 780 79 l 1
 771 79 l 1
 771 53 l 1
 762 53 l 1
 762 35 l 1
 753 35 l 1
 753 9 l 1
 744 9 l 1
 744 0 l 1
 613 0 l 1
 613 18 l 1
 604 18 l 1
 604 44 l 1
 595 44 l 1
 595 70 l 1
 586 70 l 1
 586 88 l 1
 577 88 l 1
 577 114 l 1
 569 114 l 1
 569 141 l 1
 560 141 l 1
 560 167 l 1
 551 167 l 1
 551 193 l 1
 542 193 l 1
 542 220 l 1
 533 220 l 1
 533 246 l 1
 525 246 l 1
 525 273 l 1
 516 273 l 1
 516 299 l 1
 507 299 l 1
 507 308 l 1
 498 308 l 1
 498 290 l 1
 489 290 l 1
 489 264 l 1
 481 264 l 1
 481 237 l 1
 472 237 l 1
 472 220 l 1
 463 220 l 1
 463 193 l 1
 454 193 l 1
 454 167 l 1
 446 167 l 1
 446 149 l 1
 437 149 l 1
 437 123 l 1
 428 123 l 1
 428 97 l 1
 419 97 l 1
 419 79 l 1
 410 79 l 1
 410 53 l 1
 402 53 l 1
 402 26 l 1
 393 26 l 1
 393 9 l 1
 384 9 l 1
 384 0 l 1
 261 0 l 1
 261 9 l 1
 252 9 l 1
 252 35 l 1
 243 35 l 1
 243 62 l 1
 234 62 l 1
 234 88 l 1
 226 88 l 1
 226 106 l 1
 217 106 l 1
 217 132 l 1
 208 132 l 1
 208 158 l 1
 199 158 l 1
 199 176 l 1
 191 176 l 1
 191 202 l 1
 182 202 l 1
 182 229 l 1
 173 229 l 1
 173 255 l 1
 164 255 l 1
 164 281 l 1
 155 281 l 1
 155 299 l 1
 147 299 l 1
 147 325 l 1
 138 325 l 1
 138 352 l 1
 129 352 l 1
 129 378 l 1
 120 378 l 1
 120 404 l 1
 111 404 l 1
 111 431 l 1
 103 431 l 1
 103 457 l 1
 94 457 l 1
 94 484 l 1
 85 484 l 1
 85 510 l 1
 94 510 l 1
 94 501 l 1
 226 501 l 1
 226 475 l 1
 234 475 l 1
 234 440 l 1
 243 440 l 1
 243 413 l 1
 252 413 l 1
 252 387 l 1
 261 387 l 1
 261 352 l 1
 270 352 l 1
 270 325 l 1
 278 325 l 1
 278 299 l 1
 287 299 l 1
 287 273 l 1
 296 273 l 1
 296 237 l 1
 305 237 l 1
 305 211 l 1
 314 211 l 1
 314 185 l 1
 322 185 l 1
 322 158 l 1
 331 158 l 1
 331 141 l 1
 340 141 l 1
 340 167 l 1
 349 167 l 1
 349 193 l 1
 358 193 l 1
 358 211 l 1
 366 211 l 1
 366 237 l 1
 375 237 l 1
 375 264 l 1
 384 264 l 1
 384 290 l 1
 393 290 l 1
 393 317 l 1
 402 317 l 1
 402 343 l 1
 410 343 l 1
 410 369 l 1
 419 369 l 1
 419 396 l 1
 428 396 l 1
 428 422 l 1
 437 422 l 1
 437 448 l 1
 446 448 l 1
 446 475 l 1
 454 475 l 1
 454 501 l 1
 463 501 l 1
 463 510 l 1
 481 510 l 1
 481 501 l 1
 516 501 l 1
 516 510 l 1
 542 510 l 1
 542 501 l 1
 551 501 l 1
 551 510 l 1
 560 510 l 1
 560 501 l 1
 569 501 l 1
 569 475 l 1
 577 475 l 1
 577 448 l 1
 586 448 l 1
 586 422 l 1
 595 422 l 1
 595 396 l 1
 604 396 l 1
 604 369 l 1
 613 369 l 1
 613 343 l 1
 621 343 l 1
 621 317 l 1
 630 317 l 1
 630 290 l 1
 639 290 l 1
 639 255 l 1
 648 255 l 1
 648 229 l 1
 657 229 l 1
 657 202 l 1
 665 202 l 1
 665 167 l 1
 674 167 l 1
 674 141 l 1
 683 141 l 1
 683 158 l 1
 692 158 l 1
 692 185 l 1
 701 185 l 1
 701 211 l 1
 709 211 l 1
 709 237 l 1
 718 237 l 1
 718 255 l 1
 727 255 l 1
 727 281 l 1
 736 281 l 1
 736 308 l 1
 744 308 l 1
 744 334 l 1
 753 334 l 1
 753 361 l 1
 762 361 l 1
 762 387 l 1
 771 387 l 1
 771 413 l 1
 780 413 l 1
 780 440 l 1
 788 440 l 1
 788 466 l 1
 797 466 l 1
 797 492 l 1
 806 492 l 1
 806 510 l 1
 824 510 l 1
 824 501 l 1
 920 501 l 1
 920 510 l 1
EndSplineSet
EndChar

StartChar: x
Encoding: 120 120 83
Width: 720
GlyphClass: 1
Flags: W
LayerCount: 2
Fore
SplineSet
617 510 m 1
 626 510 l 1
 626 492 l 1
 617 492 l 1
 617 484 l 1
 608 484 l 1
 608 475 l 1
 600 475 l 1
 600 466 l 1
 591 466 l 1
 591 448 l 1
 582 448 l 1
 582 440 l 1
 573 440 l 1
 573 431 l 1
 564 431 l 1
 564 422 l 1
 556 422 l 1
 556 413 l 1
 547 413 l 1
 547 396 l 1
 538 396 l 1
 538 387 l 1
 529 387 l 1
 529 378 l 1
 520 378 l 1
 520 369 l 1
 512 369 l 1
 512 361 l 1
 503 361 l 1
 503 352 l 1
 494 352 l 1
 494 334 l 1
 485 334 l 1
 485 325 l 1
 476 325 l 1
 476 317 l 1
 468 317 l 1
 468 308 l 1
 459 308 l 1
 459 299 l 1
 450 299 l 1
 450 290 l 1
 441 290 l 1
 441 273 l 1
 433 273 l 1
 433 246 l 1
 441 246 l 1
 441 237 l 1
 450 237 l 1
 450 229 l 1
 459 229 l 1
 459 220 l 1
 468 220 l 1
 468 211 l 1
 476 211 l 1
 476 193 l 1
 485 193 l 1
 485 185 l 1
 494 185 l 1
 494 176 l 1
 503 176 l 1
 503 167 l 1
 512 167 l 1
 512 158 l 1
 520 158 l 1
 520 141 l 1
 529 141 l 1
 529 132 l 1
 538 132 l 1
 538 123 l 1
 547 123 l 1
 547 114 l 1
 556 114 l 1
 556 106 l 1
 564 106 l 1
 564 88 l 1
 573 88 l 1
 573 79 l 1
 582 79 l 1
 582 70 l 1
 591 70 l 1
 591 62 l 1
 600 62 l 1
 600 44 l 1
 608 44 l 1
 608 35 l 1
 617 35 l 1
 617 26 l 1
 626 26 l 1
 626 18 l 1
 635 18 l 1
 635 0 l 1
 476 0 l 1
 476 9 l 1
 468 9 l 1
 468 26 l 1
 459 26 l 1
 459 35 l 1
 450 35 l 1
 450 44 l 1
 441 44 l 1
 441 62 l 1
 433 62 l 1
 433 70 l 1
 424 70 l 1
 424 79 l 1
 415 79 l 1
 415 88 l 1
 406 88 l 1
 406 106 l 1
 397 106 l 1
 397 114 l 1
 389 114 l 1
 389 123 l 1
 380 123 l 1
 380 132 l 1
 371 132 l 1
 371 149 l 1
 362 149 l 1
 362 158 l 1
 353 158 l 1
 353 167 l 1
 336 167 l 1
 336 158 l 1
 327 158 l 1
 327 141 l 1
 318 141 l 1
 318 132 l 1
 309 132 l 1
 309 123 l 1
 301 123 l 1
 301 114 l 1
 292 114 l 1
 292 97 l 1
 283 97 l 1
 283 88 l 1
 274 88 l 1
 274 79 l 1
 265 79 l 1
 265 70 l 1
 257 70 l 1
 257 53 l 1
 248 53 l 1
 248 44 l 1
 239 44 l 1
 239 35 l 1
 230 35 l 1
 230 18 l 1
 221 18 l 1
 221 9 l 1
 213 9 l 1
 213 0 l 1
 72 0 l 1
 72 9 l 1
 81 9 l 1
 81 18 l 1
 90 18 l 1
 90 26 l 1
 98 26 l 1
 98 44 l 1
 107 44 l 1
 107 53 l 1
 116 53 l 1
 116 62 l 1
 125 62 l 1
 125 70 l 1
 134 70 l 1
 134 88 l 1
 142 88 l 1
 142 97 l 1
 151 97 l 1
 151 106 l 1
 160 106 l 1
 160 114 l 1
 169 114 l 1
 169 123 l 1
 178 123 l 1
 178 141 l 1
 186 141 l 1
 186 149 l 1
 195 149 l 1
 195 158 l 1
 204 158 l 1
 204 176 l 1
 213 176 l 1
 213 185 l 1
 221 185 l 1
 221 193 l 1
 230 193 l 1
 230 202 l 1
 239 202 l 1
 239 211 l 1
 248 211 l 1
 248 229 l 1
 257 229 l 1
 257 237 l 1
 265 237 l 1
 265 246 l 1
 274 246 l 1
 274 264 l 1
 265 264 l 1
 265 273 l 1
 257 273 l 1
 257 290 l 1
 248 290 l 1
 248 299 l 1
 239 299 l 1
 239 308 l 1
 230 308 l 1
 230 317 l 1
 221 317 l 1
 221 334 l 1
 213 334 l 1
 213 343 l 1
 204 343 l 1
 204 352 l 1
 195 352 l 1
 195 369 l 1
 186 369 l 1
 186 378 l 1
 178 378 l 1
 178 387 l 1
 169 387 l 1
 169 404 l 1
 160 404 l 1
 160 413 l 1
 151 413 l 1
 151 422 l 1
 142 422 l 1
 142 440 l 1
 134 440 l 1
 134 448 l 1
 125 448 l 1
 125 466 l 1
 116 466 l 1
 116 475 l 1
 107 475 l 1
 107 484 l 1
 98 484 l 1
 98 501 l 1
 90 501 l 1
 90 510 l 1
 248 510 l 1
 248 492 l 1
 257 492 l 1
 257 484 l 1
 265 484 l 1
 265 466 l 1
 274 466 l 1
 274 457 l 1
 283 457 l 1
 283 440 l 1
 292 440 l 1
 292 431 l 1
 301 431 l 1
 301 413 l 1
 309 413 l 1
 309 404 l 1
 318 404 l 1
 318 387 l 1
 327 387 l 1
 327 369 l 1
 336 369 l 1
 336 361 l 1
 345 361 l 1
 345 343 l 1
 353 343 l 1
 353 352 l 1
 362 352 l 1
 362 361 l 1
 371 361 l 1
 371 369 l 1
 380 369 l 1
 380 378 l 1
 389 378 l 1
 389 387 l 1
 397 387 l 1
 397 404 l 1
 406 404 l 1
 406 413 l 1
 415 413 l 1
 415 422 l 1
 424 422 l 1
 424 431 l 1
 433 431 l 1
 433 440 l 1
 441 440 l 1
 441 448 l 1
 450 448 l 1
 450 466 l 1
 459 466 l 1
 459 475 l 1
 468 475 l 1
 468 484 l 1
 476 484 l 1
 476 492 l 1
 485 492 l 1
 485 501 l 1
 512 501 l 1
 512 510 l 1
 608 510 l 1
 608 501 l 1
 617 501 l 1
 617 510 l 1
EndSplineSet
EndChar

StartChar: y
Encoding: 121 121 84
Width: 647
GlyphClass: 1
Flags: W
LayerCount: 2
Fore
SplineSet
114 -53 m 1
 139 -53 l 1
 139 -62 l 1
 156 -62 l 1
 156 -70 l 1
 182 -70 l 1
 182 -79 l 1
 215 -79 l 1
 215 -87 l 1
 359 -87 l 1
 359 -79 l 1
 376 -79 l 1
 376 -70 l 1
 392 -70 l 1
 392 -62 l 1
 409 -62 l 1
 409 -53 l 1
 418 -53 l 1
 418 -37 l 1
 426 -37 l 1
 426 -20 l 1
 435 -20 l 1
 435 6 l 1
 443 6 l 1
 443 90 l 1
 435 90 l 1
 435 81 l 1
 426 81 l 1
 426 73 l 1
 418 73 l 1
 418 65 l 1
 401 65 l 1
 401 56 l 1
 392 56 l 1
 392 48 l 1
 376 48 l 1
 376 39 l 1
 350 39 l 1
 350 31 l 1
 317 31 l 1
 317 22 l 1
 207 22 l 1
 207 31 l 1
 173 31 l 1
 173 39 l 1
 156 39 l 1
 156 48 l 1
 139 48 l 1
 139 56 l 1
 131 56 l 1
 131 65 l 1
 123 65 l 1
 123 73 l 1
 114 73 l 1
 114 81 l 1
 106 81 l 1
 106 90 l 1
 97 90 l 1
 97 107 l 1
 89 107 l 1
 89 124 l 1
 80 124 l 1
 80 157 l 1
 72 157 l 1
 72 520 l 1
 199 520 l 1
 199 174 l 1
 207 174 l 1
 207 157 l 1
 215 157 l 1
 215 149 l 1
 224 149 l 1
 224 140 l 1
 232 140 l 1
 232 132 l 1
 249 132 l 1
 249 124 l 1
 359 124 l 1
 359 132 l 1
 384 132 l 1
 384 140 l 1
 401 140 l 1
 401 149 l 1
 409 149 l 1
 409 157 l 1
 426 157 l 1
 426 166 l 1
 435 166 l 1
 435 174 l 1
 443 174 l 1
 443 503 l 1
 435 503 l 1
 435 512 l 1
 443 512 l 1
 443 520 l 1
 561 520 l 1
 561 -20 l 1
 553 -20 l 1
 553 -45 l 1
 544 -45 l 1
 544 -70 l 1
 536 -70 l 1
 536 -79 l 1
 527 -79 l 1
 527 -96 l 1
 519 -96 l 1
 519 -104 l 1
 511 -104 l 1
 511 -113 l 1
 502 -113 l 1
 502 -121 l 1
 494 -121 l 1
 494 -129 l 1
 485 -129 l 1
 485 -138 l 1
 468 -138 l 1
 468 -146 l 1
 460 -146 l 1
 460 -155 l 1
 443 -155 l 1
 443 -163 l 1
 418 -163 l 1
 418 -172 l 1
 376 -172 l 1
 376 -180 l 1
 207 -180 l 1
 207 -172 l 1
 165 -172 l 1
 165 -163 l 1
 139 -163 l 1
 139 -155 l 1
 123 -155 l 1
 123 -62 l 1
 114 -62 l 1
 114 -53 l 1
EndSplineSet
EndChar

StartChar: z
Encoding: 122 122 85
Width: 588
GlyphClass: 1
Flags: W
LayerCount: 2
Fore
SplineSet
72 510 m 1
 503 510 l 1
 503 422 l 1
 494 422 l 1
 494 413 l 1
 485 413 l 1
 485 404 l 1
 476 404 l 1
 476 387 l 1
 468 387 l 1
 468 378 l 1
 459 378 l 1
 459 369 l 1
 450 369 l 1
 450 361 l 1
 441 361 l 1
 441 343 l 1
 433 343 l 1
 433 334 l 1
 424 334 l 1
 424 325 l 1
 415 325 l 1
 415 317 l 1
 406 317 l 1
 406 299 l 1
 397 299 l 1
 397 290 l 1
 389 290 l 1
 389 281 l 1
 380 281 l 1
 380 273 l 1
 371 273 l 1
 371 255 l 1
 362 255 l 1
 362 246 l 1
 353 246 l 1
 353 237 l 1
 345 237 l 1
 345 220 l 1
 336 220 l 1
 336 211 l 1
 327 211 l 1
 327 202 l 1
 318 202 l 1
 318 193 l 1
 309 193 l 1
 309 176 l 1
 301 176 l 1
 301 167 l 1
 292 167 l 1
 292 158 l 1
 283 158 l 1
 283 149 l 1
 274 149 l 1
 274 132 l 1
 265 132 l 1
 265 123 l 1
 257 123 l 1
 257 114 l 1
 248 114 l 1
 248 106 l 1
 239 106 l 1
 239 97 l 1
 503 97 l 1
 503 0 l 1
 72 0 l 1
 72 79 l 1
 81 79 l 1
 81 97 l 1
 90 97 l 1
 90 106 l 1
 98 106 l 1
 98 114 l 1
 107 114 l 1
 107 123 l 1
 116 123 l 1
 116 132 l 1
 125 132 l 1
 125 149 l 1
 134 149 l 1
 134 158 l 1
 142 158 l 1
 142 167 l 1
 151 167 l 1
 151 176 l 1
 160 176 l 1
 160 193 l 1
 169 193 l 1
 169 202 l 1
 178 202 l 1
 178 211 l 1
 186 211 l 1
 186 220 l 1
 195 220 l 1
 195 237 l 1
 204 237 l 1
 204 246 l 1
 213 246 l 1
 213 255 l 1
 221 255 l 1
 221 264 l 1
 230 264 l 1
 230 281 l 1
 239 281 l 1
 239 290 l 1
 248 290 l 1
 248 299 l 1
 257 299 l 1
 257 308 l 1
 265 308 l 1
 265 325 l 1
 274 325 l 1
 274 334 l 1
 283 334 l 1
 283 343 l 1
 292 343 l 1
 292 352 l 1
 301 352 l 1
 301 369 l 1
 309 369 l 1
 309 378 l 1
 318 378 l 1
 318 387 l 1
 327 387 l 1
 327 396 l 1
 336 396 l 1
 336 404 l 1
 345 404 l 1
 345 413 l 1
 72 413 l 1
 72 510 l 1
EndSplineSet
EndChar

StartChar: uni0000
Encoding: 0 0 86
Width: 579
Flags: W
LayerCount: 2
Fore
SplineSet
199 746 m 1
 325 746 l 1
 325 738 l 1
 367 738 l 1
 367 729 l 1
 392 729 l 1
 392 721 l 1
 418 721 l 1
 418 712 l 1
 426 712 l 1
 426 704 l 1
 443 704 l 1
 443 695 l 1
 452 695 l 1
 452 687 l 1
 460 687 l 1
 460 679 l 1
 468 679 l 1
 468 662 l 1
 477 662 l 1
 477 645 l 1
 485 645 l 1
 485 619 l 1
 494 619 l 1
 494 535 l 1
 485 535 l 1
 485 510 l 1
 477 510 l 1
 477 493 l 1
 468 493 l 1
 468 485 l 1
 460 485 l 1
 460 476 l 1
 452 476 l 1
 452 459 l 1
 443 459 l 1
 443 451 l 1
 435 451 l 1
 435 442 l 1
 426 442 l 1
 426 434 l 1
 409 434 l 1
 409 426 l 1
 401 426 l 1
 401 417 l 1
 392 417 l 1
 392 409 l 1
 384 409 l 1
 384 400 l 1
 367 400 l 1
 367 392 l 1
 359 392 l 1
 359 383 l 1
 350 383 l 1
 350 375 l 1
 342 375 l 1
 342 366 l 1
 333 366 l 1
 333 358 l 1
 325 358 l 1
 325 350 l 1
 317 350 l 1
 317 341 l 1
 308 341 l 1
 308 324 l 1
 300 324 l 1
 300 307 l 1
 291 307 l 1
 291 257 l 1
 190 257 l 1
 190 282 l 1
 182 282 l 1
 182 341 l 1
 190 341 l 1
 190 358 l 1
 199 358 l 1
 199 375 l 1
 207 375 l 1
 207 383 l 1
 215 383 l 1
 215 392 l 1
 224 392 l 1
 224 400 l 1
 232 400 l 1
 232 409 l 1
 241 409 l 1
 241 417 l 1
 249 417 l 1
 249 426 l 1
 258 426 l 1
 258 434 l 1
 266 434 l 1
 266 442 l 1
 274 442 l 1
 274 451 l 1
 291 451 l 1
 291 459 l 1
 300 459 l 1
 300 468 l 1
 308 468 l 1
 308 476 l 1
 317 476 l 1
 317 485 l 1
 325 485 l 1
 325 493 l 1
 333 493 l 1
 333 501 l 1
 342 501 l 1
 342 510 l 1
 350 510 l 1
 350 518 l 1
 359 518 l 1
 359 535 l 1
 367 535 l 1
 367 594 l 1
 359 594 l 1
 359 611 l 1
 350 611 l 1
 350 619 l 1
 342 619 l 1
 342 628 l 1
 325 628 l 1
 325 636 l 1
 300 636 l 1
 300 645 l 1
 182 645 l 1
 182 636 l 1
 148 636 l 1
 148 628 l 1
 131 628 l 1
 131 619 l 1
 106 619 l 1
 106 611 l 1
 89 611 l 1
 89 603 l 1
 80 603 l 1
 80 594 l 1
 72 594 l 1
 72 712 l 1
 97 712 l 1
 97 721 l 1
 123 721 l 1
 123 729 l 1
 148 729 l 1
 148 738 l 1
 199 738 l 1
 199 746 l 1
224 181 m 1
 274 181 l 1
 274 173 l 1
 291 173 l 1
 291 164 l 1
 300 164 l 1
 300 156 l 1
 308 156 l 1
 308 147 l 1
 317 147 l 1
 317 113 l 1
 325 113 l 1
 325 105 l 1
 317 105 l 1
 317 71 l 1
 308 71 l 1
 308 63 l 1
 300 63 l 1
 300 54 l 1
 283 54 l 1
 283 46 l 1
 207 46 l 1
 207 54 l 1
 199 54 l 1
 199 63 l 1
 190 63 l 1
 190 71 l 1
 182 71 l 1
 182 97 l 1
 173 97 l 1
 173 130 l 1
 182 130 l 1
 182 147 l 1
 190 147 l 1
 190 164 l 1
 207 164 l 1
 207 173 l 1
 224 173 l 1
 224 181 l 1
EndSplineSet
EndChar

StartChar: backslash
Encoding: 92 92 87
Width: 520
Flags: W
LayerCount: 2
Fore
SplineSet
28 785 m 1
 28 777 l 1
 128 777 l 1
 128 785 l 1
 136 785 l 1
 136 777 l 1
 145 777 l 1
 145 768 l 1
 136 768 l 1
 472 89 l 1
 464 100 l 1
 517 -10 l 1
 396 -11 l 1
 20 785 l 1
 28 785 l 1
EndSplineSet
EndChar

StartChar: grave
Encoding: 96 96 88
Width: 568
Flags: W
LayerCount: 2
Fore
SplineSet
201 739 m 1
 201 727 l 1
 202 727 202 727 226 727 c 1
 226 715 l 1
 238 715 l 1
 238 703 l 1
 250 703 l 1
 250 702 250 702 250 690 c 1
 262 690 l 1
 262 618 l 1
 260 618 l 1
 260 595 l 1
 258 595 l 1
 262 583 l 1
 256 583 l 1
 256 571 l 1
 260 571 l 1
 263 559 l 1
 266 556 l 1
 264 547 l 1
 262 547 l 1
 262 546 262 546 283 486 c 1
 295 486 l 1
 295 462 l 1
 307 462 l 1
 307 438 l 1
 319 438 l 1
 319 426 l 1
 331 426 l 1
 331 414 l 1
 332 414 332 414 344 414 c 1
 344 402 l 1
 368 402 l 1
 368 390 l 1
 295 390 l 1
 295 402 l 1
 271 402 l 1
 271 414 l 1
 259 414 l 1
 259 426 l 1
 258 426 258 426 234 426 c 1
 234 438 l 1
 222 438 l 1
 222 462 l 1
 210 462 l 1
 210 474 l 1
 198 474 l 1
 198 498 l 1
 186 498 l 1
 186 535 l 1
 174 535 l 1
 174 536 174 536 138 680 c 1
 150 680 l 1
 150 704 l 1
 162 704 l 1
 162 716 l 1
 174 716 l 1
 174 728 l 1
 176 727 l 1
 176 739 l 1
 201 739 l 1
EndSplineSet
EndChar
